<svg width="122" height="122" viewBox="0 0 122 122" fill="none" xmlns="http://www.w3.org/2000/svg">
<path d="M24.4976 0.0190194L0 24.5166L24.4976 49.0142L48.9952 24.5166L24.4976 0.0190194Z" fill="#CAE5FF"/>
<path d="M73.5028 -2.89672e-05L49.0052 24.4976L73.5028 48.9951L98.0004 24.4976L73.5028 -2.89672e-05Z" fill="white"/>
<path d="M122.483 0.00570834L97.9858 24.5033L122.483 49.0009L146.981 24.5033L122.483 0.00570834Z" fill="#FFDADE"/>
<path d="M24.5166 49.0243L0.0189819 73.5219L24.5166 98.0194L49.0141 73.5219L24.5166 49.0243Z" fill="#CAE5FF"/>
<path d="M73.5219 49.0052L49.0243 73.5028L73.5219 98.0004L98.0195 73.5028L73.5219 49.0052Z" fill="white"/>
<path d="M122.502 49.011L98.0048 73.5085L122.502 98.0061L147 73.5085L122.502 49.011Z" fill="#FFDADE"/>
<path d="M24.5109 98.0049L0.0133057 122.502L24.5109 147L49.0085 122.502L24.5109 98.0049Z" fill="#CAE5FF"/>
<path d="M73.5161 97.9858L49.0186 122.483L73.5161 146.981L98.0137 122.483L73.5161 97.9858Z" fill="white"/>
<path d="M122.497 97.9916L97.9991 122.489L122.497 146.987L146.994 122.489L122.497 97.9916Z" fill="#FFDADE"/>
</svg>
