<svg width="56" height="56" viewBox="0 0 56 56" fill="none" xmlns="http://www.w3.org/2000/svg">
<rect width="56" height="56" rx="28" fill="white"/>
<path d="M31.58 28C31.58 29.98 29.98 31.58 28 31.58C26.02 31.58 24.42 29.98 24.42 28C24.42 26.02 26.02 24.42 28 24.42C29.98 24.42 31.58 26.02 31.58 28Z" stroke="#21294B" stroke-width="1.5" stroke-linecap="round" stroke-linejoin="round"/>
<path d="M28 36.27C31.53 36.27 34.82 34.19 37.11 30.59C38.01 29.18 38.01 26.81 37.11 25.4C34.82 21.8 31.53 19.72 28 19.72C24.47 19.72 21.18 21.8 18.89 25.4C17.99 26.81 17.99 29.18 18.89 30.59C21.18 34.19 24.47 36.27 28 36.27Z" stroke="#21294B" stroke-width="1.5" stroke-linecap="round" stroke-linejoin="round"/>
</svg>
