<svg width="32" height="32" viewBox="0 0 32 32" fill="none" xmlns="http://www.w3.org/2000/svg">
<path d="M0 16C0 7.16344 7.16344 0 16 0C24.8366 0 32 7.16344 32 16C32 24.8366 24.8366 32 16 32C7.16344 32 0 24.8366 0 16Z" fill="white"/>
<path d="M15.4262 10.5267L16 11.1432L16.5738 10.5267C18.1583 8.82443 20.7272 8.82443 22.3116 10.5267C23.8961 12.229 23.8961 14.989 22.3117 16.6912L17.1476 22.2393C16.5138 22.9202 15.4862 22.9202 14.8524 22.2393L9.68835 16.6912C8.10388 14.989 8.10388 12.229 9.68835 10.5267C11.2728 8.82443 13.8417 8.82443 15.4262 10.5267Z" stroke="#28303F" stroke-width="1.5" stroke-linejoin="round"/>
</svg>
