<svg width="158" height="109" viewBox="0 0 158 109" fill="none" xmlns="http://www.w3.org/2000/svg">
<path d="M86.9725 23.2808C90.724 21.2226 94.7706 20.0129 98.9949 19.4299C101.001 19.1532 103.03 19.0495 105.049 18.8676C105.158 18.8577 105.268 18.8491 105.435 18.8352C105.529 18.6002 105.634 18.3604 105.723 18.1151C107.631 12.8711 110.596 8.31841 114.667 4.49816C116.462 2.81363 118.456 1.3938 120.606 0.190906C120.928 0.0108489 121.144 0.0195138 121.431 0.268052C124.066 2.55437 126.509 5.01765 128.535 7.87124C129.7 9.51309 130.711 11.2412 131.393 13.144C131.537 13.5435 131.786 13.8245 132.137 14.0525C134.528 15.6083 136.909 17.1785 139.306 18.7249C139.553 18.8842 139.885 19.01 140.17 18.9961C144.283 18.7964 148.176 19.7562 151.968 21.2228C153.337 21.7525 154.671 22.3753 156.015 22.9686C156.579 23.2177 156.578 23.2336 156.512 23.8872C156.146 27.4937 155.16 30.926 153.581 34.1856C151.585 38.3051 148.9 41.9127 145.498 44.9821C145.35 45.1151 145.188 45.2313 145.044 45.3459C145.123 45.5735 145.164 45.7218 145.224 45.8623C147.777 51.874 148.759 58.168 148.614 64.6662C148.414 73.688 145.541 81.8108 140.232 89.0579C134.264 97.204 126.446 102.845 116.787 105.859C111.6 107.477 106.281 108.034 100.865 107.541C93.4689 106.868 86.5124 104.779 80.2195 100.791C70.0932 94.3738 63.6836 85.2765 60.9912 73.5921C60.2684 70.4556 59.958 67.2622 60.0222 64.0408C60.0332 63.4934 59.8965 63.0685 59.5323 62.6512C57.3392 60.1392 56.7347 57.1582 56.9924 53.9232C57.369 49.1946 59.0039 44.8667 61.1789 40.7107C61.8065 39.5116 62.635 38.4672 63.7547 37.6833C64.5959 37.0944 65.4908 36.6954 66.5662 36.8974C68.019 37.1703 68.9277 38.1255 69.1056 39.6032C69.2698 40.9669 69.0132 42.2648 68.4984 43.5211C67.8438 45.1188 66.9291 46.5616 65.9131 47.9538C64.9949 49.2119 64.1032 50.4942 63.2826 51.8172C62.4681 53.1302 61.8681 54.5588 61.6909 56.1085C61.4875 57.8877 61.8801 59.46 63.4195 60.6094C64.2333 61.217 65.083 61.3053 66.0085 61.037C66.909 60.776 67.6703 60.2726 68.2867 59.5753C69.0096 58.7575 69.7119 57.9206 70.3985 57.072C71.1312 56.1665 71.9323 55.3356 72.8657 54.636C74.8408 53.1554 76.9136 53.128 78.9247 54.5578C80.1407 55.4223 81.1526 56.4796 81.8791 57.7871C83.5269 60.7525 84.2084 63.8871 83.4387 67.2485C83.1456 68.528 82.5509 69.68 81.696 70.6723C80.1262 72.4946 78.1617 73.202 75.8157 72.5168C73.1398 71.7353 71.333 69.937 70.2054 67.4375C69.4888 65.849 69.3922 65.007 69.5034 62.694C69.2729 62.9079 69.1009 63.0638 68.933 63.224C67.7684 64.3359 66.4121 65.0454 64.7905 65.1994C64.0503 65.2698 63.3219 65.2369 62.6161 64.9705C62.4537 64.9092 62.281 64.8754 62.0427 64.8095C62.0427 65.137 62.0223 65.4152 62.0458 65.6896C62.3985 69.7997 63.2756 73.7948 64.8753 77.6002C69.5475 88.7147 77.5814 96.3704 88.8507 100.608C94.1538 102.602 99.6791 103.372 105.331 103.127C109.838 102.933 114.14 101.794 118.232 99.9282C126.618 96.1048 133.17 90.2206 137.781 82.2302C140.73 77.1196 142.335 71.6101 142.521 65.6921C142.65 61.5721 142.403 57.49 141.411 53.4805C138.551 41.9202 131.817 33.346 121.352 27.7101C116.63 25.1674 111.553 23.7159 106.226 23.1304C99.1347 22.3511 92.2232 23.1994 85.4621 25.4159C84.5981 25.6992 83.7293 25.9678 82.8661 26.2535C82.5816 26.3477 81.197 26.9 81.197 26.9C81.171 26.8658 86.5889 23.4912 86.9725 23.2808ZM135.634 24.954C136.024 24.3657 136.414 23.7774 136.794 23.2053C136.451 22.7725 129.772 18.3368 129.003 18.0296C128.576 18.6993 128.138 19.3841 127.628 20.1214C126.844 21.3274 126.059 22.5333 125.238 23.7957C128.023 25.2766 130.542 27.0157 132.966 29.0034C133.873 27.6192 134.723 26.3221 135.634 24.954ZM140.604 26.2841C140.462 26.5352 140.335 26.7954 140.177 27.036C139.129 28.6377 138.074 30.2347 137.023 31.8343C136.891 32.0355 136.768 32.243 136.604 32.5075C138.948 35.0156 140.937 37.7628 142.73 40.7426C146.343 37.2912 148.9 33.288 150.553 28.5854C150.768 27.8007 150.984 27.0161 151.209 26.2004C148.122 24.9938 145.075 24.0412 141.943 23.9429C141.485 24.7752 141.083 25.5056 140.604 26.2841ZM124.729 15.4339C125.218 14.8671 125.707 14.3003 126.245 13.677C124.823 10.8149 122.789 8.34701 120.464 6.03682C119.884 6.50642 119.367 6.92475 118.764 7.36999C118.575 7.55961 118.393 7.75482 118.199 7.93802C115.041 10.9173 112.63 14.4138 110.937 18.4078C110.846 18.6224 110.775 18.8454 110.674 19.121C111 19.1854 111.235 19.2414 111.473 19.2775C114.388 19.7196 117.238 20.4163 120.003 21.4475C120.668 21.6957 120.669 21.7066 121.067 21.0934C122.123 19.4675 123.177 17.8404 124.227 16.211C124.378 15.9761 124.506 15.7258 124.729 15.4339ZM75.533 59.0558C75.3484 58.9789 75.168 58.8885 74.9782 58.8279C74.478 58.6682 74.3781 58.712 74.1755 59.2206C73.6299 60.5905 73.6405 61.9641 74.2373 63.3103C74.5744 64.0706 75.1395 64.636 75.9483 64.9004C76.6959 65.1449 77.3825 64.8651 77.7773 64.1876C78.1478 63.5518 78.1782 62.8627 77.9938 62.1817C77.6299 60.8375 76.8843 59.7652 75.533 59.0558Z" fill="#21294B"/>
<path d="M50.3322 98.0959C41.9827 98.755 34.3047 96.7555 27.3914 92.0279C19.8828 86.8931 14.9451 79.8295 12.1572 71.2285C10.8583 67.2212 10.1295 63.1033 10.1715 58.8795C10.205 55.5214 10.7552 52.2381 11.7083 49.0107C13.2433 43.8121 15.7303 39.1259 19.125 34.9142C21.291 32.2269 23.7754 29.866 26.5954 27.875C27.1248 27.5012 27.2179 27.1463 27.0983 26.5509C26.6625 24.3819 25.9027 22.3612 24.5895 20.5628C23.1114 18.5386 21.1126 17.2053 18.8566 16.2074C18.6339 16.1089 18.4106 16.0118 18.1581 15.9011C18.1661 15.765 18.1473 15.6292 18.185 15.5115C18.8191 13.5341 19.5621 11.6028 20.71 9.85634C22.035 7.84047 23.7609 6.31279 26.1165 5.62146C26.7946 5.42244 27.5099 5.30514 28.2156 5.25341C30.4931 5.08649 32.7581 5.3019 35.018 5.57084C35.6375 5.64456 36.2572 5.7177 36.8749 5.8048C38.1878 5.98995 39.2929 5.55721 40.2275 4.66096C40.7902 4.1214 41.3362 3.56165 41.8567 2.98138C44.2093 0.358435 47.2191 -0.286468 50.5558 0.105459C52.4232 0.324798 54.1214 1.03636 55.7023 2.04621C57.5747 3.2422 59.2015 4.72726 60.7625 6.29219C60.8081 6.33788 60.8364 6.40072 60.9082 6.50881C60.7659 6.7051 60.618 6.91912 60.46 7.12533C58.877 9.19106 57.5758 11.4115 56.7691 13.8981C56.0272 16.1845 55.8173 18.5092 56.3197 20.9121C57.2201 21.125 58.1326 21.3192 59.0335 21.5572C65.2258 23.1933 70.8261 25.9793 75.6405 30.2376C81.9587 35.826 85.9654 42.7779 87.6972 51.0243C89.0869 57.6419 88.6978 64.1841 86.6489 70.6193C85.263 74.9722 82.8937 78.7766 79.9606 82.2471C79.6746 82.5855 77.6837 84.2512 77.6837 84.2512C77.9238 83.9081 78.7481 83.0245 78.9847 82.679C81.949 78.3494 84.1433 73.6899 85.1045 68.4943C85.6341 65.6315 85.7908 62.7474 85.67 59.8449C85.4722 55.0911 84.376 50.5494 82.3593 46.2415C79.4888 40.11 75.1639 35.2352 69.4764 31.5789C65.0468 28.7313 60.2137 26.9143 54.9845 26.2577C45.2454 25.0346 36.4964 27.4808 28.8709 33.6562C22.2661 39.0052 18.2363 45.9559 16.5459 54.2697C15.8917 57.4867 15.8865 60.721 16.2485 63.9781C16.8766 69.6305 18.6353 74.8788 21.7445 79.6484C26.2131 86.5034 32.3784 91.2087 40.0809 93.9039C45.362 95.7518 50.8018 96.2822 56.3601 95.6905C58.8663 95.4237 61.279 94.8066 63.727 94.256C63.727 94.256 51.6983 97.9881 50.3322 98.0959ZM26.0587 14.838C26.8008 15.6362 27.5947 16.393 28.2746 17.241C29.843 19.1973 30.8244 21.4573 31.5209 23.8502C31.5917 24.0934 31.6902 24.3285 31.7922 24.6128C32.4819 24.299 33.0828 24.012 33.6948 23.751C34.3085 23.4893 34.9307 23.2468 35.554 23.0084C36.1775 22.7699 36.8021 22.5325 37.435 22.3211C38.0677 22.1097 38.7078 21.9182 39.3512 21.7419C39.9731 21.5715 40.6008 21.4197 41.2306 21.2814C41.8823 21.1382 42.5373 21.0061 43.1954 20.8967C43.8537 20.7874 44.516 20.6976 45.1795 20.6261C45.8431 20.5546 46.5098 20.5078 47.1762 20.4659C47.8427 20.424 48.5105 20.4041 49.1775 20.37C49.8318 20.3366 50.4943 20.4454 51.1657 20.331C51.1657 20.0836 51.1809 19.906 51.1634 19.7317C50.9993 18.1006 51.1511 16.4895 51.4332 14.8822C51.7577 13.0326 52.3726 11.2765 53.144 9.46879C53.5301 8.69751 53.9162 7.92624 54.3333 7.09311C53.8313 6.74858 53.356 6.38482 52.8457 6.07946C51.5142 5.28267 50.0748 4.89871 48.5108 4.97359C47.3439 5.02946 46.3415 5.39607 45.5488 6.28761C45.0606 6.83665 44.5497 7.36688 44.0281 7.88446C42.6063 9.29523 40.9727 10.3304 38.9584 10.6631C37.5319 10.8988 36.1172 10.732 34.7015 10.5368C32.6467 10.2535 30.5851 10.0683 28.5066 10.182C27.8956 10.2154 27.3122 10.3463 26.7944 10.6798C25.7216 11.3706 24.9588 12.3395 24.286 13.4711C24.8881 13.9149 25.4572 14.3343 26.0587 14.838Z" fill="#21294B"/>
<path d="M128.6 78.837C126.142 77.283 124.61 75.0683 123.614 72.4392C123.202 71.3509 122.942 70.2308 122.88 69.064C122.864 68.7607 122.766 68.4618 122.686 68.058C122.532 68.2155 122.416 68.2995 122.347 68.4121C122.159 68.7146 121.965 69.0175 121.821 69.3414C121.221 70.6913 120.191 71.664 119.038 72.5228C118.162 73.1757 117.122 73.4866 116.075 73.6641C115.113 73.827 114.247 73.3658 113.44 72.8766C111.695 71.818 110.42 70.3393 109.576 68.4829C109.463 68.2341 109.299 68.0086 109.104 67.6812C108.802 68.0382 108.573 68.3013 108.353 68.5713C107.631 69.4538 106.839 70.2584 105.898 70.9143C105.092 71.475 104.195 71.7752 103.245 71.9492C102.918 72.0093 102.583 72.035 102.258 72.1089C101.301 72.3272 100.403 72.1408 99.5418 71.7249C98.8188 71.3756 98.1138 70.9931 97.5602 70.388C97.5049 70.3275 97.4186 70.2955 97.2593 70.1953C97.2011 70.8419 97.121 71.4232 97.1026 72.0065C97.0717 72.9863 97.0564 73.9678 97.0776 74.9476C97.1087 76.379 96.8979 77.7825 96.6782 79.1888C96.3947 81.0032 95.9142 82.7619 95.0701 84.3929C93.8278 86.793 91.8565 88.2891 89.1881 88.768C87.8868 89.0015 86.6484 88.665 85.5884 87.872C84.7312 87.2307 83.9664 86.4775 83.4563 85.5108C82.6572 83.9963 82.4443 82.4074 82.7994 80.7261C83.0107 79.7261 83.3542 78.8109 84.058 78.0467C85.0495 76.9699 86.2611 76.5226 87.7132 76.7009C88.2388 76.7655 88.7736 76.8756 89.2942 76.8355C90.2408 76.7624 90.845 76.1084 91.3505 75.3827C91.9955 74.4569 92.3367 73.3909 92.6369 72.3185C92.8161 71.6781 92.9635 71.0228 93.0529 70.3644C93.3043 68.5114 93.3756 66.6565 93.2394 64.7809C93.1069 62.9555 92.6605 61.1886 92.4254 59.3853C92.2436 57.9911 92.1792 56.5857 92.2913 55.1882C92.3601 54.3298 92.5657 53.4671 93.1813 52.788C93.833 52.0691 95.1018 52.1239 95.6951 52.8942C96.069 53.3798 96.3192 53.9289 96.3886 54.5359C96.5047 55.5511 96.5712 56.5718 96.683 57.5875C96.8722 59.3072 96.8967 61.0484 97.3229 62.7377C97.7429 64.4022 98.9259 65.4489 100.635 65.6794C101.052 65.7357 101.473 65.773 101.893 65.8116C103.255 65.9367 104.253 65.273 105.055 64.2751C105.91 63.2115 106.344 61.9564 106.576 60.6214C106.818 59.2337 106.843 57.8355 106.841 56.4332C106.839 54.3428 107.456 52.4491 108.684 50.7555C109.344 49.8455 110.239 49.289 111.335 49.103C112.528 48.9005 113.398 49.4603 114.061 50.4079C114.532 51.0817 114.715 51.8614 114.872 52.6492C115.183 54.2173 114.88 55.7497 114.569 57.2742C114.17 59.2262 113.473 61.0729 112.505 62.8174C112.417 62.9759 112.356 63.2139 112.407 63.3756C112.896 64.9198 113.808 66.11 115.24 66.9403C116.288 67.5475 117.218 67.394 118.192 66.8536C119.256 66.263 119.917 65.3065 120.435 64.2702C121.012 63.1187 121.498 61.9193 121.971 60.72C122.789 58.6442 123.688 56.6077 124.908 54.7348C125.532 53.7784 126.302 52.9327 127.329 52.3828C128.339 51.8418 129.404 51.8268 130.505 52.0876C131.491 52.3213 132.31 52.8718 133.07 53.4724C135.033 55.0211 136.382 57.0447 137.393 59.3137C138.378 61.5268 139.025 63.8476 139.288 66.237C139.457 67.7718 139.307 69.3463 139.243 70.9007C139.187 72.2693 138.776 73.5684 138.282 74.8363C137.766 76.1579 137.047 77.3515 136 78.3297C134.656 79.5848 133.075 80.0295 131.264 79.7714C130.325 79.6375 129.431 79.4104 128.6 78.837ZM128.318 67.2653C128.753 67.9417 129.314 68.4667 130.111 68.6735C130.796 68.8512 131.443 68.6865 131.849 68.1273C132.165 67.6912 132.437 67.137 132.489 66.6115C132.709 64.404 131.955 62.5339 130.253 61.1015C129.605 60.5561 128.843 60.1634 127.942 60.182C127.449 60.1922 127.416 60.1985 127.304 60.6664C127.103 61.5133 127.067 62.3591 127.14 63.239C127.256 64.6406 127.615 65.946 128.318 67.2653Z" fill="#F1A1AA"/>
<path d="M151.975 74.2582C153.006 67.8214 152.835 61.5015 151.02 55.2685C150.32 52.8636 149.34 50.5724 148.128 48.3801C147.966 48.0879 147.79 47.7993 147.668 47.4904C147.555 47.2039 147.462 46.8961 147.437 46.5913C147.374 45.8498 147.809 45.4509 148.544 45.5709C149.285 45.6917 149.934 46.0375 150.528 46.4858C152.079 47.657 153.321 49.0979 154.278 50.7883C155.768 53.4168 156.646 56.258 157.226 59.2037C158.296 64.6341 158.283 70.0524 157.023 75.4526C156.575 77.3682 155.932 79.2215 155.082 80.9941C153.106 85.113 151.053 89.1932 148.694 93.1093C145.827 97.869 142.147 101.882 137.558 105.039C135.437 106.499 133.172 107.689 130.725 108.503C130.013 108.74 129.253 108.833 128.512 108.978C128.34 109.012 128.156 108.998 127.978 108.991C126.176 108.917 125.318 107.483 126.107 105.858C126.446 105.158 126.976 104.606 127.603 104.175C128.482 103.57 129.386 102.995 130.314 102.468C132.212 101.39 134.175 100.421 136.035 99.2821C140.026 96.8367 143.482 93.7806 146.25 89.9793C147.85 87.7835 149.121 85.4276 149.942 82.8268C150.823 80.037 151.476 77.1968 151.975 74.2582Z" fill="#21294B"/>
<path d="M48.971 47.028C49.1615 46.0703 49.4592 45.22 49.9769 44.4465C50.2726 44.0045 50.6359 43.7349 51.1782 43.7334C51.3563 43.7329 51.5378 43.7404 51.7118 43.71C53.1169 43.4644 54.074 44.1817 54.8012 45.2386C55.3509 46.0375 55.5778 46.9865 55.6012 47.958C55.628 49.071 55.6625 50.1886 55.5919 51.2977C55.516 52.4916 55.3521 53.6825 55.1722 54.8664C54.9491 56.3351 54.7296 57.8087 54.4012 59.2559C53.9151 61.398 53.5055 63.5577 52.809 65.6534C52.0426 67.96 51.221 70.241 50.044 72.3686C48.8756 74.4808 47.5127 76.4643 45.5467 77.9354C44.1561 78.9758 42.626 79.7188 40.8629 79.8913C39.1248 80.0613 37.412 80.0614 35.7199 79.4973C33.4329 78.7349 31.7198 77.2924 30.5249 75.2371C30.1608 74.6107 29.9588 73.8877 29.7084 73.1996C29.6429 73.0194 29.6544 72.8028 29.6656 72.605C29.6885 72.2025 29.7814 72.122 30.2046 72.0942C30.6036 72.068 31.003 72.0473 31.4023 72.0262C32.167 71.9859 32.8076 71.6434 33.4117 71.2085C33.5171 71.1327 33.6314 71.0693 33.6811 71.0381C34.3532 71.3622 34.9445 71.7397 35.5906 71.9427C38.1588 72.7497 40.0823 70.8017 40.3645 68.8743C40.4095 68.567 40.4601 68.2604 40.4976 67.9523C40.5352 67.643 40.7092 67.4539 41.0074 67.4225C42.1863 67.2986 43.1425 66.7301 44.039 65.9963C44.9038 65.2886 45.4865 64.3739 46.0251 63.4275C47.3282 61.1374 48.1127 58.6713 48.3942 56.0549C48.52 54.8862 48.6068 53.709 48.6272 52.5342C48.6588 50.7109 48.619 48.8863 48.971 47.028Z" fill="#F1A1AA"/>
<path d="M38.8855 52.0479C39.8291 51.9294 40.7093 51.8139 41.5887 51.6934C42.7147 51.5392 43.7671 51.6635 44.6368 52.4873C45.3901 53.2008 45.498 54.1084 45.3903 55.0697C45.1763 56.9797 44.2256 58.5436 43.0534 60.0034C41.3434 62.133 39.1079 63.4408 36.4994 64.1216C33.9888 64.7768 31.4993 64.5925 29.1017 63.6247C27.6853 63.0529 26.4902 62.1415 25.4751 60.9657C24.392 59.7113 23.7595 58.2822 23.4318 56.6839C23.0107 54.6293 23.2271 52.6512 24.1635 50.7745C24.5638 49.9722 25.1427 49.2844 25.8609 48.7373C26.9177 47.9324 28.1087 47.8385 29.3512 48.1672C30.0348 48.3481 30.4992 48.8162 30.8415 49.4231C31.4763 50.5487 31.5114 51.7705 31.3586 52.9963C31.216 54.1402 30.8952 55.2651 30.7996 56.4106C30.7127 57.453 30.9566 58.4467 31.9454 59.0842C33.063 59.8047 34.2945 60.038 35.5881 59.8954C36.9034 59.7504 38.1478 59.3571 39.2958 58.6664C39.9166 58.2929 40.4403 57.8221 40.9306 57.3023C40.9915 57.2378 41.0747 57.172 41.0933 57.0938C41.1526 56.8447 41.2925 56.5414 41.2047 56.3481C41.0773 56.0672 40.7444 56.1996 40.4829 56.2519C39.4822 56.4525 38.4917 56.7531 37.4581 56.698C36.4761 56.6457 35.5003 56.505 34.6414 55.98C33.4453 55.2489 32.7988 54.1609 32.6023 52.7753C32.2568 50.339 32.869 48.1197 34.0014 45.9811C34.8157 44.4433 35.8828 43.1236 37.1467 41.9494C38.4773 40.7133 40.0283 39.8715 41.7882 39.421C42.7734 39.1688 43.767 39.1741 44.7627 39.3587C45.3535 39.4682 45.8226 39.8203 46.2861 40.1625C47.3554 40.9522 47.949 41.9863 48.1551 43.3375C48.4887 45.5241 47.656 47.2635 46.2935 48.8232C45.537 49.6891 44.5564 50.1829 43.3568 50.1895C42.2824 50.1955 41.2169 50.2047 40.2137 49.7378C39.6868 49.4926 39.1643 49.2522 38.8488 48.7164C38.5934 48.2827 38.5154 47.848 38.7401 47.3838C38.9338 46.9837 39.1587 46.5965 39.3224 46.1848C39.4539 45.8538 39.6985 45.5151 39.4299 45.0509C39.2451 45.1403 39.0489 45.1906 38.911 45.3089C37.6182 46.4179 36.5777 47.7066 36.1929 49.4096C36.0868 49.8792 36.0798 50.379 36.0863 50.8642C36.0928 51.3469 36.4384 51.61 36.8519 51.776C37.4843 52.0298 38.1487 52.0758 38.8855 52.0479Z" fill="#F1A1AA"/>
<path d="M3.50585 37.6656C2.94439 39.1194 2.50575 40.6084 2.20402 42.1372C2.11417 42.5925 2.19385 42.7958 2.48645 42.9187C2.83774 43.0664 3.1924 42.9546 3.39075 42.5924C3.56091 42.2817 3.70497 41.954 3.83269 41.623C4.90776 38.8372 5.97945 36.5894 7.65955 33.519C8.66559 31.6804 9.59083 28.8653 10.4017 28.9058C9.14443 31.9171 6.71065 37.5971 5.40136 40.6175C5.08374 41.3502 4.86774 42.1277 4.61962 42.8894C4.47771 43.3251 4.58475 43.5478 4.9548 43.6756C5.28043 43.788 5.48825 43.6819 5.65695 43.2577C6.11742 42.0996 6.53057 40.9218 7.02112 39.7768C7.47268 38.7229 11.5318 29.3514 12.7168 29.1398C11.6266 31.6279 7.54202 40.2538 7.00842 42.9374C6.97806 43.0901 6.93893 43.2428 6.92815 43.3972C6.90168 43.7763 7.03123 43.9407 7.42947 44.0647C7.76856 44.1702 7.93643 44.1091 8.12428 43.7388C8.32538 43.3423 8.49635 42.93 8.66946 42.52C9.77747 39.8956 10.8582 37.2593 12 34.6497C12.4795 33.5536 13.5522 31.1986 14.1472 30.1761C14.7094 31.7342 11.844 37.0967 11.3195 38.8289C10.6361 41.0857 9.93901 43.3383 9.25015 45.5935C8.87888 46.809 8.11545 47.7485 7.1735 48.5645C6.95462 48.7541 6.73191 48.9396 6.51952 49.1362C5.05871 50.4887 4.36078 52.1842 4.14571 54.1458C3.80458 57.2574 3.69888 60.3655 4.01545 63.4832C4.43099 67.5755 5.55603 71.4726 7.24921 75.2122C8.42998 77.8202 9.86594 80.27 11.6598 82.514C12.3516 83.3794 12.9774 84.3152 13.5101 85.2864C14.5386 87.1615 13.9131 88.812 12.6726 90.0994C12.317 90.4685 11.8849 90.6606 11.376 90.7211C9.14404 90.9865 7.46415 90.1464 6.34552 88.1982C5.55838 86.8274 5.17115 85.3149 4.8188 83.7978C4.0685 80.5672 3.30048 77.3371 2.8692 74.0445C2.53379 71.4838 2.23989 68.9163 1.99872 66.3451C1.83034 64.55 1.76409 62.7445 1.68472 60.9421C1.5699 58.3347 1.62979 55.7281 1.86932 53.1295C2.01647 51.5331 1.71742 50.0287 1.09645 48.5715C0.904486 48.121 0.71002 47.6712 0.502246 47.2279C-0.0391129 46.0728 -0.115494 44.8808 0.14357 43.6405C0.569515 41.6013 1.21491 39.6334 2.18881 37.7973C3.18962 35.9105 4.27938 34.0699 5.36212 32.2279C5.84597 31.4047 7.22652 29.2375 7.80829 28.4712C8.35453 28.9856 3.92691 36.5753 3.50585 37.6656Z" fill="#21294B"/>
<path d="M106.631 80.5612C106.258 81.3938 105.672 81.9337 104.898 82.3082C104.34 82.5785 103.792 82.6031 103.218 82.4104C102.433 82.1468 101.825 81.723 101.418 80.9395C100.528 79.2253 100.641 77.5921 101.555 75.9411C101.913 75.2954 102.399 74.8073 103.013 74.4195C103.718 73.9744 104.978 74.2073 105.539 74.5564C107.175 75.5745 107.642 78.3812 106.886 80.035C106.812 80.197 106.732 80.3563 106.631 80.5612Z" fill="#A6D0F8"/>
<path d="M111.259 75.0316C112.414 75.0075 113.062 75.7292 113.649 76.4921C114.246 77.2672 114.343 78.2126 114.325 79.1507C114.298 80.4929 113.816 81.6718 112.84 82.6082C111.689 83.7125 110.236 83.6246 109.089 82.5526C108.411 81.9188 108.092 81.0984 108.045 80.1713C108.016 79.6011 107.884 79.0459 108.028 78.4581C108.264 77.4909 108.632 76.6008 109.3 75.8599C109.801 75.3049 110.453 75.0447 111.259 75.0316Z" fill="#A6D0F8"/>
<path d="M92.7856 42.2485C93.3748 41.8799 93.9176 41.5491 94.6151 41.5928C95.4677 41.6462 96.1664 41.9585 96.6703 42.6569C98.0793 44.6095 97.8772 47.0787 96.3757 48.8977C95.1567 50.3745 93.014 50.2329 91.9986 48.6538C90.7094 46.6489 91.1113 43.8881 92.7856 42.2485Z" fill="#A6D0F8"/>
<path d="M32.9836 69.7847C32.2322 70.6064 31.3818 70.921 30.3182 70.6314C28.4071 70.111 28.0814 67.7813 29.178 66.63C29.3749 66.4233 29.5876 66.217 29.8293 66.0699C30.7167 65.5297 31.5935 65.5644 32.4349 66.1886C33.271 66.809 33.6704 67.643 33.5109 68.6706C33.4525 69.0462 33.1868 69.3896 32.9836 69.7847Z" fill="#A6D0F8"/>
<path d="M39.0336 68.4723C39.016 69.5206 38.1545 70.5206 37.1812 70.7597C35.7504 71.1111 34.9531 70.2889 34.3567 69.3974C33.9656 68.8126 34.168 67.3473 34.6362 66.8069C35.9625 65.2762 38.0029 65.6612 38.8897 67.3089C39.0539 67.614 38.9914 68.0411 39.0336 68.4723Z" fill="#A6D0F8"/>
<path d="M124.644 15.4827C124.506 15.7259 124.378 15.9762 124.227 16.2111C123.176 17.8405 122.122 19.4676 121.067 21.0935C120.669 21.7067 120.668 21.6958 120.003 21.4476C117.238 20.4163 114.388 19.7197 111.473 19.2775C111.235 19.2414 111 19.1855 110.674 19.121C110.775 18.8455 110.846 18.6224 110.937 18.4079C112.63 14.4139 115.041 10.9174 118.198 7.93807C118.393 7.75488 118.575 7.55966 118.821 7.40356C118.921 7.5136 118.946 7.61647 119.01 7.66261C119.787 8.21504 120.324 8.98106 120.871 9.73728C121.99 11.285 123.107 12.8344 124.222 14.3855C124.457 14.7127 124.672 15.0523 124.644 15.4827Z" fill="#A6D0F8"/>
<path d="M150.494 28.6639C148.9 33.2883 146.343 37.2914 142.73 40.7429C140.937 37.7631 138.948 35.0159 136.604 32.5077C136.768 32.2432 136.891 32.0357 137.023 31.8346C138.074 30.2349 139.129 28.6379 140.177 27.0363C140.335 26.7957 140.462 26.5355 140.676 26.2969C141.564 26.5067 142.376 26.7155 143.194 26.8987C144.599 27.2134 146.012 27.491 147.412 27.8245C148.447 28.0711 149.467 28.3818 150.494 28.6639Z" fill="#A6D0F8"/>
<path d="M135.574 25.025C134.723 26.3221 133.873 27.6192 132.966 29.0034C130.542 27.0158 128.023 25.2767 125.238 23.7957C126.059 22.5333 126.844 21.3274 127.716 20.0962C128.023 20.1685 128.263 20.2366 128.46 20.3682C130.122 21.476 131.776 22.595 133.432 23.7117C133.708 23.8978 133.972 24.1034 134.256 24.2752C134.688 24.5365 135.134 24.7762 135.574 25.025Z" fill="#A6D0F8"/>
<path d="M53.0953 9.5525C52.3726 11.2764 51.7577 13.0325 51.4331 14.8822C51.1511 16.4895 50.9992 18.1006 51.1633 19.7316C51.1809 19.906 51.1657 20.0836 51.1657 20.3309C50.4942 20.4454 49.8318 20.3366 49.1775 20.37C48.5105 20.4041 47.8426 20.424 47.1762 20.4659C46.5098 20.5078 45.8431 20.5546 45.1794 20.6261C44.516 20.6976 43.8536 20.7874 43.1954 20.8967C42.5373 21.006 41.8823 21.1382 41.2306 21.2813C40.6007 21.4197 39.9731 21.5714 39.3512 21.7418C38.7078 21.9182 38.0677 22.1097 37.435 22.321C36.802 22.5325 36.1774 22.7698 35.554 23.0083C34.9307 23.2467 34.3085 23.4893 33.6948 23.751C33.0828 24.0119 32.4819 24.2989 31.7921 24.6127C31.6902 24.3285 31.5917 24.0934 31.5209 23.8502C30.8244 21.4572 29.843 19.1973 28.2746 17.241C27.5947 16.3929 26.8008 15.6362 26.0465 14.7461C26.1847 14.1314 26.5769 13.8178 27.0535 13.6774C27.6873 13.4906 28.3462 13.3149 29.0004 13.2893C29.9748 13.2513 30.9569 13.3171 31.9312 13.3957C33.4801 13.5207 35.0292 13.6619 36.5707 13.8561C37.5166 13.9752 38.4392 13.8889 39.3489 13.691C41.2572 13.276 42.8338 12.267 44.162 10.8547C44.6499 10.3359 45.1178 9.79824 45.6095 9.28321C46.1633 8.70315 46.8399 8.34046 47.6335 8.19561C49.0464 7.93773 50.4174 8.08987 51.7679 8.56306C52.3231 8.75763 52.8401 8.97079 53.0953 9.5525Z" fill="#F1A1AA"/>
</svg>
