<svg width="186" height="44" viewBox="0 0 186 44" fill="none" xmlns="http://www.w3.org/2000/svg">
<g clip-path="url(#clip0_2_1601)">
<path fill-rule="evenodd" clip-rule="evenodd" d="M4.92036 41.0302L8.74682 38.8363L10.2831 37.9548L11.7914 37.0852L14.158 35.729L17.9165 33.5829L21.6789 35.729L24.0415 37.0852L25.5496 37.9548L27.09 38.8363L30.8364 40.9983L31.9755 41.6445L33.0866 42.2788L35.3409 43.5712V22.8048L30.8364 20.216V35.8566L27.7879 34.1015L23.2953 31.5326L21.5825 30.5354L20.1708 29.7376V3.94913H15.6661V30.3519L12.5374 32.1509L8.04898 34.7397L4.92036 36.5227V20.2479L0.431702 22.8207V43.6031L2.66996 42.3107L3.7932 41.6764L4.92036 41.0302ZM27.7839 30.5194V-0.709961H23.2914V27.9506L27.7839 30.5194ZM12.5416 28.5489V8.60424H8.0529V31.1377L12.5416 28.5489Z" fill="#BBC3CF"/>
</g>
<path d="M54.3729 31.2728H58.2965L61.9132 18.8235H62.062L65.688 31.2728H69.6116L75.0599 12.2315H70.6622L67.5103 25.4898H67.343L63.875 12.2315H60.1095L56.6322 25.4619H56.4742L53.3223 12.2315H48.9246L54.3729 31.2728Z" fill="#BBC3CF"/>
<path d="M77.2146 31.2728H90.0824V27.9536H81.2404V23.4071H89.3851V20.0879H81.2404V15.5507H90.0452V12.2315H77.2146V31.2728Z" fill="#BBC3CF"/>
<path d="M93.2459 31.2728H105.435V27.9536H97.2717V12.2315H93.2459V31.2728Z" fill="#BBC3CF"/>
<path d="M104.556 12.2315L111.502 24.5414V31.2728H115.499V24.5414L122.445 12.2315H117.935L113.593 20.4319H113.408L109.066 12.2315H104.556Z" fill="#BBC3CF"/>
<path d="M125.12 15.5507H130.95V31.2728H134.929V15.5507H140.759V12.2315H125.12V15.5507Z" fill="#BBC3CF"/>
<path d="M147.36 12.2315H143.334V31.2728H147.36V12.2315Z" fill="#BBC3CF"/>
<path d="M167.473 18.8978C166.943 14.5001 163.614 11.9712 159.207 11.9712C154.177 11.9712 150.337 15.5228 150.337 21.7522C150.337 27.9629 154.112 31.5332 159.207 31.5332C164.088 31.5332 167.036 28.2883 167.473 24.7832L163.4 24.7646C163.019 26.8007 161.42 27.9722 159.272 27.9722C156.381 27.9722 154.419 25.8245 154.419 21.7522C154.419 17.7914 156.353 15.5321 159.3 15.5321C161.504 15.5321 163.093 16.8059 163.4 18.8978H167.473Z" fill="#BBC3CF"/>
<path d="M180.689 17.7078H184.548C184.492 14.3142 181.702 11.9712 177.463 11.9712C173.288 11.9712 170.229 14.277 170.248 17.7357C170.239 20.5435 172.219 22.152 175.436 22.9237L177.509 23.4443C179.583 23.9464 180.736 24.5414 180.745 25.8245C180.736 27.2191 179.415 28.1675 177.37 28.1675C175.278 28.1675 173.772 27.2005 173.642 25.2945H169.746C169.848 29.4133 172.795 31.5425 177.416 31.5425C182.065 31.5425 184.799 29.3204 184.808 25.8338C184.799 22.6633 182.409 20.9805 179.099 20.2367L177.388 19.8276C175.733 19.4464 174.348 18.8328 174.376 17.466C174.376 16.2388 175.464 15.3369 177.435 15.3369C179.36 15.3369 180.54 16.2109 180.689 17.7078Z" fill="#BBC3CF"/>
<defs>
<clipPath id="clip0_2_1601">
<rect width="34.9091" height="43.6364" fill="white" transform="translate(0.431824 0.181885)"/>
</clipPath>
</defs>
</svg>
