<svg width="184" height="48" viewBox="0 0 184 48" fill="none" xmlns="http://www.w3.org/2000/svg">
<path d="M75.1682 29.1708C75.1682 31.4515 74.6329 33.1272 73.5624 34.1977C72.4918 35.2682 70.8395 35.8035 68.6053 35.8035C66.3944 35.8035 64.0438 35.6872 61.5536 35.4544V30.7417C63.3689 30.8581 65.2307 30.9163 67.1391 30.9163C67.6744 30.9163 68.0933 30.765 68.3958 30.4624C68.7217 30.1366 68.8846 29.7061 68.8846 29.1708V15.9053H64.3464V11.0181H75.1682V29.1708Z" fill="#BBC3CF"/>
<path d="M90.8759 35.4544H78.3087V30.5672H81.4505V15.9053H78.3087V11.0181H90.8759V15.9053H87.7341V30.5672H90.8759V35.4544Z" fill="#BBC3CF"/>
<path d="M114.96 34.9308C109.515 35.5126 104.511 35.8035 99.9496 35.8035C97.6688 35.8035 95.9932 35.2682 94.9226 34.1977C93.8521 33.1272 93.3168 31.4515 93.3168 29.1708V17.9999C93.3168 15.5562 93.8637 13.7875 94.9576 12.6937C96.0747 11.5766 97.855 11.0181 100.299 11.0181H112.866V15.9053H101.695C100.299 15.9053 99.6005 16.6035 99.6005 17.9999V29.1708C99.6005 29.7061 99.7517 30.1366 100.054 30.4624C100.38 30.765 100.811 30.9163 101.346 30.9163C104.022 30.9163 106.466 30.8581 108.677 30.7417V25.6799H104.139V21.4908H114.96V34.9308Z" fill="#BBC3CF"/>
<path d="M139.404 34.9308C133.958 35.5126 128.954 35.8035 124.393 35.8035C122.112 35.8035 120.436 35.2682 119.366 34.1977C118.295 33.1272 117.76 31.4515 117.76 29.1708V17.9999C117.76 15.5562 118.307 13.7875 119.401 12.6937C120.518 11.5766 122.298 11.0181 124.742 11.0181H137.309V15.9053H126.138C124.742 15.9053 124.044 16.6035 124.044 17.9999V29.1708C124.044 29.7061 124.195 30.1366 124.497 30.4624C124.823 30.765 125.254 30.9163 125.789 30.9163C128.465 30.9163 130.909 30.8581 133.12 30.7417V25.6799H128.582V21.4908H139.404V34.9308Z" fill="#BBC3CF"/>
<path d="M149.185 30.5672H161.927V35.4544H142.901V11.0181H149.185V30.5672Z" fill="#BBC3CF"/>
<path d="M183.753 35.4544H164.379V11.0181H183.753V15.9053H170.662V20.6181H180.96V25.5053H170.662V30.5672H183.753V35.4544Z" fill="#BBC3CF"/>
<g clip-path="url(#clip0_13_224)">
<path fill-rule="evenodd" clip-rule="evenodd" d="M2.76976 8.33013C3.47841 8.3332 4.15712 8.61609 4.65822 9.11719C5.15931 9.61828 5.44222 10.297 5.44529 11.0057C5.46406 11.7005 5.7533 12.3605 6.25137 12.8453C6.74944 13.3301 7.41703 13.6014 8.11208 13.6014C8.80714 13.6014 9.47472 13.3301 9.97279 12.8453C10.4709 12.3605 10.7601 11.7005 10.7789 11.0057V2.67553C10.7819 1.96688 11.0648 1.28812 11.5659 0.78703C12.067 0.285935 12.7458 0.00307222 13.4544 0C14.1603 0.00665222 14.8352 0.291222 15.3327 0.792042C15.8302 1.29286 16.1103 1.96958 16.1124 2.67553V20.1647C16.1027 20.521 16.1646 20.8756 16.2943 21.2076C16.424 21.5395 16.6189 21.8421 16.8675 22.0975C17.1161 22.3529 17.4133 22.5559 17.7416 22.6945C18.07 22.8331 18.4228 22.9045 18.7791 22.9045C19.1355 22.9045 19.4883 22.8331 19.8167 22.6945C20.145 22.5559 20.4423 22.3529 20.6909 22.0975C20.9395 21.8421 21.1343 21.5395 21.264 21.2076C21.3937 20.8756 21.4556 20.521 21.4459 20.1647V11.0057C21.449 10.297 21.7319 9.61828 22.233 9.11719C22.7341 8.61609 23.4128 8.3332 24.1215 8.33013C24.8274 8.33678 25.5022 8.62138 25.9998 9.1222C26.4973 9.62302 26.7775 10.2997 26.7795 11.0057V20.1647C26.7795 20.8718 27.0604 21.5498 27.5603 22.0498C28.0603 22.5497 28.7382 22.8305 29.4453 22.8305C30.1523 22.8305 30.8304 22.5497 31.3303 22.0498C31.8302 21.5498 32.1111 20.8718 32.1111 20.1647V2.67553C32.1142 1.96655 32.3973 1.28749 32.8988 0.786341C33.4004 0.285191 34.0795 0.00256028 34.7885 0C35.4952 0.00360393 36.1717 0.287251 36.6696 0.788788C37.1675 1.29032 37.4462 1.96883 37.4447 2.67553V11.0057C37.4635 11.7005 37.7526 12.3605 38.2507 12.8453C38.7487 13.3301 39.4163 13.6014 40.1114 13.6014C40.8064 13.6014 41.4741 13.3301 41.9722 12.8453C42.4703 12.3605 42.7594 11.7005 42.7782 11.0057C42.7812 10.2967 43.0644 9.61765 43.5659 9.1165C44.0674 8.61535 44.7467 8.33269 45.4557 8.33013C46.1624 8.33374 46.8388 8.61741 47.3367 9.11894C47.8346 9.62048 48.1133 10.299 48.1118 11.0057V37.0138C48.1092 37.7174 47.8285 38.3915 47.3309 38.8891C46.8334 39.3866 46.1593 39.6673 45.4557 39.6699C44.7497 39.6684 44.0728 39.3887 43.5716 38.8915C43.0704 38.3944 42.7853 37.7197 42.7782 37.0138C42.7878 36.6575 42.726 36.3029 42.5963 35.971C42.4666 35.639 42.2717 35.3364 42.0231 35.081C41.7745 34.8256 41.4772 34.6226 41.1489 34.484C40.8206 34.3454 40.4678 34.274 40.1114 34.274C39.755 34.274 39.4023 34.3454 39.0739 34.484C38.7456 34.6226 38.4483 34.8256 38.1997 35.081C37.9512 35.3364 37.7562 35.639 37.6265 35.971C37.4968 36.3029 37.4351 36.6575 37.4447 37.0138V45.3342C37.4452 45.6832 37.3768 46.0289 37.2435 46.3515C37.1103 46.6741 36.9147 46.9673 36.668 47.2141C36.4212 47.461 36.1282 47.6569 35.8057 47.7904C35.4832 47.9239 35.1376 47.9925 34.7885 47.9922C34.0817 47.9933 33.4032 47.7141 32.9017 47.2159C32.4002 46.7177 32.1166 46.0411 32.113 45.3342V27.8216C32.113 27.1146 31.8322 26.4366 31.3323 25.9366C30.8324 25.4367 30.1543 25.1558 29.4473 25.1558C28.7402 25.1558 28.0622 25.4367 27.5622 25.9366C27.0623 26.4366 26.7814 27.1146 26.7814 27.8216V37.0002C26.7753 37.703 26.4933 38.3754 25.9961 38.8722C25.4988 39.3691 24.8264 39.6506 24.1235 39.6562C23.4179 39.6542 22.7414 39.3743 22.2406 38.8772C21.7399 38.3801 21.4551 37.7057 21.4479 37.0002V27.8216C21.4292 27.1268 21.1399 26.4668 20.6419 25.982C20.1438 25.4972 19.4762 25.2259 18.7811 25.2259C18.0861 25.2259 17.4184 25.4972 16.9203 25.982C16.4223 26.4668 16.1331 27.1268 16.1144 27.8216V45.3342C16.1123 46.0385 15.8316 46.7134 15.3335 47.2114C14.8355 47.7095 14.1606 47.9902 13.4563 47.9922C12.7493 47.9938 12.0705 47.7148 11.5689 47.2165C11.0673 46.7182 10.7839 46.0412 10.7808 45.3342V37.006C10.7904 36.6497 10.7285 36.2952 10.5988 35.9632C10.4691 35.6312 10.2743 35.3286 10.0257 35.0732C9.77713 34.8178 9.47985 34.6148 9.15151 34.4762C8.82317 34.3376 8.47038 34.2662 8.11398 34.2662C7.75759 34.2662 7.4048 34.3376 7.07646 34.4762C6.74812 34.6148 6.45093 34.8178 6.20235 35.0732C5.95376 35.3286 5.75883 35.6312 5.62914 35.9632C5.49945 36.2952 5.43757 36.6497 5.44719 37.006C5.44003 37.7116 5.15528 38.3859 4.65451 38.8831C4.15375 39.3802 3.47728 39.6601 2.77166 39.6621C2.06878 39.6565 1.39629 39.3749 0.899076 38.8781C0.401863 38.3812 0.119812 37.7089 0.113708 37.006V11.0057C0.115725 10.2997 0.395833 9.62302 0.893375 9.1222C1.39092 8.62138 2.06574 8.33678 2.77166 8.33013H2.76976ZM10.7789 18.6762C10.7885 18.3199 10.7266 17.9653 10.5969 17.6334C10.4672 17.3014 10.2723 16.9988 10.0237 16.7434C9.77514 16.488 9.47795 16.285 9.14961 16.1464C8.82127 16.0078 8.46848 15.9364 8.11208 15.9364C7.75569 15.9364 7.40289 16.0078 7.07455 16.1464C6.74622 16.285 6.44894 16.488 6.20035 16.7434C5.95177 16.9988 5.75693 17.3014 5.62724 17.6334C5.49755 17.9653 5.43567 18.3199 5.44529 18.6762V29.3433C5.46406 30.0381 5.7533 30.6981 6.25137 31.1829C6.74944 31.6677 7.41703 31.939 8.11208 31.939C8.80714 31.939 9.47472 31.6677 9.97279 31.1829C10.4709 30.6981 10.7601 30.0381 10.7789 29.3433V18.6762ZM37.4369 29.3433V18.6762C37.4273 18.3199 37.4891 17.9653 37.6187 17.6334C37.7484 17.3014 37.9434 16.9988 38.192 16.7434C38.4405 16.488 38.7378 16.285 39.0662 16.1464C39.3945 16.0078 39.7473 15.9364 40.1037 15.9364C40.4601 15.9364 40.8128 16.0078 41.1411 16.1464C41.4695 16.285 41.7667 16.488 42.0153 16.7434C42.2639 16.9988 42.4588 17.3014 42.5885 17.6334C42.7182 17.9653 42.78 18.3199 42.7704 18.6762V29.3433C42.7516 30.0381 42.4625 30.6981 41.9644 31.1829C41.4663 31.6677 40.7987 31.939 40.1037 31.939C39.4086 31.939 38.7409 31.6677 38.2429 31.1829C37.7448 30.6981 37.4557 30.0381 37.4369 29.3433Z" fill="#BBC3CF"/>
</g>
<defs>
<clipPath id="clip0_13_224">
<rect width="48" height="48" fill="white" transform="translate(0.113586)"/>
</clipPath>
</defs>
</svg>
