<svg width="184" height="48" viewBox="0 0 184 48" fill="none" xmlns="http://www.w3.org/2000/svg">
<g clip-path="url(#clip0_13_226)">
<path fill-rule="evenodd" clip-rule="evenodd" d="M27.4624 47.0853C32.6572 46.4788 37.4955 44.1369 41.1937 40.4386C44.892 36.7403 47.2339 31.9021 47.8404 26.7073H39.1096C38.5589 29.5903 37.1537 32.2411 35.0765 34.3149C32.9993 36.3887 30.3463 37.7896 27.4624 38.3356V47.0853Z" fill="#BBC3CF"/>
<path fill-rule="evenodd" clip-rule="evenodd" d="M35.2178 3.24608L35.2727 3.21011C40.9221 -0.0359779 45.4901 -0.990521 47.6169 1.13818C53.6337 7.1531 36.6665 25.8626 31.6402 30.8889C28.6175 33.9205 25.4142 36.7665 22.0478 39.4113V47.0796C19.3413 46.7723 16.7116 45.9834 14.283 44.7501L14.228 44.7861C8.57864 48.0322 4.01259 48.9867 1.88389 46.8693C-1.03266 43.9528 2.38002 37.239 3.99359 34.4683C2.76796 32.0366 1.9795 29.4083 1.66417 26.7035H10.4138C10.7964 28.7342 11.6057 30.6607 12.7882 32.3554C13.9707 34.0501 15.4995 35.4746 17.2734 36.5345C16.264 37.2675 15.2375 37.9644 14.1731 38.6178C12.6145 39.6083 11.0009 40.5438 9.33053 41.3866C8.02325 40.2289 6.85396 38.9243 5.84584 37.4985C4.08455 40.8923 3.49745 43.3865 4.43302 44.3164C8.44991 48.2935 26.5173 31.6976 29.4888 28.7261C32.6524 25.5667 35.6115 22.2091 38.3483 18.6735C37.4465 16.3688 35.9734 14.3313 34.0674 12.7527C32.1614 11.174 29.8852 10.1061 27.4529 9.64925V0.899554C30.1599 1.20412 32.7901 1.99317 35.2178 3.22902V3.24608ZM43.6549 10.492C45.4162 7.0982 46.0033 4.60398 45.0677 3.67409C44.1321 2.74421 41.6588 3.34457 38.2631 5.10587C40.3506 6.58735 42.1734 8.41016 43.6549 10.4977V10.492Z" fill="#BBC3CF"/>
<path fill-rule="evenodd" clip-rule="evenodd" d="M22.0516 0.916748C16.8566 1.52365 12.0184 3.86597 8.3202 7.56456C4.62196 11.2631 2.28006 16.1016 1.67365 21.2966H10.4233C10.9666 18.4133 12.3669 15.7608 14.4415 13.6859C16.5161 11.611 19.1683 10.2101 22.0516 9.66639V0.916748Z" fill="#BBC3CF"/>
</g>
<path d="M88.3669 29.5568C88.3669 30.5682 88.1737 31.5228 87.7873 32.4205C87.4123 33.3068 86.8896 34.0853 86.2191 34.7557C85.5601 35.4148 84.7816 35.9375 83.8839 36.3239C82.9976 36.6989 82.0487 36.8864 81.0373 36.8864C80.1282 36.8864 79.2532 36.7273 78.4123 36.4091C77.5828 36.0909 76.8328 35.625 76.1623 35.0114C75.4919 35.625 74.7362 36.0909 73.8953 36.4091C73.0544 36.7273 72.1794 36.8864 71.2703 36.8864C70.2589 36.8864 69.3044 36.6989 68.4066 36.3239C67.5203 35.9375 66.7419 35.4148 66.0714 34.7557C65.4123 34.0853 64.8896 33.3068 64.5032 32.4205C64.1282 31.5228 63.9407 30.5682 63.9407 29.5568V12.1023H68.8328V29.5568C68.8328 29.8978 68.8953 30.2216 69.0203 30.5284C69.1453 30.8239 69.3157 31.0853 69.5316 31.3125C69.7589 31.5284 70.0203 31.6989 70.3157 31.8239C70.6112 31.9489 70.9294 32.0114 71.2703 32.0114C71.6112 32.0114 71.9294 31.9489 72.2248 31.8239C72.5203 31.6989 72.776 31.5284 72.9919 31.3125C73.2191 31.0853 73.3953 30.8239 73.5203 30.5284C73.6453 30.2216 73.7078 29.8978 73.7078 29.5568V12.1023H78.5998V29.5568C78.5998 29.8978 78.6623 30.2216 78.7873 30.5284C78.9123 30.8239 79.0828 31.0853 79.2987 31.3125C79.526 31.5284 79.7873 31.6989 80.0828 31.8239C80.3782 31.9489 80.6964 32.0114 81.0373 32.0114C81.3782 32.0114 81.6964 31.9489 81.9919 31.8239C82.2873 31.6989 82.543 31.5284 82.7589 31.3125C82.9862 31.0853 83.1623 30.8239 83.2873 30.5284C83.4237 30.2216 83.4919 29.8978 83.4919 29.5568V12.1023H88.3669V29.5568Z" fill="#BBC3CF"/>
<path d="M97.7419 13.3296C97.7419 13.7614 97.6566 14.1648 97.4862 14.5398C97.3271 14.9148 97.1055 15.2443 96.8214 15.5284C96.5373 15.8012 96.2021 16.0227 95.8157 16.1932C95.4407 16.3523 95.0373 16.4318 94.6055 16.4318C94.1737 16.4318 93.7646 16.3523 93.3782 16.1932C93.0032 16.0227 92.6737 15.8012 92.3896 15.5284C92.1169 15.2443 91.8953 14.9148 91.7248 14.5398C91.5657 14.1648 91.4862 13.7614 91.4862 13.3296C91.4862 12.9091 91.5657 12.5114 91.7248 12.1364C91.8953 11.75 92.1169 11.4205 92.3896 11.1477C92.6737 10.8637 93.0032 10.6421 93.3782 10.483C93.7646 10.3125 94.1737 10.2273 94.6055 10.2273C95.0373 10.2273 95.4407 10.3125 95.8157 10.483C96.2021 10.6421 96.5373 10.8637 96.8214 11.1477C97.1055 11.4205 97.3271 11.75 97.4862 12.1364C97.6566 12.5114 97.7419 12.9091 97.7419 13.3296ZM96.9407 36.5455H92.2532V18.2898H96.9407V36.5455Z" fill="#BBC3CF"/>
<path d="M110.526 36.5455H99.8896V31.9091H110.526C110.844 31.9091 111.117 31.7955 111.344 31.5682C111.571 31.3409 111.685 31.0682 111.685 30.75C111.685 30.4205 111.571 30.2046 111.344 30.1023C111.117 30 110.844 29.9489 110.526 29.9489H105.685C104.878 29.9489 104.123 29.7955 103.418 29.4887C102.713 29.1818 102.1 28.7671 101.577 28.2443C101.054 27.7103 100.64 27.0909 100.333 26.3864C100.037 25.6818 99.8896 24.9262 99.8896 24.1193C99.8896 23.3125 100.037 22.5568 100.333 21.8523C100.64 21.1477 101.054 20.5341 101.577 20.0114C102.1 19.4887 102.713 19.0796 103.418 18.7841C104.123 18.4773 104.878 18.3239 105.685 18.3239H115.111V22.9602H105.685C105.367 22.9602 105.094 23.0739 104.867 23.3012C104.64 23.5284 104.526 23.8012 104.526 24.1193C104.526 24.4489 104.64 24.733 104.867 24.9716C105.094 25.1989 105.367 25.3125 105.685 25.3125H110.526C111.321 25.3125 112.071 25.4489 112.776 25.7216C113.481 25.983 114.094 26.3523 114.617 26.8296C115.14 27.3068 115.554 27.8807 115.861 28.5512C116.168 29.2216 116.321 29.9546 116.321 30.75C116.321 31.5568 116.168 32.3125 115.861 33.0171C115.554 33.7103 115.14 34.3239 114.617 34.858C114.094 35.3807 113.481 35.7955 112.776 36.1023C112.071 36.3978 111.321 36.5455 110.526 36.5455Z" fill="#BBC3CF"/>
<path d="M123.463 36.5455H118.81V11.0284H123.463V19.0909C124.02 18.6705 124.594 18.375 125.185 18.2046C125.776 18.0227 126.378 17.9318 126.992 17.9318C128.117 17.9318 129.174 18.1477 130.162 18.5796C131.151 19 132.009 19.5852 132.736 20.3352C133.475 21.0739 134.054 21.9432 134.475 22.9432C134.907 23.9318 135.123 24.9887 135.123 26.1137V36.5455H130.435V26.1137H130.469C130.469 25.6364 130.378 25.1875 130.196 24.7671C130.015 24.3352 129.765 23.9602 129.446 23.6421C129.128 23.3239 128.759 23.0739 128.338 22.8921C127.918 22.7102 127.469 22.6193 126.992 22.6193C126.503 22.6193 126.043 22.7102 125.611 22.8921C125.179 23.0739 124.804 23.3239 124.486 23.6421C124.168 23.9602 123.918 24.3352 123.736 24.7671C123.554 25.1875 123.463 25.6364 123.463 26.1137V36.5455Z" fill="#BBC3CF"/>
<path d="M145.708 32.0796C145.89 32.1364 146.071 32.1762 146.253 32.1989C146.435 32.2103 146.617 32.2159 146.799 32.2159C147.253 32.2159 147.691 32.1534 148.111 32.0284C148.532 31.9034 148.924 31.7273 149.287 31.5C149.662 31.2614 149.992 30.9773 150.276 30.6478C150.571 30.3068 150.81 29.9318 150.992 29.5228L154.401 32.9489C153.969 33.5625 153.469 34.1137 152.901 34.6023C152.344 35.0909 151.736 35.5057 151.077 35.8466C150.429 36.1875 149.742 36.4432 149.015 36.6137C148.299 36.7955 147.56 36.8864 146.799 36.8864C145.515 36.8864 144.304 36.6478 143.168 36.1705C142.043 35.6932 141.054 35.0284 140.202 34.1762C139.361 33.3239 138.696 32.3125 138.208 31.1421C137.719 29.9603 137.475 28.6648 137.475 27.2557C137.475 25.8125 137.719 24.4943 138.208 23.3012C138.696 22.108 139.361 21.0909 140.202 20.25C141.054 19.4091 142.043 18.7557 143.168 18.2898C144.304 17.8239 145.515 17.5909 146.799 17.5909C147.56 17.5909 148.304 17.6818 149.032 17.8637C149.759 18.0455 150.446 18.3068 151.094 18.6477C151.753 18.9887 152.367 19.4091 152.935 19.9091C153.503 20.3977 154.003 20.9489 154.435 21.5625L145.708 32.0796ZM148.094 22.483C147.878 22.4034 147.662 22.3523 147.446 22.3296C147.242 22.3068 147.026 22.2955 146.799 22.2955C146.162 22.2955 145.56 22.4148 144.992 22.6534C144.435 22.8807 143.946 23.2102 143.526 23.6421C143.117 24.0739 142.793 24.5966 142.554 25.2102C142.316 25.8125 142.196 26.4943 142.196 27.2557C142.196 27.4262 142.202 27.6193 142.213 27.8353C142.236 28.0512 142.265 28.2728 142.299 28.5C142.344 28.7159 142.395 28.9262 142.452 29.1307C142.509 29.3353 142.583 29.5171 142.674 29.6762L148.094 22.483Z" fill="#BBC3CF"/>
<path d="M161.475 36.5455H156.787V11.0284H161.475V36.5455Z" fill="#BBC3CF"/>
<path d="M169.725 43.5H165.037V18.2898H166.162L168.02 20.4887C168.441 20.0909 168.901 19.7159 169.401 19.3637C169.901 19.0114 170.418 18.7102 170.952 18.4602C171.498 18.1989 172.06 17.9943 172.64 17.8466C173.219 17.6989 173.804 17.625 174.395 17.625C175.679 17.625 176.884 17.858 178.009 18.3239C179.145 18.7784 180.134 19.4262 180.975 20.2671C181.827 21.108 182.498 22.125 182.986 23.3182C183.475 24.5 183.719 25.8125 183.719 27.2557C183.719 28.7557 183.475 30.108 182.986 31.3125C182.498 32.5057 181.827 33.5228 180.975 34.3637C180.134 35.1932 179.145 35.8296 178.009 36.2728C176.884 36.7159 175.679 36.9375 174.395 36.9375C173.986 36.9375 173.577 36.8921 173.168 36.8012C172.77 36.7103 172.373 36.5909 171.975 36.4432C171.588 36.2841 171.202 36.108 170.816 35.9148C170.441 35.7216 170.077 35.5228 169.725 35.3182V43.5ZM179.049 27.2557C179.049 26.483 178.924 25.7898 178.674 25.1762C178.435 24.5625 178.106 24.0455 177.685 23.625C177.265 23.1932 176.77 22.8637 176.202 22.6364C175.634 22.4091 175.032 22.2955 174.395 22.2955C173.759 22.2955 173.157 22.4091 172.588 22.6364C172.032 22.8637 171.543 23.1932 171.123 23.625C170.702 24.0455 170.367 24.5625 170.117 25.1762C169.878 25.7898 169.759 26.483 169.759 27.2557C169.759 27.9943 169.878 28.6705 170.117 29.2841C170.367 29.8978 170.702 30.4205 171.123 30.8523C171.543 31.2841 172.032 31.6193 172.588 31.858C173.157 32.0966 173.759 32.2159 174.395 32.2159C175.032 32.2159 175.634 32.0966 176.202 31.858C176.77 31.6193 177.265 31.2841 177.685 30.8523C178.106 30.4205 178.435 29.8978 178.674 29.2841C178.924 28.6705 179.049 27.9943 179.049 27.2557Z" fill="#BBC3CF"/>
<defs>
<clipPath id="clip0_13_226">
<rect width="48.142" height="48" fill="white" transform="translate(0.753235)"/>
</clipPath>
</defs>
</svg>
