<svg width="155" height="44" viewBox="0 0 155 44" fill="none" xmlns="http://www.w3.org/2000/svg">
<path d="M53.2006 14.7304C53.2006 22.5849 61.6442 23.6453 61.6442 29.3005C61.6442 31.2642 60.7802 31.9711 59.4057 31.9711C58.0312 31.9711 57.1672 31.2642 57.1672 29.3005V27.3369H53.0828V29.0256C53.0828 33.4242 55.2821 35.9376 59.5235 35.9376C63.765 35.9376 65.9642 33.4242 65.9642 29.0256C65.9642 21.1711 57.5206 20.1107 57.5206 14.4554C57.5206 12.4918 58.3061 11.7456 59.6806 11.7456C61.0552 11.7456 61.8406 12.4918 61.8406 14.4554V15.5944H65.925V14.7304C65.925 10.3318 63.765 7.81836 59.5628 7.81836C55.3606 7.81836 53.2006 10.3318 53.2006 14.7304Z" fill="#BBC3CF"/>
<path d="M72.216 35.6235H76.536V26.5122L81.9949 8.13254H77.8712L74.5723 20.6605L71.2734 8.13254H66.7571L72.216 26.5122V35.6235Z" fill="#BBC3CF"/>
<path d="M89.7114 8.13254H83.7026V35.6235H87.4728V16.1834L90.6932 35.6235H94.7775L97.7623 15.9085V35.6235H101.847V8.13254H95.8379L92.8924 27.6511L89.7114 8.13254Z" fill="#BBC3CF"/>
<path d="M103.732 12.0598H108.249V35.6235H112.569V12.0598H117.085V8.13254H103.732V12.0598Z" fill="#BBC3CF"/>
<path d="M132.419 35.6235C131.987 34.6024 131.948 33.6205 131.948 32.2853V28.0438C131.948 25.1769 131.241 23.0955 129.081 22.1922C131.005 21.2889 131.908 19.4431 131.908 16.6154V14.4554C131.908 10.214 129.984 8.13254 125.507 8.13254H118.988V35.6235H123.308V24.4307H124.8C126.764 24.4307 127.628 25.3733 127.628 27.926V32.246C127.628 34.4845 127.785 34.9165 128.02 35.6235H132.419ZM125.389 12.0598C126.921 12.0598 127.588 12.9238 127.588 14.8875V17.5973C127.588 19.7965 126.607 20.5034 124.996 20.5034H123.308V12.0598H125.389Z" fill="#BBC3CF"/>
<path d="M134.789 35.6235H139.109V8.13254H134.789V35.6235Z" fill="#BBC3CF"/>
<path d="M150.711 25.3733V29.3005C150.711 31.2642 149.847 31.9711 148.473 31.9711C147.098 31.9711 146.234 31.2642 146.234 29.3005V14.4554C146.234 12.4918 147.098 11.7456 148.473 11.7456C149.847 11.7456 150.711 12.4918 150.711 14.4554V17.4009H154.795V14.7304C154.795 10.3318 152.596 7.81836 148.355 7.81836C144.113 7.81836 141.914 10.3318 141.914 14.7304V29.0256C141.914 33.4242 144.113 35.9376 148.355 35.9376C152.596 35.9376 154.795 33.4242 154.795 29.0256V25.3733H150.711Z" fill="#BBC3CF"/>
<g clip-path="url(#clip0_13_225)">
<path fill-rule="evenodd" clip-rule="evenodd" d="M15.5626 14.0168L13.202 18.098L10.9558 14.2018L13.3047 10.1206H29.7117L33.1954 4.07813H9.8181L5.21137 12.0687C8.66716 18.0388 12.1176 24.0089 15.5626 29.979H22.53C20.7801 26.9499 19.0311 23.9213 17.2832 20.8932L16.7987 20.0549H32.7667L39.6342 31.9461L32.7667 43.8183H7.57201L0.774957 31.8316L4.18818 25.9036L6.44896 29.7984L5.22606 31.9315L9.83279 39.9221H30.5074L35.1288 31.9315L30.5221 23.9409H23.5547C25.0325 26.5149 26.5113 29.0883 27.9911 31.6613L28.1585 31.9271L27.0354 33.8752H13.3165C9.16385 26.6944 5.0166 19.5191 0.874738 12.3491L0.719116 12.0643L7.57201 0.173096H39.9602L31.9754 14.0168H15.5626Z" fill="#BBC3CF"/>
</g>
<defs>
<clipPath id="clip0_13_225">
<rect width="39.2425" height="43.6364" fill="white" transform="translate(0.719147 0.181885)"/>
</clipPath>
</defs>
</svg>
