<svg width="187" height="44" viewBox="0 0 187 44" fill="none" xmlns="http://www.w3.org/2000/svg">
<g clip-path="url(#clip0_13_228)">
<path fill-rule="evenodd" clip-rule="evenodd" d="M5.28399 41.0302L9.11045 38.8363L10.6468 37.9548L12.1551 37.0852L14.5216 35.729L18.2801 33.5829L22.0425 35.729L24.4051 37.0852L25.9132 37.9548L27.4537 38.8363L31.2 40.9983L32.3391 41.6445L33.4502 42.2788L35.7045 43.5712V22.8048L31.2 20.216V35.8566L28.1515 34.1015L23.6589 31.5326L21.9462 30.5354L20.5344 29.7376V3.94913H16.0297V30.3519L12.9011 32.1509L8.41261 34.7397L5.28399 36.5227V20.2479L0.795334 22.8207V43.6031L3.03359 42.3107L4.15683 41.6764L5.28399 41.0302ZM28.1476 30.5194V-0.709961H23.655V27.9506L28.1476 30.5194ZM12.9052 28.5489V8.60424H8.41653V31.1377L12.9052 28.5489Z" fill="#BBC3CF"/>
</g>
<path d="M54.7366 31.2728H58.6601L62.2769 18.8235H62.4256L66.0517 31.2728H69.9752L75.4236 12.2315H71.0258L67.874 25.4898H67.7066L64.2387 12.2315H60.4732L56.9959 25.4619H56.8378L53.686 12.2315H49.2882L54.7366 31.2728Z" fill="#BBC3CF"/>
<path d="M77.5783 31.2728H90.446V27.9536H81.6041V23.4071H89.7487V20.0879H81.6041V15.5507H90.4089V12.2315H77.5783V31.2728Z" fill="#BBC3CF"/>
<path d="M93.6095 31.2728H105.799V27.9536H97.6353V12.2315H93.6095V31.2728Z" fill="#BBC3CF"/>
<path d="M104.92 12.2315L111.865 24.5414V31.2728H115.863V24.5414L122.808 12.2315H118.299L113.957 20.4319H113.771L109.429 12.2315H104.92Z" fill="#BBC3CF"/>
<path d="M125.484 15.5507H131.313V31.2728H135.293V15.5507H141.122V12.2315H125.484V15.5507Z" fill="#BBC3CF"/>
<path d="M147.723 12.2315H143.698V31.2728H147.723V12.2315Z" fill="#BBC3CF"/>
<path d="M167.836 18.8978C167.306 14.5001 163.978 11.9712 159.571 11.9712C154.541 11.9712 150.701 15.5228 150.701 21.7522C150.701 27.9629 154.476 31.5332 159.571 31.5332C164.452 31.5332 167.399 28.2883 167.836 24.7832L163.764 24.7646C163.383 26.8007 161.784 27.9722 159.636 27.9722C156.744 27.9722 154.783 25.8245 154.783 21.7522C154.783 17.7914 156.716 15.5321 159.664 15.5321C161.867 15.5321 163.457 16.8059 163.764 18.8978H167.836Z" fill="#BBC3CF"/>
<path d="M181.053 17.7078H184.911C184.855 14.3142 182.066 11.9712 177.826 11.9712C173.652 11.9712 170.593 14.277 170.612 17.7357C170.602 20.5435 172.583 22.152 175.8 22.9237L177.873 23.4443C179.946 23.9464 181.099 24.5414 181.108 25.8245C181.099 27.2191 179.779 28.1675 177.733 28.1675C175.642 28.1675 174.135 27.2005 174.005 25.2945H170.11C170.212 29.4133 173.159 31.5425 177.78 31.5425C182.429 31.5425 185.162 29.3204 185.172 25.8338C185.162 22.6633 182.773 20.9805 179.463 20.2367L177.752 19.8276C176.097 19.4464 174.712 18.8328 174.74 17.466C174.74 16.2388 175.827 15.3369 177.799 15.3369C179.723 15.3369 180.904 16.2109 181.053 17.7078Z" fill="#BBC3CF"/>
<defs>
<clipPath id="clip0_13_228">
<rect width="34.9091" height="43.6364" fill="white" transform="translate(0.795471 0.181885)"/>
</clipPath>
</defs>
</svg>
