<svg width="176" height="44" viewBox="0 0 176 44" fill="none" xmlns="http://www.w3.org/2000/svg">
<g clip-path="url(#clip0_13_227)">
<path d="M39.7088 2.69803C39.9632 2.78762 40.1848 2.95151 40.3451 3.16847C40.5054 3.38543 40.5969 3.6455 40.6078 3.91503C40.746 5.35437 40.8049 6.80022 40.7843 8.24603C40.7691 8.9093 40.7538 9.57255 40.7097 10.2358C40.4602 10.1324 40.2244 10.0289 39.9734 9.93157C39.3406 9.68208 38.7215 9.44631 38.0871 9.2242C38.1023 8.88649 38.1175 8.56245 38.1175 8.22321C38.1312 7.14769 38.1023 6.05695 38.0141 4.95252C36.9827 4.6285 35.9071 4.33337 34.8195 4.06868C33.4503 3.74465 32.0812 3.47844 30.6938 3.28676C29.9134 3.18484 29.1619 3.09508 28.4408 3.02206C27.7198 2.94904 26.9515 2.90492 26.1711 2.86993C25.5626 2.85472 24.9922 2.84103 24.3745 2.84103L23.4755 2.85472C23.2093 2.85472 22.9005 2.86993 22.5764 2.86993C21.796 2.90036 21.0445 2.95816 20.3067 3.02206C19.5689 3.08595 18.8342 3.18484 18.0538 3.28676C16.6846 3.47844 15.2988 3.74313 13.9281 4.06868C12.8374 4.33337 11.7771 4.6285 10.7335 4.95252C10.554 7.37415 10.6182 9.80769 10.9252 12.2165C11.0881 13.564 11.3242 14.9016 11.6326 16.2235C11.809 16.975 12.0159 17.7264 12.2411 18.4475L12.2563 18.5069L12.27 18.5662L12.2852 18.6255L12.3141 18.6833L12.3293 18.7427L12.3445 18.802L12.3597 18.8613L12.4175 19.0226V19.0378L12.4327 19.0956L12.5362 19.3755L12.5499 19.4348L12.6397 19.6706L12.6533 19.7147C13.1083 21.034 13.635 22.3274 14.2309 23.5894L14.2598 23.6335L14.275 23.6791L14.2887 23.708L14.319 23.7521L14.3328 23.7962L14.348 23.8404L14.3769 23.8693C14.599 24.3256 14.8333 24.782 15.0706 25.2384C15.2471 25.5335 15.4083 25.8469 15.571 26.1222C15.7627 26.462 15.9397 26.7566 16.102 27.0061C16.6025 27.8169 17.1319 28.6125 17.6932 29.3792C18.2545 30.1459 18.8266 30.8822 19.4609 31.6185C19.6972 31.8984 19.9624 32.193 20.2565 32.5023C20.5364 32.8066 20.8011 33.1109 21.0521 33.371C21.7002 34.0343 22.3771 34.6686 23.0556 35.2862L23.3355 35.522C23.1438 35.6742 22.9522 35.8263 22.7468 35.9784C22.2159 36.3755 21.6713 36.7588 21.1252 37.1422C18.1815 34.5033 15.649 31.4391 13.6117 28.0512V28.036L13.5965 28.0223L13.5813 28.0071C13.4642 27.8154 13.3607 27.6237 13.2572 27.4625C13.0808 27.1384 12.8891 26.8129 12.7278 26.5041C12.241 25.6202 11.7984 24.7075 11.3724 23.7491C10.9465 22.7907 10.5768 21.849 10.2376 20.9059C9.76372 19.5726 9.36047 18.2153 9.02966 16.8396C8.02879 12.6069 7.73027 8.23847 8.14588 3.90895C8.15834 3.63902 8.25216 3.37917 8.41507 3.16359C8.57798 2.948 8.80236 2.78676 9.05863 2.70107C10.4582 2.22949 11.8881 1.81723 13.3318 1.46277C14.7466 1.13875 16.2039 0.854277 17.6932 0.63826C18.4538 0.534815 19.2541 0.446584 20.0938 0.373564C20.9046 0.299022 21.7002 0.241214 22.4806 0.210789C22.7757 0.210789 23.0891 0.19558 23.4237 0.19558L24.3822 0.181885L25.339 0.19558C25.6783 0.19558 26.0023 0.210789 26.2822 0.210789C27.0778 0.241214 27.8734 0.299022 28.6842 0.373564C29.524 0.446584 30.3196 0.534815 31.0711 0.63826C32.5725 0.858841 34.0315 1.13875 35.4462 1.46277C36.8762 1.81723 38.3046 2.2234 39.7194 2.70107L39.7088 2.69803ZM31.0741 29.3808C31.605 28.6293 32.139 27.8595 32.6212 27.0669C32.7877 26.768 33.0607 26.5429 33.3858 26.4363C33.7109 26.3297 34.0642 26.3496 34.3753 26.4919C36.9354 27.7156 39.2595 29.3816 41.2406 31.4131C41.4724 31.6268 41.6215 31.9153 41.6619 32.228C41.7022 32.5406 41.6312 32.8575 41.4613 33.123C41.049 33.7711 40.5926 34.448 40.1362 35.1113C39.6799 35.7746 39.1778 36.4226 38.6925 37.0418C38.3381 37.4981 37.9547 37.9697 37.5425 38.4413C37.1895 38.8536 36.791 39.31 36.3498 39.7968C35.7307 40.4752 35.1328 41.0929 34.5243 41.6968H34.5091C33.9204 42.287 33.2921 42.8621 32.638 43.4356C32.445 43.6236 32.2001 43.7494 31.9349 43.7968C31.6698 43.8443 31.3964 43.8112 31.1502 43.7018C29.2109 42.8116 27.3438 41.772 25.5657 40.5924C25.8015 40.4159 26.0372 40.2394 26.273 40.0478C26.7735 39.6492 27.2756 39.2522 27.7456 38.8308C28.9473 39.5945 30.1922 40.2878 31.4742 40.9073C31.8712 40.5391 32.2546 40.171 32.6532 39.7876C33.2708 39.1791 33.8458 38.595 34.3767 38.0047C34.7297 37.6366 35.0978 37.1954 35.5116 36.7238C35.8645 36.2963 36.2327 35.8537 36.5872 35.3836C37.0724 34.7934 37.5151 34.1894 37.9425 33.5703C38.1783 33.266 38.3989 32.9222 38.6195 32.5982C37.9564 31.9624 37.247 31.3767 36.4974 30.8457C35.7873 30.3308 35.0444 29.8628 34.2733 29.4446C33.9341 29.9603 33.5811 30.4624 33.2267 30.9476C32.609 31.8026 31.9747 32.5982 31.3267 33.3649C31.0315 33.7026 30.7516 34.013 30.4869 34.3081C30.3683 34.4602 30.2359 34.588 30.1036 34.734L30.0883 34.7492L30.0747 34.7644L30.0595 34.7782L30.0442 34.7934L30.0306 34.8086L30.0153 34.8238L30.0001 34.8375L29.9712 34.8679V34.8816C28.5644 36.3634 27.053 37.7421 25.4485 39.0072C23.024 40.8689 20.3938 42.4461 17.6096 43.7079C17.3565 43.8214 17.0745 43.854 16.8022 43.8011C16.5299 43.7483 16.2806 43.6127 16.0883 43.4128C15.4387 42.8529 14.8348 42.2779 14.2309 41.7029C13.6224 41.1142 13.023 40.4859 12.4054 39.8028C11.949 39.316 11.5519 38.8597 11.1974 38.4474C10.8004 37.9758 10.4171 37.5042 10.0489 37.0478C9.56213 36.415 9.09056 35.7807 8.61897 35.1174C8.14738 34.4541 7.70622 33.7772 7.29396 33.1291C6.96842 32.6134 6.63065 32.0642 6.29141 31.4938C5.98716 30.9339 5.67226 30.3741 5.37866 29.8204C4.99683 29.113 4.6424 28.3904 4.30316 27.6694C3.96393 26.9483 3.67033 26.2242 3.36152 25.4727C2.8017 24.1035 2.31491 22.704 1.88744 21.274C1.45997 19.844 1.10704 18.4019 0.822562 16.943C0.767184 16.6743 0.797063 16.395 0.908058 16.1441C1.01905 15.8932 1.2056 15.6832 1.44168 15.5435C3.157 14.3242 4.96464 13.2403 6.84821 12.3017C6.92123 13.0091 7.01096 13.7012 7.1281 14.3934C7.157 14.6292 7.20112 14.865 7.24524 15.1008C5.9948 15.7548 4.78478 16.4832 3.62165 17.2823C3.85744 18.3867 4.13734 19.4622 4.44615 20.5088C4.84472 21.8643 5.31636 23.1893 5.83206 24.4641C6.11197 25.1562 6.40556 25.8484 6.72959 26.5406C7.05361 27.2327 7.37914 27.9097 7.73207 28.5593C8.01198 29.1054 8.30713 29.6242 8.60225 30.1505C8.89586 30.6373 9.21075 31.153 9.5439 31.6976C9.95768 32.3457 10.3699 32.98 10.7974 33.5687C11.2248 34.1575 11.6812 34.7858 12.1528 35.3821C12.521 35.8521 12.8739 36.2948 13.2421 36.7223C13.6406 37.1939 14.024 37.6351 14.3617 38.0032C14.9078 38.5934 15.4814 39.1822 16.1005 39.7861C16.4839 40.1694 16.8824 40.5376 17.2642 40.892C19.4811 39.8257 21.5841 38.5372 23.5409 37.0463C26.4089 34.8715 28.945 32.2907 31.0696 29.3853L31.0741 29.3808ZM47.2967 15.5374C47.532 15.6786 47.7186 15.8883 47.8317 16.1383C47.9448 16.3884 47.979 16.667 47.9296 16.9369C47.6345 18.3958 47.2815 19.8395 46.854 21.2679C46.4266 22.6964 45.9413 24.0974 45.3952 25.4666C45.3398 25.6032 45.2599 25.7285 45.1593 25.8362C44.9282 26.1042 44.6009 26.2704 44.2482 26.2989C43.8954 26.3274 43.5457 26.2158 43.2746 25.9884C42.279 25.1218 41.2254 24.3243 40.121 23.6015C39.0359 22.8917 37.9034 22.2568 36.7316 21.7015C36.4243 21.5628 36.1799 21.3143 36.0465 21.0047C35.9131 20.695 35.9003 20.3467 36.0106 20.0281C36.4513 18.7883 36.82 17.524 37.115 16.2417C37.2473 15.7412 37.3508 15.2392 37.4542 14.7205C37.7935 14.8528 38.1175 14.9867 38.4568 15.1327C38.9573 15.3548 39.4577 15.5891 39.9582 15.8264C39.8852 16.1793 39.8061 16.5186 39.7224 16.8578C39.4882 17.8451 39.222 18.8354 38.9132 19.8045C39.8259 20.2761 40.7249 20.8055 41.5935 21.3653C42.2568 21.808 42.9201 22.278 43.5545 22.7648C43.8192 22.0285 44.0701 21.2771 44.2907 20.5119C44.6147 19.4652 44.8794 18.3821 45.1305 17.2853C43.197 15.9633 41.1392 14.8332 38.9862 13.9112C37.6601 13.338 36.3024 12.8408 34.9199 12.4219C33.6565 12.0403 32.3725 11.7305 31.0741 11.4939C30.1614 11.3326 29.2182 11.2003 28.2598 11.0969C27.3014 10.9934 26.3598 10.9341 25.4166 10.9052L24.8872 10.89H23.8558L23.3401 10.9052C22.3969 10.9341 21.4385 10.9934 20.4953 11.0969C19.5522 11.2003 18.5953 11.3326 17.6674 11.4939C16.3849 11.7297 15.104 12.0537 13.8216 12.4219C13.3348 12.574 12.8495 12.7261 12.3627 12.8935C12.3186 12.6135 12.2745 12.3488 12.2456 12.0689C12.1574 11.4361 12.0935 10.8169 12.054 10.1826C16.0291 8.86833 20.1894 8.20063 24.3761 8.20495C29.5548 8.21206 34.6832 9.22254 39.4775 11.1805C42.2426 12.3327 44.8673 13.7959 47.3013 15.5419L47.2967 15.5374ZM22.7499 27.1917C22.5293 26.9118 22.3376 26.6608 22.1611 26.4402C20.7592 24.5209 19.5688 22.4557 18.6106 20.2806C18.4782 19.987 18.3443 19.6919 18.2272 19.3968C18.1101 19.1017 18.0203 18.8522 17.923 18.5723C17.8808 18.475 17.8511 18.3728 17.8347 18.268C17.8033 18.0948 17.8067 17.917 17.8447 17.7451C17.8828 17.5731 17.9546 17.4105 18.0561 17.2666C18.1577 17.1228 18.2868 17.0006 18.4361 16.9071C18.5853 16.8137 18.7517 16.7509 18.9254 16.7224C19.2053 16.6631 19.5339 16.619 19.8686 16.5703L20.8254 16.4364C21.4157 16.3786 22.0044 16.3345 22.6084 16.2843C23.2123 16.2341 23.8254 16.2402 24.3776 16.2402C24.9298 16.2402 25.5261 16.2539 26.1589 16.2843C26.7674 16.3284 27.3532 16.3725 27.9282 16.4364L28.885 16.5703C29.2395 16.6144 29.5483 16.6585 29.8434 16.7224C29.9187 16.7345 29.9925 16.7539 30.064 16.7802C30.3974 16.9006 30.6698 17.1479 30.8216 17.4682C30.9735 17.7885 30.9926 18.1558 30.8748 18.4901C30.7562 18.7944 30.639 19.1077 30.5204 19.4029C30.4017 19.698 30.2846 19.9931 30.1522 20.2867C29.6736 21.3709 29.1374 22.4286 28.5458 23.4555C27.9515 24.4897 27.2972 25.4883 26.5864 26.4463C26.3653 26.7394 26.1742 26.9898 26.0129 27.1978C25.7619 27.502 25.5702 27.7576 25.4044 27.9341C25.3525 27.9999 25.2927 28.0592 25.2264 28.1105C25.0926 28.2232 24.9377 28.3082 24.7707 28.3604C24.6038 28.4126 24.4281 28.4311 24.2539 28.4146C24.0797 28.3982 23.9105 28.3473 23.7562 28.2647C23.6019 28.1822 23.4657 28.0698 23.3553 27.9341C23.1348 27.683 22.9431 27.4472 22.7468 27.1978L22.7499 27.1917Z" fill="#BBC3CF"/>
</g>
<path d="M62.2398 19.3339C63.1824 17.8678 64.8405 17.1347 67.2144 17.1347V20.2503C66.9351 20.1979 66.682 20.1718 66.4551 20.1718C65.1809 20.1718 64.186 20.547 63.4704 21.2976C62.7547 22.0307 62.3969 23.0954 62.3969 24.4918V31.2729H59.1242V17.2918H62.2398V19.3339Z" fill="#BBC3CF"/>
<path d="M83.0061 24.3609C83.0061 24.5878 82.9886 24.9107 82.9537 25.3296H71.9835C72.1755 26.3594 72.673 27.1798 73.4759 27.7907C74.2963 28.3841 75.3086 28.6809 76.513 28.6809C78.049 28.6809 79.3144 28.1747 80.3094 27.1623L82.0635 29.1783C81.4352 29.9289 80.641 30.4961 79.681 30.8801C78.721 31.2641 77.6388 31.4561 76.4345 31.4561C74.8984 31.4561 73.5457 31.1507 72.3763 30.5398C71.2068 29.9289 70.2992 29.0823 69.6534 28.0001C69.025 26.9005 68.7108 25.6612 68.7108 24.2823C68.7108 22.9209 69.0163 21.699 69.6272 20.6169C70.2555 19.5172 71.1195 18.6619 72.2192 18.051C73.3188 17.4401 74.5581 17.1347 75.937 17.1347C77.2984 17.1347 78.5115 17.4401 79.5763 18.051C80.6584 18.6445 81.4963 19.491 82.0897 20.5907C82.7006 21.6729 83.0061 22.9296 83.0061 24.3609ZM75.937 19.7529C74.8897 19.7529 73.9995 20.067 73.2664 20.6954C72.5508 21.3063 72.1144 22.1267 71.9574 23.1565H79.8905C79.7508 22.1441 79.3232 21.3238 78.6075 20.6954C77.8919 20.067 77.0017 19.7529 75.937 19.7529Z" fill="#BBC3CF"/>
<path d="M90.4697 31.4561C89.3352 31.4561 88.2268 31.3078 87.1447 31.011C86.0625 30.7143 85.1985 30.339 84.5527 29.8852L85.8094 27.3979C86.4377 27.8169 87.1883 28.1572 88.061 28.419C88.9512 28.6634 89.8239 28.7856 90.6792 28.7856C92.6341 28.7856 93.6116 28.2707 93.6116 27.2409C93.6116 26.7521 93.3585 26.4118 92.8523 26.2198C92.3636 26.0278 91.5694 25.8445 90.4697 25.6699C89.3177 25.4954 88.3752 25.2947 87.6421 25.0678C86.9265 24.8409 86.2981 24.4481 85.757 23.8896C85.2334 23.3136 84.9716 22.5194 84.9716 21.507C84.9716 20.1805 85.5214 19.1245 86.621 18.339C87.7381 17.5361 89.2392 17.1347 91.1243 17.1347C92.0843 17.1347 93.0443 17.2481 94.0043 17.475C94.9643 17.6845 95.7497 17.9725 96.3607 18.339L95.1039 20.8263C93.917 20.1281 92.5817 19.779 91.0981 19.779C90.1381 19.779 89.405 19.9274 88.8988 20.2241C88.4101 20.5034 88.1657 20.8787 88.1657 21.3499C88.1657 21.8736 88.4276 22.2489 88.9512 22.4758C89.4923 22.6852 90.3214 22.8859 91.4385 23.0779C92.5556 23.2525 93.4719 23.4532 94.1876 23.6801C94.9032 23.907 95.5141 24.291 96.0203 24.8321C96.5439 25.3732 96.8057 26.1412 96.8057 27.1361C96.8057 28.4452 96.2385 29.4925 95.1039 30.278C93.9694 31.0634 92.4247 31.4561 90.4697 31.4561Z" fill="#BBC3CF"/>
<path d="M112.767 24.3609C112.767 24.5878 112.75 24.9107 112.715 25.3296H101.745C101.937 26.3594 102.434 27.1798 103.237 27.7907C104.058 28.3841 105.07 28.6809 106.274 28.6809C107.81 28.6809 109.076 28.1747 110.071 27.1623L111.825 29.1783C111.197 29.9289 110.402 30.4961 109.442 30.8801C108.482 31.2641 107.4 31.4561 106.196 31.4561C104.66 31.4561 103.307 31.1507 102.138 30.5398C100.968 29.9289 100.061 29.0823 99.4147 28.0001C98.7864 26.9005 98.4722 25.6612 98.4722 24.2823C98.4722 22.9209 98.7776 21.699 99.3885 20.6169C100.017 19.5172 100.881 18.6619 101.981 18.051C103.08 17.4401 104.319 17.1347 105.698 17.1347C107.06 17.1347 108.273 17.4401 109.338 18.051C110.42 18.6445 111.258 19.491 111.851 20.5907C112.462 21.6729 112.767 22.9296 112.767 24.3609ZM105.698 19.7529C104.651 19.7529 103.761 20.067 103.028 20.6954C102.312 21.3063 101.876 22.1267 101.719 23.1565H109.652C109.512 22.1441 109.085 21.3238 108.369 20.6954C107.653 20.067 106.763 19.7529 105.698 19.7529Z" fill="#BBC3CF"/>
<path d="M122.326 31.4561C120.877 31.4561 119.577 31.1507 118.425 30.5398C117.273 29.9289 116.374 29.0823 115.728 28.0001C115.082 26.9005 114.759 25.6612 114.759 24.2823C114.759 22.9034 115.082 21.6729 115.728 20.5907C116.374 19.5085 117.264 18.6619 118.398 18.051C119.55 17.4401 120.859 17.1347 122.326 17.1347C123.705 17.1347 124.909 17.4139 125.939 17.9725C126.986 18.531 127.771 19.3339 128.295 20.3812L125.782 21.8474C125.38 21.2016 124.874 20.7216 124.263 20.4074C123.67 20.0758 123.015 19.9099 122.299 19.9099C121.078 19.9099 120.065 20.3114 119.262 21.1143C118.459 21.8998 118.058 22.9558 118.058 24.2823C118.058 25.6089 118.451 26.6736 119.236 27.4765C120.039 28.2619 121.06 28.6547 122.299 28.6547C123.015 28.6547 123.67 28.4976 124.263 28.1834C124.874 27.8518 125.38 27.363 125.782 26.7172L128.295 28.1834C127.754 29.2307 126.96 30.0423 125.913 30.6183C124.883 31.1769 123.687 31.4561 122.326 31.4561Z" fill="#BBC3CF"/>
<path d="M144.66 17.2918V31.2729H141.545V29.4925C141.021 30.1209 140.366 30.6096 139.581 30.9587C138.795 31.2903 137.949 31.4561 137.041 31.4561C135.174 31.4561 133.699 30.9412 132.617 29.9114C131.552 28.8641 131.019 27.3194 131.019 25.2772V17.2918H134.292V24.8321C134.292 26.0889 134.571 27.0314 135.13 27.6598C135.706 28.2707 136.518 28.5761 137.565 28.5761C138.734 28.5761 139.659 28.2183 140.34 27.5027C141.038 26.7696 141.387 25.7223 141.387 24.3609V17.2918H144.66Z" fill="#BBC3CF"/>
<path d="M152.061 19.3339C153.003 17.8678 154.662 17.1347 157.035 17.1347V20.2503C156.756 20.1979 156.503 20.1718 156.276 20.1718C155.002 20.1718 154.007 20.547 153.291 21.2976C152.576 22.0307 152.218 23.0954 152.218 24.4918V31.2729H148.945V17.2918H152.061V19.3339Z" fill="#BBC3CF"/>
<path d="M167.562 17.1347C168.923 17.1347 170.136 17.4314 171.201 18.0249C172.283 18.6183 173.129 19.4561 173.74 20.5383C174.351 21.6205 174.657 22.8685 174.657 24.2823C174.657 25.6961 174.351 26.9529 173.74 28.0525C173.129 29.1347 172.283 29.9725 171.201 30.566C170.136 31.1594 168.923 31.4561 167.562 31.4561C166.602 31.4561 165.72 31.2903 164.917 30.9587C164.132 30.627 163.468 30.1296 162.927 29.4663V31.2729H159.812V11.8459H163.084V18.9936C163.643 18.3827 164.298 17.9201 165.048 17.6059C165.816 17.2918 166.654 17.1347 167.562 17.1347ZM167.195 28.6547C168.399 28.6547 169.385 28.2532 170.154 27.4503C170.939 26.6474 171.332 25.5914 171.332 24.2823C171.332 22.9732 170.939 21.9172 170.154 21.1143C169.385 20.3114 168.399 19.9099 167.195 19.9099C166.409 19.9099 165.703 20.0932 165.074 20.4598C164.446 20.8089 163.948 21.315 163.582 21.9783C163.215 22.6416 163.032 23.4096 163.032 24.2823C163.032 25.155 163.215 25.923 163.582 26.5863C163.948 27.2496 164.446 27.7645 165.074 28.131C165.703 28.4801 166.409 28.6547 167.195 28.6547Z" fill="#BBC3CF"/>
<defs>
<clipPath id="clip0_13_227">
<rect width="48" height="43.6364" fill="white" transform="translate(0.25 0.181885)"/>
</clipPath>
</defs>
</svg>
