<svg width="155" height="44" viewBox="0 0 155 44" fill="none" xmlns="http://www.w3.org/2000/svg">
<path d="M53.2347 14.7301C53.2347 22.5847 61.6783 23.645 61.6783 29.3003C61.6783 31.2639 60.8143 31.9708 59.4398 31.9708C58.0652 31.9708 57.2012 31.2639 57.2012 29.3003V27.3367H53.1169V29.0254C53.1169 33.4239 55.3162 35.9374 59.5576 35.9374C63.7991 35.9374 65.9983 33.4239 65.9983 29.0254C65.9983 21.1708 57.5547 20.1105 57.5547 14.4552C57.5547 12.4916 58.3402 11.7454 59.7147 11.7454C61.0892 11.7454 61.8747 12.4916 61.8747 14.4552V15.5941H65.9591V14.7301C65.9591 10.3316 63.7991 7.81812 59.5969 7.81812C55.3947 7.81812 53.2347 10.3316 53.2347 14.7301Z" fill="#BBC3CF"/>
<path d="M72.2501 35.6232H76.5701V26.5119L82.029 8.1323H77.9053L74.6064 20.6603L71.3075 8.1323H66.7912L72.2501 26.5119V35.6232Z" fill="#BBC3CF"/>
<path d="M89.7455 8.1323H83.7367V35.6232H87.5069V16.1832L90.7273 35.6232H94.8116L97.7964 15.9083V35.6232H101.881V8.1323H95.872L92.9265 27.6508L89.7455 8.1323Z" fill="#BBC3CF"/>
<path d="M103.766 12.0596H108.283V35.6232H112.603V12.0596H117.119V8.1323H103.766V12.0596Z" fill="#BBC3CF"/>
<path d="M132.453 35.6232C132.021 34.6021 131.982 33.6203 131.982 32.285V28.0436C131.982 25.1767 131.275 23.0952 129.115 22.1919C131.039 21.2887 131.942 19.4428 131.942 16.6152V14.4552C131.942 10.2138 130.018 8.1323 125.541 8.1323H119.022V35.6232H123.342V24.4305H124.834C126.798 24.4305 127.662 25.373 127.662 27.9258V32.2458C127.662 34.4843 127.819 34.9163 128.054 35.6232H132.453ZM125.423 12.0596C126.955 12.0596 127.622 12.9236 127.622 14.8872V17.597C127.622 19.7963 126.641 20.5032 125.03 20.5032H123.342V12.0596H125.423Z" fill="#BBC3CF"/>
<path d="M134.823 35.6232H139.143V8.1323H134.823V35.6232Z" fill="#BBC3CF"/>
<path d="M150.745 25.373V29.3003C150.745 31.2639 149.881 31.9708 148.507 31.9708C147.132 31.9708 146.268 31.2639 146.268 29.3003V14.4552C146.268 12.4916 147.132 11.7454 148.507 11.7454C149.881 11.7454 150.745 12.4916 150.745 14.4552V17.4007H154.83V14.7301C154.83 10.3316 152.63 7.81812 148.389 7.81812C144.147 7.81812 141.948 10.3316 141.948 14.7301V29.0254C141.948 33.4239 144.147 35.9374 148.389 35.9374C152.63 35.9374 154.83 33.4239 154.83 29.0254V25.373H150.745Z" fill="#BBC3CF"/>
<g clip-path="url(#clip0_1_1264)">
<path fill-rule="evenodd" clip-rule="evenodd" d="M15.5967 14.0168L13.2361 18.098L10.9899 14.2018L13.3388 10.1206H29.7458L33.2295 4.07813H9.85218L5.24546 12.0687C8.70125 18.0388 12.1517 24.0089 15.5967 29.979H22.5641C20.8142 26.9499 19.0652 23.9213 17.3172 20.8932L16.8328 20.0549H32.8008L39.6683 31.9461L32.8008 43.8183H7.60609L0.809045 31.8316L4.22226 25.9036L6.48305 29.7984L5.26015 31.9315L9.86688 39.9221H30.5415L35.1629 31.9315L30.5562 23.9409H23.5888C25.0666 26.5149 26.5454 29.0883 28.0252 31.6613L28.1926 31.9271L27.0695 33.8752H13.3506C9.19793 26.6944 5.05069 19.5191 0.908826 12.3491L0.753204 12.0643L7.60609 0.173096H39.9943L32.0095 14.0168H15.5967Z" fill="#BBC3CF"/>
</g>
<defs>
<clipPath id="clip0_1_1264">
<rect width="39.2425" height="43.6364" fill="white" transform="translate(0.753235 0.181763)"/>
</clipPath>
</defs>
</svg>
