<svg width="184" height="48" viewBox="0 0 184 48" fill="none" xmlns="http://www.w3.org/2000/svg">
<g clip-path="url(#clip0_1_1265)">
<path fill-rule="evenodd" clip-rule="evenodd" d="M27.5387 47.0853C32.7335 46.4788 37.5718 44.1369 41.27 40.4386C44.9683 36.7403 47.3102 31.9021 47.9167 26.7073H39.1859C38.6352 29.5903 37.23 32.2411 35.1528 34.3149C33.0756 36.3887 30.4226 37.7896 27.5387 38.3356V47.0853Z" fill="#BBC3CF"/>
<path fill-rule="evenodd" clip-rule="evenodd" d="M35.2941 3.24608L35.349 3.21011C40.9984 -0.0359779 45.5664 -0.990521 47.6932 1.13818C53.71 7.1531 36.7428 25.8626 31.7165 30.8889C28.6938 33.9205 25.4905 36.7665 22.1241 39.4113V47.0796C19.4176 46.7723 16.788 45.9834 14.3593 44.7501L14.3043 44.7861C8.65495 48.0322 4.0889 48.9867 1.9602 46.8693C-0.956353 43.9528 2.45632 37.239 4.0699 34.4683C2.84426 32.0366 2.05581 29.4083 1.74048 26.7035H10.4901C10.8727 28.7342 11.682 30.6607 12.8645 32.3554C14.047 34.0501 15.5758 35.4746 17.3497 36.5345C16.3403 37.2675 15.3138 37.9644 14.2494 38.6178C12.6908 39.6083 11.0772 40.5438 9.40684 41.3866C8.09956 40.2289 6.93027 38.9243 5.92215 37.4985C4.16085 40.8923 3.57376 43.3865 4.50933 44.3164C8.52622 48.2935 26.5937 31.6976 29.5651 28.7261C32.7287 25.5667 35.6878 22.2091 38.4246 18.6735C37.5228 16.3688 36.0497 14.3313 34.1437 12.7527C32.2377 11.174 29.9615 10.1061 27.5292 9.64925V0.899554C30.2363 1.20412 32.8664 1.99317 35.2941 3.22902V3.24608ZM43.7312 10.492C45.4925 7.0982 46.0796 4.60398 45.144 3.67409C44.2084 2.74421 41.7351 3.34457 38.3394 5.10587C40.4269 6.58735 42.2497 8.41016 43.7312 10.4977V10.492Z" fill="#BBC3CF"/>
<path fill-rule="evenodd" clip-rule="evenodd" d="M22.1279 0.916626C16.9329 1.52353 12.0947 3.86584 8.39649 7.56443C4.69825 11.263 2.35635 16.1014 1.74993 21.2965H10.4996C11.0429 18.4131 12.4432 15.7606 14.5178 13.6857C16.5924 11.6108 19.2446 10.21 22.1279 9.66627V0.916626Z" fill="#BBC3CF"/>
</g>
<path d="M88.4432 29.5568C88.4432 30.5682 88.25 31.5228 87.8636 32.4205C87.4886 33.3068 86.9659 34.0853 86.2954 34.7557C85.6363 35.4148 84.8579 35.9375 83.9602 36.3239C83.0738 36.6989 82.125 36.8864 81.1136 36.8864C80.2045 36.8864 79.3295 36.7273 78.4886 36.4091C77.6591 36.0909 76.9091 35.625 76.2386 35.0114C75.5682 35.625 74.8125 36.0909 73.9716 36.4091C73.1307 36.7273 72.2557 36.8864 71.3466 36.8864C70.3352 36.8864 69.3807 36.6989 68.4829 36.3239C67.5966 35.9375 66.8182 35.4148 66.1477 34.7557C65.4886 34.0853 64.9659 33.3068 64.5795 32.4205C64.2045 31.5228 64.017 30.5682 64.017 29.5568V12.1023H68.9091V29.5568C68.9091 29.8978 68.9716 30.2216 69.0966 30.5284C69.2216 30.8239 69.392 31.0853 69.6079 31.3125C69.8352 31.5284 70.0966 31.6989 70.392 31.8239C70.6875 31.9489 71.0057 32.0114 71.3466 32.0114C71.6875 32.0114 72.0057 31.9489 72.3011 31.8239C72.5966 31.6989 72.8523 31.5284 73.0682 31.3125C73.2954 31.0853 73.4716 30.8239 73.5966 30.5284C73.7216 30.2216 73.7841 29.8978 73.7841 29.5568V12.1023H78.6761V29.5568C78.6761 29.8978 78.7386 30.2216 78.8636 30.5284C78.9886 30.8239 79.1591 31.0853 79.375 31.3125C79.6023 31.5284 79.8636 31.6989 80.1591 31.8239C80.4545 31.9489 80.7727 32.0114 81.1136 32.0114C81.4545 32.0114 81.7727 31.9489 82.0682 31.8239C82.3636 31.6989 82.6193 31.5284 82.8352 31.3125C83.0625 31.0853 83.2386 30.8239 83.3636 30.5284C83.5 30.2216 83.5682 29.8978 83.5682 29.5568V12.1023H88.4432V29.5568Z" fill="#BBC3CF"/>
<path d="M97.8182 13.3296C97.8182 13.7614 97.7329 14.1648 97.5625 14.5398C97.4034 14.9148 97.1818 15.2443 96.8977 15.5284C96.6136 15.8012 96.2784 16.0227 95.892 16.1932C95.517 16.3523 95.1136 16.4318 94.6818 16.4318C94.25 16.4318 93.8409 16.3523 93.4545 16.1932C93.0795 16.0227 92.75 15.8012 92.4659 15.5284C92.1932 15.2443 91.9716 14.9148 91.8011 14.5398C91.642 14.1648 91.5625 13.7614 91.5625 13.3296C91.5625 12.9091 91.642 12.5114 91.8011 12.1364C91.9716 11.75 92.1932 11.4205 92.4659 11.1477C92.75 10.8637 93.0795 10.6421 93.4545 10.483C93.8409 10.3125 94.25 10.2273 94.6818 10.2273C95.1136 10.2273 95.517 10.3125 95.892 10.483C96.2784 10.6421 96.6136 10.8637 96.8977 11.1477C97.1818 11.4205 97.4034 11.75 97.5625 12.1364C97.7329 12.5114 97.8182 12.9091 97.8182 13.3296ZM97.017 36.5455H92.3295V18.2898H97.017V36.5455Z" fill="#BBC3CF"/>
<path d="M110.602 36.5455H99.9659V31.9091H110.602C110.92 31.9091 111.193 31.7955 111.42 31.5682C111.648 31.3409 111.761 31.0682 111.761 30.75C111.761 30.4205 111.648 30.2046 111.42 30.1023C111.193 30 110.92 29.9489 110.602 29.9489H105.761C104.955 29.9489 104.199 29.7955 103.494 29.4887C102.79 29.1818 102.176 28.7671 101.653 28.2443C101.131 27.7103 100.716 27.0909 100.409 26.3864C100.114 25.6818 99.9659 24.9262 99.9659 24.1193C99.9659 23.3125 100.114 22.5568 100.409 21.8523C100.716 21.1477 101.131 20.5341 101.653 20.0114C102.176 19.4887 102.79 19.0796 103.494 18.7841C104.199 18.4773 104.955 18.3239 105.761 18.3239H115.187V22.9602H105.761C105.443 22.9602 105.17 23.0739 104.943 23.3012C104.716 23.5284 104.602 23.8012 104.602 24.1193C104.602 24.4489 104.716 24.733 104.943 24.9716C105.17 25.1989 105.443 25.3125 105.761 25.3125H110.602C111.398 25.3125 112.148 25.4489 112.852 25.7216C113.557 25.983 114.17 26.3523 114.693 26.8296C115.216 27.3068 115.631 27.8807 115.937 28.5512C116.244 29.2216 116.398 29.9546 116.398 30.75C116.398 31.5568 116.244 32.3125 115.937 33.0171C115.631 33.7103 115.216 34.3239 114.693 34.858C114.17 35.3807 113.557 35.7955 112.852 36.1023C112.148 36.3978 111.398 36.5455 110.602 36.5455Z" fill="#BBC3CF"/>
<path d="M123.54 36.5455H118.886V11.0284H123.54V19.0909C124.097 18.6705 124.67 18.375 125.261 18.2046C125.852 18.0227 126.455 17.9318 127.068 17.9318C128.193 17.9318 129.25 18.1477 130.239 18.5796C131.227 19 132.085 19.5852 132.812 20.3352C133.551 21.0739 134.131 21.9432 134.551 22.9432C134.983 23.9318 135.199 24.9887 135.199 26.1137V36.5455H130.511V26.1137H130.545C130.545 25.6364 130.455 25.1875 130.273 24.7671C130.091 24.3352 129.841 23.9602 129.523 23.6421C129.205 23.3239 128.835 23.0739 128.415 22.8921C127.994 22.7102 127.545 22.6193 127.068 22.6193C126.58 22.6193 126.119 22.7102 125.687 22.8921C125.256 23.0739 124.881 23.3239 124.562 23.6421C124.244 23.9602 123.994 24.3352 123.812 24.7671C123.631 25.1875 123.54 25.6364 123.54 26.1137V36.5455Z" fill="#BBC3CF"/>
<path d="M145.784 32.0796C145.966 32.1364 146.148 32.1762 146.33 32.1989C146.511 32.2103 146.693 32.2159 146.875 32.2159C147.33 32.2159 147.767 32.1534 148.187 32.0284C148.608 31.9034 149 31.7273 149.364 31.5C149.739 31.2614 150.068 30.9773 150.352 30.6478C150.648 30.3068 150.886 29.9318 151.068 29.5228L154.477 32.9489C154.045 33.5625 153.545 34.1137 152.977 34.6023C152.42 35.0909 151.812 35.5057 151.153 35.8466C150.506 36.1875 149.818 36.4432 149.091 36.6137C148.375 36.7955 147.636 36.8864 146.875 36.8864C145.591 36.8864 144.381 36.6478 143.244 36.1705C142.119 35.6932 141.131 35.0284 140.278 34.1762C139.437 33.3239 138.773 32.3125 138.284 31.1421C137.795 29.9603 137.551 28.6648 137.551 27.2557C137.551 25.8125 137.795 24.4943 138.284 23.3012C138.773 22.108 139.437 21.0909 140.278 20.25C141.131 19.4091 142.119 18.7557 143.244 18.2898C144.381 17.8239 145.591 17.5909 146.875 17.5909C147.636 17.5909 148.381 17.6818 149.108 17.8637C149.835 18.0455 150.523 18.3068 151.17 18.6477C151.83 18.9887 152.443 19.4091 153.011 19.9091C153.58 20.3977 154.08 20.9489 154.511 21.5625L145.784 32.0796ZM148.17 22.483C147.955 22.4034 147.739 22.3523 147.523 22.3296C147.318 22.3068 147.102 22.2955 146.875 22.2955C146.239 22.2955 145.636 22.4148 145.068 22.6534C144.511 22.8807 144.023 23.2102 143.602 23.6421C143.193 24.0739 142.869 24.5966 142.631 25.2102C142.392 25.8125 142.273 26.4943 142.273 27.2557C142.273 27.4262 142.278 27.6193 142.29 27.8353C142.312 28.0512 142.341 28.2728 142.375 28.5C142.42 28.7159 142.472 28.9262 142.528 29.1307C142.585 29.3353 142.659 29.5171 142.75 29.6762L148.17 22.483Z" fill="#BBC3CF"/>
<path d="M161.551 36.5455H156.864V11.0284H161.551V36.5455Z" fill="#BBC3CF"/>
<path d="M169.801 43.5H165.114V18.2898H166.239L168.097 20.4887C168.517 20.0909 168.977 19.7159 169.477 19.3637C169.977 19.0114 170.494 18.7102 171.028 18.4602C171.574 18.1989 172.136 17.9943 172.716 17.8466C173.295 17.6989 173.881 17.625 174.472 17.625C175.756 17.625 176.96 17.858 178.085 18.3239C179.222 18.7784 180.21 19.4262 181.051 20.2671C181.903 21.108 182.574 22.125 183.062 23.3182C183.551 24.5 183.795 25.8125 183.795 27.2557C183.795 28.7557 183.551 30.108 183.062 31.3125C182.574 32.5057 181.903 33.5228 181.051 34.3637C180.21 35.1932 179.222 35.8296 178.085 36.2728C176.96 36.7159 175.756 36.9375 174.472 36.9375C174.062 36.9375 173.653 36.8921 173.244 36.8012C172.847 36.7103 172.449 36.5909 172.051 36.4432C171.665 36.2841 171.278 36.108 170.892 35.9148C170.517 35.7216 170.153 35.5228 169.801 35.3182V43.5ZM179.125 27.2557C179.125 26.483 179 25.7898 178.75 25.1762C178.511 24.5625 178.182 24.0455 177.761 23.625C177.341 23.1932 176.847 22.8637 176.278 22.6364C175.71 22.4091 175.108 22.2955 174.472 22.2955C173.835 22.2955 173.233 22.4091 172.665 22.6364C172.108 22.8637 171.619 23.1932 171.199 23.625C170.778 24.0455 170.443 24.5625 170.193 25.1762C169.955 25.7898 169.835 26.483 169.835 27.2557C169.835 27.9943 169.955 28.6705 170.193 29.2841C170.443 29.8978 170.778 30.4205 171.199 30.8523C171.619 31.2841 172.108 31.6193 172.665 31.858C173.233 32.0966 173.835 32.2159 174.472 32.2159C175.108 32.2159 175.71 32.0966 176.278 31.858C176.847 31.6193 177.341 31.2841 177.761 30.8523C178.182 30.4205 178.511 29.8978 178.75 29.2841C179 28.6705 179.125 27.9943 179.125 27.2557Z" fill="#BBC3CF"/>
<defs>
<clipPath id="clip0_1_1265">
<rect width="48.142" height="48" fill="white" transform="translate(0.829529)"/>
</clipPath>
</defs>
</svg>
