<svg width="177" height="44" viewBox="0 0 177 44" fill="none" xmlns="http://www.w3.org/2000/svg">
<g clip-path="url(#clip0_1_1266)">
<path d="M40.2543 2.69791C40.5087 2.7875 40.7303 2.95138 40.8906 3.16835C41.0509 3.38531 41.1424 3.64538 41.1533 3.91491C41.2915 5.35424 41.3504 6.8001 41.3298 8.24591C41.3145 8.90917 41.2993 9.57243 41.2552 10.2357C41.0057 10.1323 40.7699 10.0288 40.5189 9.93145C39.8861 9.68196 39.2669 9.44618 38.6326 9.22408C38.6478 8.88636 38.663 8.56233 38.663 8.22309C38.6767 7.14756 38.6478 6.05683 38.5596 4.9524C37.5282 4.62837 36.4526 4.33325 35.3649 4.06855C33.9958 3.74453 32.6267 3.47832 31.2393 3.28664C30.4589 3.18471 29.7074 3.09495 28.9863 3.02193C28.2652 2.94891 27.497 2.9048 26.7166 2.86981C26.1081 2.8546 25.5376 2.8409 24.92 2.8409L24.021 2.8546C23.7548 2.8546 23.4459 2.86981 23.1219 2.86981C22.3415 2.90023 21.59 2.95804 20.8522 3.02193C20.1144 3.08583 19.3797 3.18471 18.5992 3.28664C17.2301 3.47832 15.8442 3.74301 14.4736 4.06855C13.3829 4.33325 12.3226 4.62837 11.279 4.9524C11.0995 7.37403 11.1637 9.80757 11.4707 12.2164C11.6336 13.5639 11.8697 14.9015 12.1781 16.2233C12.3545 16.9748 12.5614 17.7263 12.7866 18.4474L12.8018 18.5067L12.8155 18.5661L12.8307 18.6254L12.8596 18.6832L12.8748 18.7425L12.89 18.8019L12.9052 18.8612L12.963 19.0224V19.0376L12.9782 19.0955L13.0817 19.3754L13.0953 19.4347L13.1851 19.6705L13.1988 19.7146C13.6538 21.0339 14.1805 22.3273 14.7764 23.5892L14.8053 23.6334L14.8205 23.679L14.8342 23.7079L14.8645 23.752L14.8783 23.7961L14.8935 23.8402L14.9224 23.8691C15.1445 24.3255 15.3788 24.7819 15.6161 25.2383C15.7926 25.5334 15.9537 25.8468 16.1165 26.1221C16.3082 26.4619 16.4852 26.7565 16.6475 27.006C17.148 27.8168 17.6774 28.6124 18.2387 29.3791C18.8 30.1458 19.372 30.8821 20.0064 31.6184C20.2427 31.8983 20.5079 32.1929 20.802 32.5022C21.0819 32.8065 21.3466 33.1107 21.5976 33.3709C22.2457 34.0341 22.9226 34.6685 23.6011 35.2861L23.881 35.5219C23.6893 35.674 23.4977 35.8262 23.2923 35.9783C22.7614 36.3753 22.2168 36.7587 21.6706 37.142C18.727 34.5032 16.1945 31.439 14.1572 28.0511V28.0358L14.1419 28.0222L14.1268 28.0069C14.0097 27.8153 13.9062 27.6236 13.8027 27.4623C13.6262 27.1383 13.4346 26.8128 13.2733 26.504C12.7865 25.6201 12.3439 24.7074 11.9179 23.749C11.492 22.7906 11.1223 21.8489 10.7831 20.9057C10.3092 19.5725 9.90595 18.2152 9.57515 16.8394C8.57428 12.6067 8.27575 8.23835 8.69137 3.90882C8.70383 3.63889 8.79764 3.37905 8.96056 3.16346C9.12347 2.94788 9.34785 2.78664 9.60412 2.70095C11.0037 2.22936 12.4336 1.8171 13.8773 1.46265C15.292 1.13863 16.7494 0.854155 18.2387 0.638138C18.9993 0.534693 19.7995 0.446462 20.6393 0.373442C21.4501 0.2989 22.2457 0.241092 23.0261 0.210667C23.3212 0.210667 23.6346 0.195458 23.9692 0.195458L24.9277 0.181763L25.8845 0.195458C26.2238 0.195458 26.5478 0.210667 26.8277 0.210667C27.6233 0.241092 28.4189 0.2989 29.2297 0.373442C30.0695 0.446462 30.8651 0.534693 31.6166 0.638138C33.118 0.858719 34.5769 1.13863 35.9917 1.46265C37.4217 1.8171 38.8501 2.22328 40.2649 2.70095L40.2543 2.69791ZM31.6196 29.3806C32.1505 28.6291 32.6845 27.8594 33.1667 27.0668C33.3331 26.7679 33.6062 26.5427 33.9313 26.4362C34.2563 26.3296 34.6096 26.3494 34.9207 26.4918C37.4809 27.7155 39.805 29.3815 41.7861 31.413C42.0179 31.6267 42.167 31.9152 42.2074 32.2278C42.2477 32.5405 42.1767 32.8574 42.0067 33.1229C41.5945 33.771 41.1381 34.4479 40.6817 35.1112C40.2254 35.7744 39.7233 36.4225 39.238 37.0416C38.8836 37.498 38.5002 37.9696 38.088 38.4412C37.735 38.8535 37.3365 39.3098 36.8953 39.7966C36.2762 40.4751 35.6783 41.0927 35.0698 41.6967H35.0546C34.4659 42.2869 33.8376 42.8619 33.1835 43.4354C32.9905 43.6234 32.7456 43.7493 32.4804 43.7967C32.2152 43.8442 31.9419 43.8111 31.6957 43.7017C29.7564 42.8114 27.8893 41.7718 26.1112 40.5922C26.347 40.4158 26.5827 40.2393 26.8185 40.0476C27.319 39.6491 27.8211 39.252 28.2911 38.8306C29.4927 39.5944 30.7377 40.2877 32.0197 40.9071C32.4167 40.539 32.8001 40.1708 33.1986 39.7875C33.8163 39.179 34.3913 38.5948 34.9222 38.0046C35.2752 37.6365 35.6433 37.1953 36.0571 36.7237C36.41 36.2962 36.7782 35.8535 37.1326 35.3835C37.6179 34.7932 38.0606 34.1893 38.488 33.5701C38.7238 33.2659 38.9444 32.9221 39.165 32.5981C38.5019 31.9623 37.7925 31.3765 37.0428 30.8456C36.3328 30.3307 35.5899 29.8627 34.8188 29.4445C34.4796 29.9602 34.1266 30.4622 33.7722 30.9475C33.1545 31.8025 32.5202 32.5981 31.8722 33.3648C31.577 33.7025 31.2971 34.0128 31.0324 34.3079C30.9138 34.4601 30.7814 34.5879 30.6491 34.7339L30.6338 34.7491L30.6202 34.7643L30.6049 34.778L30.5897 34.7932L30.576 34.8084L30.5608 34.8237L30.5456 34.8374L30.5167 34.8678V34.8815C29.1099 36.3632 27.5985 37.742 25.994 39.0071C23.5695 40.8688 20.9393 42.446 18.1551 43.7078C17.902 43.8213 17.62 43.8538 17.3477 43.801C17.0754 43.7482 16.8261 43.6126 16.6338 43.4126C15.9842 42.8528 15.3803 42.2778 14.7764 41.7028C14.1679 41.114 13.5685 40.4857 12.9509 39.8027C12.4945 39.3159 12.0974 38.8595 11.7429 38.4473C11.3459 37.9757 10.9626 37.5041 10.5944 37.0477C10.1076 36.4149 9.63604 35.7805 9.16445 35.1173C8.69287 34.454 8.25171 33.777 7.83945 33.129C7.5139 32.6133 7.17614 32.0641 6.8369 31.4936C6.53265 30.9338 6.21775 30.374 5.92415 29.8203C5.54231 29.1129 5.18789 28.3903 4.84865 27.6692C4.50941 26.9482 4.21582 26.224 3.90701 25.4725C3.34719 24.1034 2.86039 22.7039 2.43292 21.2739C2.00545 19.8439 1.65252 18.4018 1.36805 16.9429C1.31267 16.6742 1.34255 16.3949 1.45354 16.144C1.56454 15.8931 1.75109 15.6831 1.98717 15.5433C3.70249 14.3241 5.51013 13.2402 7.3937 12.3016C7.46672 13.0089 7.55645 13.7011 7.67358 14.3933C7.70249 14.6291 7.74661 14.8649 7.79072 15.1007C6.54029 15.7546 5.33026 16.4831 4.16713 17.2821C4.40293 18.3866 4.68283 19.4621 4.99164 20.5087C5.39021 21.8641 5.86185 23.1891 6.37755 24.4639C6.65746 25.1561 6.95105 25.8483 7.27507 26.5405C7.5991 27.2326 7.92462 27.9096 8.27755 28.5592C8.55746 29.1053 8.85262 29.624 9.14774 30.1504C9.44134 30.6372 9.75623 31.1529 10.0894 31.6975C10.5032 32.3456 10.9154 32.9799 11.3429 33.5686C11.7703 34.1573 12.2267 34.7856 12.6983 35.382C13.0665 35.852 13.4194 36.2947 13.7876 36.7222C14.1861 37.1938 14.5695 37.6349 14.9072 38.0031C15.4533 38.5933 16.0268 39.182 16.646 39.786C17.0293 40.1693 17.4279 40.5375 17.8097 40.8919C20.0266 39.8255 22.1296 38.537 24.0864 37.0462C26.9543 34.8713 29.4905 32.2906 31.6151 29.3852L31.6196 29.3806ZM47.8422 15.5373C48.0775 15.6785 48.2641 15.8882 48.3772 16.1382C48.4903 16.3883 48.5244 16.6669 48.4751 16.9368C48.18 18.3957 47.827 19.8393 47.3995 21.2678C46.9721 22.6963 46.4868 24.0973 45.9407 25.4664C45.8853 25.603 45.8054 25.7283 45.7048 25.8361C45.4737 26.1041 45.1464 26.2703 44.7936 26.2988C44.4409 26.3273 44.0912 26.2157 43.8201 25.9882C42.8245 25.1217 41.7709 24.3242 40.6665 23.6014C39.5814 22.8915 38.4489 22.2567 37.2771 21.7014C36.9698 21.5627 36.7254 21.3142 36.592 21.0046C36.4585 20.6949 36.4458 20.3466 36.5561 20.028C36.9968 18.7882 37.3655 17.5239 37.6605 16.2416C37.7928 15.7411 37.8963 15.2391 37.9997 14.7203C38.339 14.8527 38.663 14.9866 39.0023 15.1326C39.5028 15.3547 40.0032 15.589 40.5037 15.8263C40.4307 16.1792 40.3516 16.5185 40.2679 16.8577C40.0336 17.845 39.7675 18.8353 39.4586 19.8044C40.3714 20.2759 41.2704 20.8053 42.139 21.3652C42.8023 21.8078 43.4656 22.2779 44.0999 22.7647C44.3646 22.0284 44.6156 21.2769 44.8362 20.5117C45.1602 19.4651 45.4249 18.382 45.6759 17.2852C43.7425 15.9632 41.6847 14.8331 39.5317 13.911C38.2056 13.3379 36.8479 12.8407 35.4654 12.4217C34.202 12.0402 32.918 11.7304 31.6196 11.4938C30.7069 11.3325 29.7637 11.2002 28.8053 11.0967C27.8469 10.9933 26.9053 10.934 25.9621 10.9051L25.4327 10.8898H24.4013L23.8856 10.9051C22.9424 10.934 21.984 10.9933 21.0408 11.0967C20.0977 11.2002 19.1408 11.3325 18.2128 11.4938C16.9304 11.7296 15.6495 12.0536 14.3671 12.4217C13.8803 12.5739 13.395 12.726 12.9082 12.8933C12.8641 12.6134 12.82 12.3487 12.7911 12.0688C12.7029 11.436 12.639 10.8168 12.5994 10.1825C16.5746 8.86821 20.7348 8.20051 24.9216 8.20483C30.1003 8.21194 35.2287 9.22242 40.023 11.1804C42.788 12.3325 45.4128 13.7958 47.8468 15.5418L47.8422 15.5373ZM23.2954 27.1916C23.0748 26.9116 22.8831 26.6606 22.7066 26.4401C21.3047 24.5208 20.1143 22.4556 19.156 20.2805C19.0237 19.9869 18.8898 19.6918 18.7727 19.3967C18.6556 19.1016 18.5658 18.8521 18.4684 18.5722C18.4263 18.4749 18.3966 18.3726 18.3802 18.2679C18.3488 18.0946 18.3522 17.9169 18.3902 17.7449C18.4282 17.573 18.5001 17.4104 18.6016 17.2665C18.7032 17.1227 18.8323 17.0004 18.9816 16.907C19.1308 16.8136 19.2972 16.7508 19.4709 16.7223C19.7508 16.663 20.0794 16.6189 20.4141 16.5702L21.3709 16.4363C21.9612 16.3785 22.5499 16.3344 23.1539 16.2842C23.7578 16.234 24.3708 16.2401 24.9231 16.2401C25.4753 16.2401 26.0716 16.2538 26.7044 16.2842C27.3129 16.3283 27.8987 16.3724 28.4737 16.4363L29.4305 16.5702C29.785 16.6143 30.0938 16.6584 30.3889 16.7223C30.4642 16.7344 30.538 16.7538 30.6095 16.7801C30.9429 16.9005 31.2152 17.1477 31.3671 17.468C31.519 17.7883 31.5381 18.1557 31.4203 18.49C31.3017 18.7942 31.1845 19.1076 31.0658 19.4028C30.9472 19.6979 30.8301 19.993 30.6977 20.2866C30.2191 21.3707 29.6828 22.4285 29.0913 23.4554C28.4969 24.4896 27.8427 25.4882 27.1319 26.4461C26.9108 26.7392 26.7197 26.9897 26.5584 27.1976C26.3074 27.5019 26.1157 27.7575 25.9499 27.9339C25.898 27.9998 25.8382 28.059 25.7719 28.1104C25.6381 28.2231 25.4832 28.3081 25.3162 28.3603C25.1492 28.4125 24.9736 28.4309 24.7994 28.4145C24.6252 28.3981 24.456 28.3471 24.3017 28.2646C24.1474 28.1821 24.0112 28.0697 23.9008 27.9339C23.6802 27.6829 23.4886 27.4471 23.2923 27.1976L23.2954 27.1916Z" fill="#BBC3CF"/>
</g>
<path d="M62.7853 19.3338C63.7278 17.8676 65.386 17.1346 67.7598 17.1346V20.2502C67.4806 20.1978 67.2275 20.1716 67.0006 20.1716C65.7264 20.1716 64.7315 20.5469 64.0158 21.2975C63.3002 22.0306 62.9424 23.0953 62.9424 24.4916V31.2727H59.6697V17.2916H62.7853V19.3338Z" fill="#BBC3CF"/>
<path d="M83.5516 24.3607C83.5516 24.5876 83.5341 24.9106 83.4992 25.3295H72.529C72.721 26.3593 73.2185 27.1796 74.0214 27.7906C74.8418 28.384 75.8541 28.6807 77.0585 28.6807C78.5945 28.6807 79.8599 28.1746 80.8548 27.1622L82.609 29.1782C81.9807 29.9287 81.1865 30.496 80.2265 30.88C79.2665 31.264 78.1843 31.456 76.9799 31.456C75.4439 31.456 74.0912 31.1506 72.9218 30.5396C71.7523 29.9287 70.8447 29.0822 70.1988 28C69.5705 26.9004 69.2563 25.6611 69.2563 24.2822C69.2563 22.9207 69.5618 21.6989 70.1727 20.6167C70.801 19.5171 71.665 18.6618 72.7647 18.0509C73.8643 17.44 75.1036 17.1346 76.4825 17.1346C77.8439 17.1346 79.057 17.44 80.1218 18.0509C81.2039 18.6444 82.0418 19.4909 82.6352 20.5906C83.2461 21.6727 83.5516 22.9295 83.5516 24.3607ZM76.4825 19.7527C75.4352 19.7527 74.545 20.0669 73.8119 20.6953C73.0963 21.3062 72.6599 22.1266 72.5028 23.1564H80.4359C80.2963 22.144 79.8687 21.3236 79.153 20.6953C78.4374 20.0669 77.5472 19.7527 76.4825 19.7527Z" fill="#BBC3CF"/>
<path d="M91.0152 31.456C89.8807 31.456 88.7723 31.3076 87.6901 31.0109C86.608 30.7142 85.744 30.3389 85.0981 29.8851L86.3549 27.3978C86.9832 27.8167 87.7338 28.1571 88.6065 28.4189C89.4967 28.6633 90.3694 28.7855 91.2247 28.7855C93.1796 28.7855 94.1571 28.2706 94.1571 27.2407C94.1571 26.752 93.904 26.4116 93.3978 26.2196C92.909 26.0276 92.1149 25.8444 91.0152 25.6698C89.8632 25.4953 88.9207 25.2946 88.1876 25.0676C87.472 24.8407 86.8436 24.448 86.3025 23.8895C85.7789 23.3135 85.517 22.5193 85.517 21.5069C85.517 20.1804 86.0669 19.1244 87.1665 18.3389C88.2836 17.536 89.7847 17.1346 91.6698 17.1346C92.6298 17.1346 93.5898 17.248 94.5498 17.4749C95.5098 17.6844 96.2952 17.9724 96.9061 18.3389L95.6494 20.8262C94.4625 20.128 93.1272 19.7789 91.6436 19.7789C90.6836 19.7789 89.9505 19.9273 89.4443 20.224C88.9556 20.5033 88.7112 20.8786 88.7112 21.3498C88.7112 21.8735 88.9731 22.2487 89.4967 22.4756C90.0378 22.6851 90.8669 22.8858 91.984 23.0778C93.1011 23.2524 94.0174 23.4531 94.7331 23.68C95.4487 23.9069 96.0596 24.2909 96.5658 24.832C97.0894 25.3731 97.3512 26.1411 97.3512 27.136C97.3512 28.4451 96.784 29.4924 95.6494 30.2778C94.5149 31.0633 92.9701 31.456 91.0152 31.456Z" fill="#BBC3CF"/>
<path d="M113.313 24.3607C113.313 24.5876 113.295 24.9106 113.261 25.3295H102.29C102.482 26.3593 102.98 27.1796 103.783 27.7906C104.603 28.384 105.615 28.6807 106.82 28.6807C108.356 28.6807 109.621 28.1746 110.616 27.1622L112.37 29.1782C111.742 29.9287 110.948 30.496 109.988 30.88C109.028 31.264 107.946 31.456 106.741 31.456C105.205 31.456 103.853 31.1506 102.683 30.5396C101.514 29.9287 100.606 29.0822 99.9602 28C99.3318 26.9004 99.0177 25.6611 99.0177 24.2822C99.0177 22.9207 99.3231 21.6989 99.934 20.6167C100.562 19.5171 101.426 18.6618 102.526 18.0509C103.626 17.44 104.865 17.1346 106.244 17.1346C107.605 17.1346 108.818 17.44 109.883 18.0509C110.965 18.6444 111.803 19.4909 112.397 20.5906C113.007 21.6727 113.313 22.9295 113.313 24.3607ZM106.244 19.7527C105.197 19.7527 104.306 20.0669 103.573 20.6953C102.858 21.3062 102.421 22.1266 102.264 23.1564H110.197C110.058 22.144 109.63 21.3236 108.914 20.6953C108.199 20.0669 107.309 19.7527 106.244 19.7527Z" fill="#BBC3CF"/>
<path d="M122.871 31.456C121.422 31.456 120.122 31.1506 118.97 30.5396C117.818 29.9287 116.919 29.0822 116.273 28C115.628 26.9004 115.305 25.6611 115.305 24.2822C115.305 22.9033 115.628 21.6727 116.273 20.5906C116.919 19.5084 117.809 18.6618 118.944 18.0509C120.096 17.44 121.405 17.1346 122.871 17.1346C124.25 17.1346 125.454 17.4138 126.484 17.9724C127.532 18.5309 128.317 19.3338 128.841 20.3811L126.327 21.8473C125.926 21.2015 125.42 20.7215 124.809 20.4073C124.215 20.0756 123.561 19.9098 122.845 19.9098C121.623 19.9098 120.611 20.3113 119.808 21.1142C119.005 21.8996 118.604 22.9556 118.604 24.2822C118.604 25.6087 118.996 26.6735 119.782 27.4764C120.585 28.2618 121.606 28.6546 122.845 28.6546C123.561 28.6546 124.215 28.4975 124.809 28.1833C125.42 27.8516 125.926 27.3629 126.327 26.7171L128.841 28.1833C128.3 29.2306 127.505 30.0422 126.458 30.6182C125.428 31.1767 124.233 31.456 122.871 31.456Z" fill="#BBC3CF"/>
<path d="M145.206 17.2916V31.2727H142.09V29.4924C141.566 30.1207 140.912 30.6095 140.126 30.9586C139.341 31.2902 138.494 31.456 137.587 31.456C135.719 31.456 134.244 30.9411 133.162 29.9113C132.097 28.864 131.565 27.3193 131.565 25.2771V17.2916H134.838V24.832C134.838 26.0887 135.117 27.0313 135.675 27.6596C136.251 28.2706 137.063 28.576 138.11 28.576C139.28 28.576 140.205 28.2182 140.886 27.5026C141.584 26.7695 141.933 25.7222 141.933 24.3607V17.2916H145.206Z" fill="#BBC3CF"/>
<path d="M152.606 19.3338C153.549 17.8676 155.207 17.1346 157.581 17.1346V20.2502C157.302 20.1978 157.049 20.1716 156.822 20.1716C155.547 20.1716 154.553 20.5469 153.837 21.2975C153.121 22.0306 152.763 23.0953 152.763 24.4916V31.2727H149.491V17.2916H152.606V19.3338Z" fill="#BBC3CF"/>
<path d="M168.107 17.1346C169.468 17.1346 170.682 17.4313 171.746 18.0247C172.828 18.6182 173.675 19.456 174.286 20.5382C174.897 21.6204 175.202 22.8684 175.202 24.2822C175.202 25.696 174.897 26.9527 174.286 28.0524C173.675 29.1346 172.828 29.9724 171.746 30.5658C170.682 31.1593 169.468 31.456 168.107 31.456C167.147 31.456 166.266 31.2902 165.463 30.9586C164.677 30.6269 164.014 30.1295 163.473 29.4662V31.2727H160.357V11.8458H163.63V18.9935C164.188 18.3826 164.843 17.92 165.594 17.6058C166.362 17.2916 167.199 17.1346 168.107 17.1346ZM167.74 28.6546C168.945 28.6546 169.931 28.2531 170.699 27.4502C171.484 26.6473 171.877 25.5913 171.877 24.2822C171.877 22.9731 171.484 21.9171 170.699 21.1142C169.931 20.3113 168.945 19.9098 167.74 19.9098C166.955 19.9098 166.248 20.0931 165.62 20.4596C164.991 20.8087 164.494 21.3149 164.127 21.9782C163.761 22.6415 163.578 23.4095 163.578 24.2822C163.578 25.1549 163.761 25.9229 164.127 26.5862C164.494 27.2495 164.991 27.7644 165.62 28.1309C166.248 28.48 166.955 28.6546 167.74 28.6546Z" fill="#BBC3CF"/>
<defs>
<clipPath id="clip0_1_1266">
<rect width="48" height="43.6364" fill="white" transform="translate(0.795471 0.181763)"/>
</clipPath>
</defs>
</svg>
