<svg width="186" height="44" viewBox="0 0 186 44" fill="none" xmlns="http://www.w3.org/2000/svg">
<g clip-path="url(#clip0_1_1267)">
<path fill-rule="evenodd" clip-rule="evenodd" d="M4.92036 41.0302L8.74682 38.8363L10.2831 37.9548L11.7914 37.0852L14.158 35.729L17.9165 33.5829L21.6789 35.729L24.0415 37.0852L25.5496 37.9548L27.09 38.8363L30.8364 40.9983L31.9755 41.6445L33.0866 42.2788L35.3409 43.5712V22.8048L30.8364 20.216V35.8566L27.7879 34.1015L23.2953 31.5326L21.5825 30.5354L20.1708 29.7376V3.94913H15.6661V30.3519L12.5374 32.1509L8.04898 34.7397L4.92036 36.5227V20.2479L0.431702 22.8207V43.6031L2.66996 42.3107L3.7932 41.6764L4.92036 41.0302ZM27.7839 30.5194V-0.709961H23.2914V27.9506L27.7839 30.5194ZM12.5416 28.5489V8.60424H8.0529V31.1377L12.5416 28.5489Z" fill="#BBC3CF"/>
</g>
<path d="M54.3729 31.2727H58.2965L61.9132 18.8233H62.062L65.688 31.2727H69.6116L75.0599 12.2314H70.6622L67.5103 25.4897H67.343L63.875 12.2314H60.1095L56.6322 25.4618H56.4742L53.3223 12.2314H48.9246L54.3729 31.2727Z" fill="#BBC3CF"/>
<path d="M77.2146 31.2727H90.0824V27.9535H81.2404V23.407H89.3851V20.0878H81.2404V15.5506H90.0452V12.2314H77.2146V31.2727Z" fill="#BBC3CF"/>
<path d="M93.2459 31.2727H105.435V27.9535H97.2717V12.2314H93.2459V31.2727Z" fill="#BBC3CF"/>
<path d="M104.556 12.2314L111.502 24.5413V31.2727H115.499V24.5413L122.445 12.2314H117.935L113.593 20.4318H113.408L109.066 12.2314H104.556Z" fill="#BBC3CF"/>
<path d="M125.12 15.5506H130.95V31.2727H134.929V15.5506H140.759V12.2314H125.12V15.5506Z" fill="#BBC3CF"/>
<path d="M147.36 12.2314H143.334V31.2727H147.36V12.2314Z" fill="#BBC3CF"/>
<path d="M167.473 18.8977C166.943 14.5 163.614 11.9711 159.207 11.9711C154.177 11.9711 150.337 15.5227 150.337 21.7521C150.337 27.9628 154.112 31.5331 159.207 31.5331C164.088 31.5331 167.036 28.2882 167.473 24.7831L163.4 24.7645C163.019 26.8006 161.42 27.9721 159.272 27.9721C156.381 27.9721 154.419 25.8244 154.419 21.7521C154.419 17.7913 156.353 15.532 159.3 15.532C161.504 15.532 163.093 16.8058 163.4 18.8977H167.473Z" fill="#BBC3CF"/>
<path d="M180.689 17.7076H184.548C184.492 14.314 181.702 11.9711 177.463 11.9711C173.288 11.9711 170.229 14.2769 170.248 17.7355C170.239 20.5434 172.219 22.1519 175.436 22.9235L177.509 23.4442C179.583 23.9463 180.736 24.5413 180.745 25.8244C180.736 27.219 179.415 28.1674 177.37 28.1674C175.278 28.1674 173.772 27.2004 173.642 25.2944H169.746C169.848 29.4132 172.795 31.5424 177.416 31.5424C182.065 31.5424 184.799 29.3202 184.808 25.8337C184.799 22.6632 182.409 20.9804 179.099 20.2366L177.388 19.8275C175.733 19.4463 174.348 18.8326 174.376 17.4659C174.376 16.2386 175.464 15.3368 177.435 15.3368C179.36 15.3368 180.54 16.2107 180.689 17.7076Z" fill="#BBC3CF"/>
<defs>
<clipPath id="clip0_1_1267">
<rect width="34.9091" height="43.6364" fill="white" transform="translate(0.431824 0.181763)"/>
</clipPath>
</defs>
</svg>
