<svg width="184" height="48" viewBox="0 0 184 48" fill="none" xmlns="http://www.w3.org/2000/svg">
<g clip-path="url(#clip0_2_1599)">
<path fill-rule="evenodd" clip-rule="evenodd" d="M26.8228 47.0853C32.0176 46.4788 36.8558 44.1369 40.5541 40.4386C44.2524 36.7403 46.5943 31.9021 47.2008 26.7073H38.47C37.9193 29.5903 36.514 32.2411 34.4369 34.3149C32.3597 36.3887 29.7067 37.7896 26.8228 38.3356V47.0853Z" fill="#BBC3CF"/>
<path fill-rule="evenodd" clip-rule="evenodd" d="M34.5781 3.24608L34.6331 3.21011C40.2825 -0.0359779 44.8505 -0.990521 46.9773 1.13818C52.9941 7.1531 36.0269 25.8626 31.0006 30.8889C27.9779 33.9205 24.7746 36.7665 21.4082 39.4113V47.0796C18.7017 46.7723 16.072 45.9834 13.6434 44.7501L13.5884 44.7861C7.93902 48.0322 3.37298 48.9867 1.24427 46.8693C-1.67228 43.9528 1.7404 37.239 3.35397 34.4683C2.12834 32.0366 1.33988 29.4083 1.02455 26.7035H9.77415C10.1568 28.7342 10.9661 30.6607 12.1486 32.3554C13.3311 34.0501 14.8598 35.4746 16.6338 36.5345C15.6243 37.2675 14.5978 37.9644 13.5335 38.6178C11.9748 39.6083 10.3613 40.5438 8.69092 41.3866C7.38363 40.2289 6.21434 38.9243 5.20622 37.4985C3.44493 40.8923 2.85784 43.3865 3.79341 44.3164C7.81029 48.2935 25.8777 31.6976 28.8492 28.7261C32.0128 25.5667 34.9719 22.2091 37.7087 18.6735C36.8069 16.3688 35.3337 14.3313 33.4278 12.7527C31.5218 11.174 29.2456 10.1061 26.8133 9.64925V0.899554C29.5203 1.20412 32.1505 1.99317 34.5781 3.22902V3.24608ZM43.0153 10.492C44.7766 7.0982 45.3637 4.60398 44.4281 3.67409C43.4925 2.74421 41.0192 3.34457 37.6235 5.10587C39.711 6.58735 41.5338 8.41016 43.0153 10.4977V10.492Z" fill="#BBC3CF"/>
<path fill-rule="evenodd" clip-rule="evenodd" d="M21.412 0.916748C16.217 1.52365 11.3788 3.86597 7.68056 7.56456C3.98231 11.2631 1.64041 16.1016 1.034 21.2966H9.78369C10.3269 18.4133 11.7273 15.7608 13.8019 13.6859C15.8764 11.611 18.5287 10.2101 21.412 9.66639V0.916748Z" fill="#BBC3CF"/>
</g>
<path d="M87.7272 29.5568C87.7272 30.5682 87.534 31.5228 87.1477 32.4205C86.7727 33.3068 86.25 34.0853 85.5795 34.7557C84.9204 35.4148 84.142 35.9375 83.2443 36.3239C82.3579 36.6989 81.409 36.8864 80.3977 36.8864C79.4886 36.8864 78.6136 36.7273 77.7727 36.4091C76.9431 36.0909 76.1931 35.625 75.5227 35.0114C74.8522 35.625 74.0965 36.0909 73.2556 36.4091C72.4147 36.7273 71.5397 36.8864 70.6306 36.8864C69.6193 36.8864 68.6647 36.6989 67.767 36.3239C66.8806 35.9375 66.1022 35.4148 65.4318 34.7557C64.7727 34.0853 64.25 33.3068 63.8636 32.4205C63.4886 31.5228 63.3011 30.5682 63.3011 29.5568V12.1023H68.1931V29.5568C68.1931 29.8978 68.2556 30.2216 68.3806 30.5284C68.5056 30.8239 68.6761 31.0853 68.892 31.3125C69.1193 31.5284 69.3806 31.6989 69.6761 31.8239C69.9715 31.9489 70.2897 32.0114 70.6306 32.0114C70.9715 32.0114 71.2897 31.9489 71.5852 31.8239C71.8806 31.6989 72.1363 31.5284 72.3522 31.3125C72.5795 31.0853 72.7556 30.8239 72.8806 30.5284C73.0056 30.2216 73.0681 29.8978 73.0681 29.5568V12.1023H77.9602V29.5568C77.9602 29.8978 78.0227 30.2216 78.1477 30.5284C78.2727 30.8239 78.4431 31.0853 78.659 31.3125C78.8863 31.5284 79.1477 31.6989 79.4431 31.8239C79.7386 31.9489 80.0568 32.0114 80.3977 32.0114C80.7386 32.0114 81.0568 31.9489 81.3522 31.8239C81.6477 31.6989 81.9034 31.5284 82.1193 31.3125C82.3465 31.0853 82.5227 30.8239 82.6477 30.5284C82.784 30.2216 82.8522 29.8978 82.8522 29.5568V12.1023H87.7272V29.5568Z" fill="#BBC3CF"/>
<path d="M97.1022 13.3296C97.1022 13.7614 97.017 14.1648 96.8465 14.5398C96.6875 14.9148 96.4659 15.2443 96.1818 15.5284C95.8977 15.8012 95.5625 16.0227 95.1761 16.1932C94.8011 16.3523 94.3977 16.4318 93.9659 16.4318C93.534 16.4318 93.125 16.3523 92.7386 16.1932C92.3636 16.0227 92.034 15.8012 91.75 15.5284C91.4772 15.2443 91.2556 14.9148 91.0852 14.5398C90.9261 14.1648 90.8465 13.7614 90.8465 13.3296C90.8465 12.9091 90.9261 12.5114 91.0852 12.1364C91.2556 11.75 91.4772 11.4205 91.75 11.1477C92.034 10.8637 92.3636 10.6421 92.7386 10.483C93.125 10.3125 93.534 10.2273 93.9659 10.2273C94.3977 10.2273 94.8011 10.3125 95.1761 10.483C95.5625 10.6421 95.8977 10.8637 96.1818 11.1477C96.4659 11.4205 96.6875 11.75 96.8465 12.1364C97.017 12.5114 97.1022 12.9091 97.1022 13.3296ZM96.3011 36.5455H91.6136V18.2898H96.3011V36.5455Z" fill="#BBC3CF"/>
<path d="M109.886 36.5455H99.25V31.9091H109.886C110.204 31.9091 110.477 31.7955 110.704 31.5682C110.932 31.3409 111.045 31.0682 111.045 30.75C111.045 30.4205 110.932 30.2046 110.704 30.1023C110.477 30 110.204 29.9489 109.886 29.9489H105.045C104.239 29.9489 103.483 29.7955 102.778 29.4887C102.074 29.1818 101.46 28.7671 100.937 28.2443C100.415 27.7103 100 27.0909 99.6931 26.3864C99.3977 25.6818 99.25 24.9262 99.25 24.1193C99.25 23.3125 99.3977 22.5568 99.6931 21.8523C100 21.1477 100.415 20.5341 100.937 20.0114C101.46 19.4887 102.074 19.0796 102.778 18.7841C103.483 18.4773 104.239 18.3239 105.045 18.3239H114.472V22.9602H105.045C104.727 22.9602 104.454 23.0739 104.227 23.3012C104 23.5284 103.886 23.8012 103.886 24.1193C103.886 24.4489 104 24.733 104.227 24.9716C104.454 25.1989 104.727 25.3125 105.045 25.3125H109.886C110.682 25.3125 111.432 25.4489 112.136 25.7216C112.841 25.983 113.454 26.3523 113.977 26.8296C114.5 27.3068 114.915 27.8807 115.222 28.5512C115.528 29.2216 115.682 29.9546 115.682 30.75C115.682 31.5568 115.528 32.3125 115.222 33.0171C114.915 33.7103 114.5 34.3239 113.977 34.858C113.454 35.3807 112.841 35.7955 112.136 36.1023C111.432 36.3978 110.682 36.5455 109.886 36.5455Z" fill="#BBC3CF"/>
<path d="M122.824 36.5455H118.17V11.0284H122.824V19.0909C123.381 18.6705 123.954 18.375 124.545 18.2046C125.136 18.0227 125.739 17.9318 126.352 17.9318C127.477 17.9318 128.534 18.1477 129.523 18.5796C130.511 19 131.369 19.5852 132.097 20.3352C132.835 21.0739 133.415 21.9432 133.835 22.9432C134.267 23.9318 134.483 24.9887 134.483 26.1137V36.5455H129.795V26.1137H129.829C129.829 25.6364 129.739 25.1875 129.557 24.7671C129.375 24.3352 129.125 23.9602 128.807 23.6421C128.489 23.3239 128.119 23.0739 127.699 22.8921C127.278 22.7102 126.829 22.6193 126.352 22.6193C125.864 22.6193 125.403 22.7102 124.972 22.8921C124.54 23.0739 124.165 23.3239 123.847 23.6421C123.528 23.9602 123.278 24.3352 123.097 24.7671C122.915 25.1875 122.824 25.6364 122.824 26.1137V36.5455Z" fill="#BBC3CF"/>
<path d="M145.068 32.0796C145.25 32.1364 145.432 32.1762 145.614 32.1989C145.795 32.2103 145.977 32.2159 146.159 32.2159C146.614 32.2159 147.051 32.1534 147.472 32.0284C147.892 31.9034 148.284 31.7273 148.648 31.5C149.023 31.2614 149.352 30.9773 149.636 30.6478C149.932 30.3068 150.17 29.9318 150.352 29.5228L153.761 32.9489C153.329 33.5625 152.829 34.1137 152.261 34.6023C151.704 35.0909 151.097 35.5057 150.437 35.8466C149.79 36.1875 149.102 36.4432 148.375 36.6137C147.659 36.7955 146.92 36.8864 146.159 36.8864C144.875 36.8864 143.665 36.6478 142.528 36.1705C141.403 35.6932 140.415 35.0284 139.562 34.1762C138.722 33.3239 138.057 32.3125 137.568 31.1421C137.079 29.9603 136.835 28.6648 136.835 27.2557C136.835 25.8125 137.079 24.4943 137.568 23.3012C138.057 22.108 138.722 21.0909 139.562 20.25C140.415 19.4091 141.403 18.7557 142.528 18.2898C143.665 17.8239 144.875 17.5909 146.159 17.5909C146.92 17.5909 147.665 17.6818 148.392 17.8637C149.119 18.0455 149.807 18.3068 150.454 18.6477C151.114 18.9887 151.727 19.4091 152.295 19.9091C152.864 20.3977 153.364 20.9489 153.795 21.5625L145.068 32.0796ZM147.454 22.483C147.239 22.4034 147.023 22.3523 146.807 22.3296C146.602 22.3068 146.386 22.2955 146.159 22.2955C145.523 22.2955 144.92 22.4148 144.352 22.6534C143.795 22.8807 143.307 23.2102 142.886 23.6421C142.477 24.0739 142.153 24.5966 141.915 25.2102C141.676 25.8125 141.557 26.4943 141.557 27.2557C141.557 27.4262 141.562 27.6193 141.574 27.8353C141.597 28.0512 141.625 28.2728 141.659 28.5C141.704 28.7159 141.756 28.9262 141.812 29.1307C141.869 29.3353 141.943 29.5171 142.034 29.6762L147.454 22.483Z" fill="#BBC3CF"/>
<path d="M160.835 36.5455H156.148V11.0284H160.835V36.5455Z" fill="#BBC3CF"/>
<path d="M169.085 43.5H164.398V18.2898H165.523L167.381 20.4887C167.801 20.0909 168.261 19.7159 168.761 19.3637C169.261 19.0114 169.778 18.7102 170.312 18.4602C170.858 18.1989 171.42 17.9943 172 17.8466C172.579 17.6989 173.165 17.625 173.756 17.625C175.04 17.625 176.244 17.858 177.369 18.3239C178.506 18.7784 179.494 19.4262 180.335 20.2671C181.187 21.108 181.858 22.125 182.347 23.3182C182.835 24.5 183.079 25.8125 183.079 27.2557C183.079 28.7557 182.835 30.108 182.347 31.3125C181.858 32.5057 181.187 33.5228 180.335 34.3637C179.494 35.1932 178.506 35.8296 177.369 36.2728C176.244 36.7159 175.04 36.9375 173.756 36.9375C173.347 36.9375 172.937 36.8921 172.528 36.8012C172.131 36.7103 171.733 36.5909 171.335 36.4432C170.949 36.2841 170.562 36.108 170.176 35.9148C169.801 35.7216 169.437 35.5228 169.085 35.3182V43.5ZM178.409 27.2557C178.409 26.483 178.284 25.7898 178.034 25.1762C177.795 24.5625 177.466 24.0455 177.045 23.625C176.625 23.1932 176.131 22.8637 175.562 22.6364C174.994 22.4091 174.392 22.2955 173.756 22.2955C173.119 22.2955 172.517 22.4091 171.949 22.6364C171.392 22.8637 170.903 23.1932 170.483 23.625C170.062 24.0455 169.727 24.5625 169.477 25.1762C169.239 25.7898 169.119 26.483 169.119 27.2557C169.119 27.9943 169.239 28.6705 169.477 29.2841C169.727 29.8978 170.062 30.4205 170.483 30.8523C170.903 31.2841 171.392 31.6193 171.949 31.858C172.517 32.0966 173.119 32.2159 173.756 32.2159C174.392 32.2159 174.994 32.0966 175.562 31.858C176.131 31.6193 176.625 31.2841 177.045 30.8523C177.466 30.4205 177.795 29.8978 178.034 29.2841C178.284 28.6705 178.409 27.9943 178.409 27.2557Z" fill="#BBC3CF"/>
<defs>
<clipPath id="clip0_2_1599">
<rect width="48.142" height="48" fill="white" transform="translate(0.113586)"/>
</clipPath>
</defs>
</svg>
