<svg width="184" height="48" viewBox="0 0 184 48" fill="none" xmlns="http://www.w3.org/2000/svg">
<path d="M75.1341 29.1708C75.1341 31.4515 74.5988 33.1272 73.5283 34.1977C72.4577 35.2682 70.8054 35.8035 68.5712 35.8035C66.3603 35.8035 64.0097 35.6872 61.5196 35.4544V30.7417C63.3348 30.8581 65.1967 30.9163 67.105 30.9163C67.6403 30.9163 68.0592 30.765 68.3617 30.4624C68.6876 30.1366 68.8505 29.7061 68.8505 29.1708V15.9053H64.3123V11.0181H75.1341V29.1708Z" fill="#BBC3CF"/>
<path d="M90.8418 35.4544H78.2746V30.5672H81.4164V15.9053H78.2746V11.0181H90.8418V15.9053H87.7V30.5672H90.8418V35.4544Z" fill="#BBC3CF"/>
<path d="M114.926 34.9308C109.481 35.5126 104.477 35.8035 99.9155 35.8035C97.6347 35.8035 95.9591 35.2682 94.8886 34.1977C93.818 33.1272 93.2827 31.4515 93.2827 29.1708V17.9999C93.2827 15.5562 93.8297 13.7875 94.9235 12.6937C96.0406 11.5766 97.8209 11.0181 100.265 11.0181H112.832V15.9053H101.661C100.265 15.9053 99.5664 16.6035 99.5664 17.9999V29.1708C99.5664 29.7061 99.7177 30.1366 100.02 30.4624C100.346 30.765 100.777 30.9163 101.312 30.9163C103.988 30.9163 106.432 30.8581 108.643 30.7417V25.6799H104.105V21.4908H114.926V34.9308Z" fill="#BBC3CF"/>
<path d="M139.37 34.9308C133.924 35.5126 128.92 35.8035 124.359 35.8035C122.078 35.8035 120.402 35.2682 119.332 34.1977C118.261 33.1272 117.726 31.4515 117.726 29.1708V17.9999C117.726 15.5562 118.273 13.7875 119.367 12.6937C120.484 11.5766 122.264 11.0181 124.708 11.0181H137.275V15.9053H126.104C124.708 15.9053 124.01 16.6035 124.01 17.9999V29.1708C124.01 29.7061 124.161 30.1366 124.463 30.4624C124.789 30.765 125.22 30.9163 125.755 30.9163C128.431 30.9163 130.875 30.8581 133.086 30.7417V25.6799H128.548V21.4908H139.37V34.9308Z" fill="#BBC3CF"/>
<path d="M149.151 30.5672H161.893V35.4544H142.867V11.0181H149.151V30.5672Z" fill="#BBC3CF"/>
<path d="M183.719 35.4544H164.345V11.0181H183.719V15.9053H170.628V20.6181H180.926V25.5053H170.628V30.5672H183.719V35.4544Z" fill="#BBC3CF"/>
<g clip-path="url(#clip0_2_1597)">
<path fill-rule="evenodd" clip-rule="evenodd" d="M2.73564 8.33013C3.44429 8.3332 4.123 8.61609 4.6241 9.11719C5.12519 9.61828 5.4081 10.297 5.41117 11.0057C5.42994 11.7005 5.71918 12.3605 6.21725 12.8453C6.71532 13.3301 7.38291 13.6014 8.07796 13.6014C8.77302 13.6014 9.44061 13.3301 9.93867 12.8453C10.4367 12.3605 10.726 11.7005 10.7448 11.0057V2.67553C10.7478 1.96688 11.0306 1.28812 11.5317 0.78703C12.0328 0.285935 12.7116 0.00307222 13.4203 0C14.1262 0.00665222 14.801 0.291222 15.2986 0.792042C15.7961 1.29286 16.0762 1.96958 16.0782 2.67553V20.1647C16.0686 20.521 16.1305 20.8756 16.2602 21.2076C16.3899 21.5395 16.5848 21.8421 16.8334 22.0975C17.082 22.3529 17.3792 22.5559 17.7075 22.6945C18.0358 22.8331 18.3886 22.9045 18.745 22.9045C19.1014 22.9045 19.4542 22.8331 19.7826 22.6945C20.1109 22.5559 20.4082 22.3529 20.6568 22.0975C20.9053 21.8421 21.1002 21.5395 21.2299 21.2076C21.3596 20.8756 21.4214 20.521 21.4118 20.1647V11.0057C21.4149 10.297 21.6978 9.61828 22.1989 9.11719C22.7 8.61609 23.3787 8.3332 24.0874 8.33013C24.7933 8.33678 25.4681 8.62138 25.9656 9.1222C26.4632 9.62302 26.7434 10.2997 26.7454 11.0057V20.1647C26.7454 20.8718 27.0263 21.5498 27.5262 22.0498C28.0261 22.5497 28.7041 22.8305 29.4111 22.8305C30.1182 22.8305 30.7962 22.5497 31.2962 22.0498C31.7961 21.5498 32.077 20.8718 32.077 20.1647V2.67553C32.0801 1.96655 32.3632 1.28749 32.8647 0.786341C33.3662 0.285191 34.0454 0.00256028 34.7544 0C35.4611 0.00360393 36.1376 0.287251 36.6355 0.788788C37.1334 1.29032 37.4121 1.96883 37.4106 2.67553V11.0057C37.4293 11.7005 37.7185 12.3605 38.2165 12.8453C38.7146 13.3301 39.3822 13.6014 40.0773 13.6014C40.7723 13.6014 41.44 13.3301 41.9381 12.8453C42.4361 12.3605 42.7253 11.7005 42.7441 11.0057C42.7471 10.2967 43.0303 9.61765 43.5318 9.1165C44.0333 8.61535 44.7126 8.33269 45.4216 8.33013C46.1283 8.33374 46.8047 8.61741 47.3026 9.11894C47.8005 9.62048 48.0792 10.299 48.0776 11.0057V37.0138C48.0751 37.7174 47.7944 38.3915 47.2968 38.8891C46.7993 39.3866 46.1252 39.6673 45.4216 39.6699C44.7156 39.6684 44.0387 39.3887 43.5375 38.8915C43.0363 38.3944 42.7512 37.7197 42.7441 37.0138C42.7537 36.6575 42.6919 36.3029 42.5622 35.971C42.4325 35.639 42.2376 35.3364 41.989 35.081C41.7404 34.8256 41.4431 34.6226 41.1148 34.484C40.7864 34.3454 40.4337 34.274 40.0773 34.274C39.7209 34.274 39.3682 34.3454 39.0398 34.484C38.7115 34.6226 38.4142 34.8256 38.1656 35.081C37.917 35.3364 37.7221 35.639 37.5924 35.971C37.4627 36.3029 37.4009 36.6575 37.4106 37.0138V45.3342C37.4111 45.6832 37.3427 46.0289 37.2094 46.3515C37.0762 46.6741 36.8806 46.9673 36.6338 47.2141C36.3871 47.461 36.0941 47.6569 35.7716 47.7904C35.4491 47.9239 35.1035 47.9925 34.7544 47.9922C34.0475 47.9933 33.3691 47.7141 32.8676 47.2159C32.3661 46.7177 32.0825 46.0411 32.0789 45.3342V27.8216C32.0789 27.1146 31.7981 26.4366 31.2982 25.9366C30.7982 25.4367 30.1202 25.1558 29.4131 25.1558C28.7061 25.1558 28.028 25.4367 27.5281 25.9366C27.0282 26.4366 26.7473 27.1146 26.7473 27.8216V37.0002C26.7412 37.703 26.4591 38.3754 25.9619 38.8722C25.4647 39.3691 24.7922 39.6506 24.0893 39.6562C23.3837 39.6542 22.7073 39.3743 22.2065 38.8772C21.7057 38.3801 21.421 37.7057 21.4138 37.0002V27.8216C21.395 27.1268 21.1058 26.4668 20.6077 25.982C20.1097 25.4972 19.4421 25.2259 18.747 25.2259C18.052 25.2259 17.3843 25.4972 16.8862 25.982C16.3881 26.4668 16.099 27.1268 16.0802 27.8216V45.3342C16.0782 46.0385 15.7975 46.7134 15.2994 47.2114C14.8014 47.7095 14.1265 47.9902 13.4222 47.9922C12.7151 47.9938 12.0364 47.7148 11.5348 47.2165C11.0332 46.7182 10.7497 46.0412 10.7467 45.3342V37.006C10.7563 36.6497 10.6944 36.2952 10.5647 35.9632C10.435 35.6312 10.2402 35.3286 9.9916 35.0732C9.74301 34.8178 9.44573 34.6148 9.11739 34.4762C8.78905 34.3376 8.43626 34.2662 8.07987 34.2662C7.72347 34.2662 7.37068 34.3376 7.04234 34.4762C6.714 34.6148 6.41681 34.8178 6.16823 35.0732C5.91964 35.3286 5.72471 35.6312 5.59502 35.9632C5.46533 36.2952 5.40345 36.6497 5.41307 37.006C5.40591 37.7116 5.12116 38.3859 4.62039 38.8831C4.11963 39.3802 3.44316 39.6601 2.73754 39.6621C2.03466 39.6565 1.36217 39.3749 0.864957 38.8781C0.367744 38.3812 0.0856932 37.7089 0.0795898 37.006V11.0057C0.0816062 10.2997 0.361715 9.62302 0.859256 9.1222C1.3568 8.62138 2.03162 8.33678 2.73754 8.33013H2.73564ZM10.7448 18.6762C10.7544 18.3199 10.6925 17.9653 10.5628 17.6334C10.4331 17.3014 10.2382 16.9988 9.9896 16.7434C9.74102 16.488 9.44383 16.285 9.11549 16.1464C8.78715 16.0078 8.43436 15.9364 8.07796 15.9364C7.72157 15.9364 7.36878 16.0078 7.04044 16.1464C6.7121 16.285 6.41482 16.488 6.16623 16.7434C5.91765 16.9988 5.72281 17.3014 5.59312 17.6334C5.46343 17.9653 5.40155 18.3199 5.41117 18.6762V29.3433C5.42994 30.0381 5.71918 30.6981 6.21725 31.1829C6.71532 31.6677 7.38291 31.939 8.07796 31.939C8.77302 31.939 9.44061 31.6677 9.93867 31.1829C10.4367 30.6981 10.726 30.0381 10.7448 29.3433V18.6762ZM37.4028 29.3433V18.6762C37.3932 18.3199 37.4549 17.9653 37.5846 17.6334C37.7143 17.3014 37.9092 16.9988 38.1578 16.7434C38.4064 16.488 38.7037 16.285 39.032 16.1464C39.3604 16.0078 39.7132 15.9364 40.0696 15.9364C40.426 15.9364 40.7787 16.0078 41.107 16.1464C41.4353 16.285 41.7326 16.488 41.9812 16.7434C42.2298 16.9988 42.4247 17.3014 42.5544 17.6334C42.6841 17.9653 42.7459 18.3199 42.7363 18.6762V29.3433C42.7175 30.0381 42.4283 30.6981 41.9303 31.1829C41.4322 31.6677 40.7646 31.939 40.0696 31.939C39.3745 31.939 38.7068 31.6677 38.2088 31.1829C37.7107 30.6981 37.4215 30.0381 37.4028 29.3433Z" fill="#BBC3CF"/>
</g>
<defs>
<clipPath id="clip0_2_1597">
<rect width="48" height="48" fill="white" transform="translate(0.0794983)"/>
</clipPath>
</defs>
</svg>
