<svg width="177" height="44" viewBox="0 0 177 44" fill="none" xmlns="http://www.w3.org/2000/svg">
<g clip-path="url(#clip0_2_1600)">
<path d="M40.1779 2.69803C40.4323 2.78762 40.654 2.95151 40.8143 3.16847C40.9745 3.38543 41.066 3.6455 41.0769 3.91503C41.2151 5.35437 41.274 6.80022 41.2534 8.24603C41.2382 8.9093 41.2229 9.57255 41.1788 10.2358C40.9293 10.1324 40.6936 10.0289 40.4426 9.93157C39.8097 9.68208 39.1906 9.44631 38.5562 9.2242C38.5714 8.88649 38.5867 8.56245 38.5867 8.22321C38.6004 7.14769 38.5714 6.05695 38.4832 4.95252C37.4518 4.6285 36.3763 4.33337 35.2886 4.06868C33.9195 3.74465 32.5503 3.47844 31.1629 3.28676C30.3825 3.18484 29.631 3.09508 28.91 3.02206C28.1889 2.94904 27.4207 2.90492 26.6403 2.86993C26.0318 2.85472 25.4613 2.84103 24.8437 2.84103L23.9446 2.85472C23.6784 2.85472 23.3696 2.86993 23.0456 2.86993C22.2652 2.90036 21.5137 2.95816 20.7759 3.02206C20.0381 3.08595 19.3033 3.18484 18.5229 3.28676C17.1538 3.47844 15.7679 3.74313 14.3972 4.06868C13.3065 4.33337 12.2462 4.6285 11.2026 4.95252C11.0231 7.37415 11.0874 9.80769 11.3943 12.2165C11.5572 13.564 11.7934 14.9016 12.1017 16.2235C12.2782 16.975 12.4851 17.7264 12.7102 18.4475L12.7254 18.5069L12.7391 18.5662L12.7543 18.6255L12.7832 18.6833L12.7984 18.7427L12.8136 18.802L12.8288 18.8613L12.8866 19.0226V19.0378L12.9018 19.0956L13.0053 19.3755L13.019 19.4348L13.1088 19.6706L13.1225 19.7147C13.5775 21.034 14.1041 22.3274 14.7 23.5894L14.7289 23.6335L14.7441 23.6791L14.7578 23.708L14.7882 23.7521L14.8019 23.7962L14.8172 23.8404L14.846 23.8693C15.0681 24.3256 15.3024 24.782 15.5397 25.2384C15.7162 25.5335 15.8774 25.8469 16.0402 26.1222C16.2318 26.462 16.4089 26.7566 16.5711 27.0061C17.0716 27.8169 17.601 28.6125 18.1623 29.3792C18.7237 30.1459 19.2957 30.8822 19.93 31.6185C20.1664 31.8984 20.4316 32.193 20.7257 32.5023C21.0056 32.8066 21.2703 33.1109 21.5213 33.371C22.1693 34.0343 22.8463 34.6686 23.5247 35.2862L23.8046 35.522C23.613 35.6742 23.4213 35.8263 23.216 35.9784C22.685 36.3755 22.1404 36.7588 21.5943 37.1422C18.6506 34.5033 16.1181 31.4391 14.0808 28.0512V28.036L14.0656 28.0223L14.0504 28.0071C13.9333 27.8154 13.8298 27.6237 13.7264 27.4625C13.5499 27.1384 13.3582 26.8129 13.197 26.5041C12.7102 25.6202 12.2675 24.7075 11.8416 23.7491C11.4156 22.7907 11.046 21.849 10.7067 20.9059C10.2328 19.5726 9.8296 18.2153 9.49879 16.8396C8.49793 12.6069 8.1994 8.23847 8.61501 3.90895C8.62747 3.63902 8.72129 3.37917 8.8842 3.16359C9.04711 2.948 9.27149 2.78676 9.52776 2.70107C10.9273 2.22949 12.3573 1.81723 13.8009 1.46277C15.2157 1.13875 16.673 0.854277 18.1623 0.63826C18.923 0.534815 19.7232 0.446584 20.5629 0.373564C21.3737 0.299022 22.1693 0.241214 22.9497 0.210789C23.2449 0.210789 23.5582 0.19558 23.8929 0.19558L24.8513 0.181885L25.8082 0.19558C26.1474 0.19558 26.4714 0.210789 26.7513 0.210789C27.5469 0.241214 28.3425 0.299022 29.1534 0.373564C29.9931 0.446584 30.7887 0.534815 31.5402 0.63826C33.0417 0.858841 34.5006 1.13875 35.9154 1.46277C37.3453 1.81723 38.7738 2.2234 40.1885 2.70107L40.1779 2.69803ZM31.5432 29.3808C32.0742 28.6293 32.6081 27.8595 33.0903 27.0669C33.2568 26.768 33.5298 26.5429 33.8549 26.4363C34.18 26.3297 34.5333 26.3496 34.8444 26.4919C37.4046 27.7156 39.7286 29.3816 41.7098 31.4131C41.9416 31.6268 42.0907 31.9153 42.131 32.228C42.1713 32.5406 42.1003 32.8575 41.9304 33.123C41.5181 33.7711 41.0618 34.448 40.6054 35.1113C40.149 35.7746 39.647 36.4226 39.1617 37.0418C38.8072 37.4981 38.4239 37.9697 38.0116 38.4413C37.6587 38.8536 37.2601 39.31 36.819 39.7968C36.1998 40.4752 35.602 41.0929 34.9935 41.6968H34.9782C34.3895 42.287 33.7613 42.8621 33.1071 43.4356C32.9142 43.6236 32.6693 43.7494 32.4041 43.7968C32.1389 43.8443 31.8655 43.8112 31.6193 43.7018C29.6801 42.8116 27.8129 41.772 26.0348 40.5924C26.2706 40.4159 26.5064 40.2394 26.7422 40.0478C27.2427 39.6492 27.7447 39.2522 28.2148 38.8308C29.4164 39.5945 30.6613 40.2878 31.9433 40.9073C32.3404 40.5391 32.7237 40.171 33.1223 39.7876C33.7399 39.1791 34.315 38.595 34.8459 38.0047C35.1988 37.6366 35.5669 37.1954 35.9807 36.7238C36.3337 36.2963 36.7018 35.8537 37.0563 35.3836C37.5416 34.7934 37.9842 34.1894 38.4117 33.5703C38.6475 33.266 38.8681 32.9222 39.0887 32.5982C38.4255 31.9624 37.7162 31.3767 36.9665 30.8457C36.2564 30.3308 35.5135 29.8628 34.7425 29.4446C34.4032 29.9603 34.0503 30.4624 33.6958 30.9476C33.0782 31.8026 32.4439 32.5982 31.7958 33.3649C31.5007 33.7026 31.2208 34.013 30.9561 34.3081C30.8374 34.4602 30.7051 34.588 30.5727 34.734L30.5575 34.7492L30.5438 34.7644L30.5286 34.7782L30.5134 34.7934L30.4997 34.8086L30.4845 34.8238L30.4692 34.8375L30.4403 34.8679V34.8816C29.0336 36.3634 27.5221 37.7421 25.9177 39.0072C23.4931 40.8689 20.8629 42.4461 18.0787 43.7079C17.8256 43.8214 17.5436 43.854 17.2714 43.8011C16.9991 43.7483 16.7497 43.6127 16.5575 43.4128C15.9079 42.8529 15.3039 42.2779 14.7 41.7029C14.0915 41.1142 13.4921 40.4859 12.8745 39.8028C12.4181 39.316 12.021 38.8597 11.6666 38.4474C11.2695 37.9758 10.8862 37.5042 10.5181 37.0478C10.0313 36.415 9.55969 35.7807 9.0881 35.1174C8.61651 34.4541 8.17535 33.7772 7.7631 33.1291C7.43755 32.6134 7.09978 32.0642 6.76054 31.4938C6.45629 30.9339 6.14139 30.3741 5.84779 29.8204C5.46596 29.113 5.11153 28.3904 4.7723 27.6694C4.43306 26.9483 4.13946 26.2242 3.83065 25.4727C3.27083 24.1035 2.78404 22.704 2.35657 21.274C1.9291 19.844 1.57617 18.4019 1.29169 16.943C1.23632 16.6743 1.26619 16.395 1.37719 16.1441C1.48819 15.8932 1.67473 15.6832 1.91082 15.5435C3.62613 14.3242 5.43377 13.2403 7.31734 12.3017C7.39036 13.0091 7.48009 13.7012 7.59723 14.3934C7.62613 14.6292 7.67025 14.865 7.71437 15.1008C6.46393 15.7548 5.25391 16.4832 4.09078 17.2823C4.32657 18.3867 4.60647 19.4622 4.91528 20.5088C5.31385 21.8643 5.78549 23.1893 6.3012 24.4641C6.58111 25.1562 6.87469 25.8484 7.19872 26.5406C7.52274 27.2327 7.84827 27.9097 8.2012 28.5593C8.48111 29.1054 8.77626 29.6242 9.07139 30.1505C9.36499 30.6373 9.67988 31.153 10.013 31.6976C10.4268 32.3457 10.839 32.98 11.2665 33.5687C11.694 34.1575 12.1504 34.7858 12.622 35.3821C12.9901 35.8521 13.3431 36.2948 13.7112 36.7223C14.1098 37.1939 14.4931 37.6351 14.8308 38.0032C15.3769 38.5934 15.9505 39.1822 16.5696 39.7861C16.953 40.1694 17.3515 40.5376 17.7334 40.892C19.9502 39.8257 22.0532 38.5372 24.01 37.0463C26.878 34.8715 29.4142 32.2907 31.5387 29.3853L31.5432 29.3808ZM47.7659 15.5374C48.0012 15.6786 48.1878 15.8883 48.3008 16.1383C48.4139 16.3884 48.4481 16.667 48.3987 16.9369C48.1036 18.3958 47.7506 19.8395 47.3232 21.2679C46.8957 22.6964 46.4104 24.0974 45.8643 25.4666C45.809 25.6032 45.729 25.7285 45.6285 25.8362C45.3974 26.1042 45.07 26.2704 44.7173 26.2989C44.3645 26.3274 44.0148 26.2158 43.7437 25.9884C42.7482 25.1218 41.6945 24.3243 40.5902 23.6015C39.505 22.8917 38.3725 22.2568 37.2008 21.7015C36.8934 21.5628 36.649 21.3143 36.5156 21.0047C36.3822 20.695 36.3694 20.3467 36.4797 20.0281C36.9204 18.7883 37.2891 17.524 37.5841 16.2417C37.7165 15.7412 37.8199 15.2392 37.9234 14.7205C38.2626 14.8528 38.5867 14.9867 38.9259 15.1327C39.4264 15.3548 39.9268 15.5891 40.4273 15.8264C40.3543 16.1793 40.2752 16.5186 40.1916 16.8578C39.9573 17.8451 39.6911 18.8354 39.3823 19.8045C40.295 20.2761 41.194 20.8055 42.0627 21.3653C42.7259 21.808 43.3892 22.278 44.0236 22.7648C44.2883 22.0285 44.5393 21.2771 44.7598 20.5119C45.0839 19.4652 45.3486 18.3821 45.5996 17.2853C43.6662 15.9633 41.6083 14.8332 39.4553 13.9112C38.1292 13.338 36.7716 12.8408 35.389 12.4219C34.1256 12.0403 32.8416 11.7305 31.5432 11.4939C30.6305 11.3326 29.6873 11.2003 28.7289 11.0969C27.7705 10.9934 26.8289 10.9341 25.8857 10.9052L25.3563 10.89H24.325L23.8092 10.9052C22.8661 10.9341 21.9076 10.9934 20.9645 11.0969C20.0213 11.2003 19.0645 11.3326 18.1365 11.4939C16.8541 11.7297 15.5731 12.0537 14.2907 12.4219C13.8039 12.574 13.3187 12.7261 12.8319 12.8935C12.7878 12.6135 12.7436 12.3488 12.7147 12.0689C12.6265 11.4361 12.5626 10.8169 12.5231 10.1826C16.4982 8.86833 20.6585 8.20063 24.8452 8.20495C30.024 8.21206 35.1523 9.22254 39.9467 11.1805C42.7117 12.3327 45.3365 13.7959 47.7704 15.5419L47.7659 15.5374ZM23.219 27.1917C22.9984 26.9118 22.8067 26.6608 22.6303 26.4402C21.2283 24.5209 20.0379 22.4557 19.0797 20.2806C18.9473 19.987 18.8135 19.6919 18.6963 19.3968C18.5792 19.1017 18.4894 18.8522 18.3921 18.5723C18.3499 18.475 18.3203 18.3728 18.3038 18.268C18.2724 18.0948 18.2759 17.917 18.3139 17.7451C18.3519 17.5731 18.4237 17.4105 18.5253 17.2666C18.6268 17.1228 18.756 17.0006 18.9052 16.9071C19.0545 16.8137 19.2208 16.7509 19.3946 16.7224C19.6745 16.6631 20.003 16.619 20.3377 16.5703L21.2946 16.4364C21.8848 16.3786 22.4736 16.3345 23.0775 16.2843C23.6814 16.2341 24.2945 16.2402 24.8467 16.2402C25.3989 16.2402 25.9952 16.2539 26.6281 16.2843C27.2366 16.3284 27.8223 16.3725 28.3974 16.4364L29.3541 16.5703C29.7086 16.6144 30.0175 16.6585 30.3126 16.7224C30.3878 16.7345 30.4616 16.7539 30.5331 16.7802C30.8665 16.9006 31.1389 17.1479 31.2908 17.4682C31.4427 17.7885 31.4618 18.1558 31.344 18.4901C31.2253 18.7944 31.1081 19.1077 30.9895 19.4029C30.8708 19.698 30.7537 19.9931 30.6214 20.2867C30.1427 21.3709 29.6065 22.4286 29.0149 23.4555C28.4206 24.4897 27.7664 25.4883 27.0556 26.4463C26.8345 26.7394 26.6433 26.9898 26.482 27.1978C26.231 27.502 26.0394 27.7576 25.8735 27.9341C25.8216 27.9999 25.7619 28.0592 25.6956 28.1105C25.5618 28.2232 25.4068 28.3082 25.2399 28.3604C25.0729 28.4126 24.8972 28.4311 24.723 28.4146C24.5488 28.3982 24.3796 28.3473 24.2254 28.2647C24.0711 28.1822 23.9348 28.0698 23.8245 27.9341C23.6039 27.683 23.4122 27.4472 23.216 27.1978L23.219 27.1917Z" fill="#BBC3CF"/>
</g>
<path d="M62.7089 19.3339C63.6515 17.8678 65.3097 17.1347 67.6835 17.1347V20.2503C67.4042 20.1979 67.1511 20.1718 66.9242 20.1718C65.65 20.1718 64.6551 20.547 63.9395 21.2976C63.2238 22.0307 62.866 23.0954 62.866 24.4918V31.2729H59.5933V17.2918H62.7089V19.3339Z" fill="#BBC3CF"/>
<path d="M83.4752 24.3609C83.4752 24.5878 83.4578 24.9107 83.4228 25.3296H72.4527C72.6447 26.3594 73.1421 27.1798 73.945 27.7907C74.7654 28.3841 75.7778 28.6809 76.9821 28.6809C78.5181 28.6809 79.7836 28.1747 80.7785 27.1623L82.5327 29.1783C81.9043 29.9289 81.1101 30.4961 80.1501 30.8801C79.1901 31.2641 78.1079 31.4561 76.9036 31.4561C75.3676 31.4561 74.0148 31.1507 72.8454 30.5398C71.6759 29.9289 70.7683 29.0823 70.1225 28.0001C69.4941 26.9005 69.1799 25.6612 69.1799 24.2823C69.1799 22.9209 69.4854 21.699 70.0963 20.6169C70.7247 19.5172 71.5887 18.6619 72.6883 18.051C73.7879 17.4401 75.0272 17.1347 76.4061 17.1347C77.7676 17.1347 78.9807 17.4401 80.0454 18.051C81.1276 18.6445 81.9654 19.491 82.5588 20.5907C83.1698 21.6729 83.4752 22.9296 83.4752 24.3609ZM76.4061 19.7529C75.3588 19.7529 74.4687 20.067 73.7356 20.6954C73.0199 21.3063 72.5836 22.1267 72.4265 23.1565H80.3596C80.2199 22.1441 79.7923 21.3238 79.0767 20.6954C78.361 20.067 77.4708 19.7529 76.4061 19.7529Z" fill="#BBC3CF"/>
<path d="M90.9389 31.4561C89.8043 31.4561 88.696 31.3078 87.6138 31.011C86.5316 30.7143 85.6676 30.339 85.0218 29.8852L86.2785 27.3979C86.9069 27.8169 87.6574 28.1572 88.5301 28.419C89.4203 28.6634 90.2931 28.7856 91.1483 28.7856C93.1032 28.7856 94.0807 28.2707 94.0807 27.2409C94.0807 26.7521 93.8276 26.4118 93.3214 26.2198C92.8327 26.0278 92.0385 25.8445 90.9389 25.6699C89.7869 25.4954 88.8443 25.2947 88.1112 25.0678C87.3956 24.8409 86.7672 24.4481 86.2261 23.8896C85.7025 23.3136 85.4407 22.5194 85.4407 21.507C85.4407 20.1805 85.9905 19.1245 87.0901 18.339C88.2072 17.5361 89.7083 17.1347 91.5934 17.1347C92.5534 17.1347 93.5134 17.2481 94.4734 17.475C95.4334 17.6845 96.2189 17.9725 96.8298 18.339L95.5731 20.8263C94.3861 20.1281 93.0509 19.779 91.5672 19.779C90.6072 19.779 89.8741 19.9274 89.368 20.2241C88.8792 20.5034 88.6349 20.8787 88.6349 21.3499C88.6349 21.8736 88.8967 22.2489 89.4203 22.4758C89.9614 22.6852 90.7905 22.8859 91.9076 23.0779C93.0247 23.2525 93.9411 23.4532 94.6567 23.6801C95.3723 23.907 95.9832 24.291 96.4894 24.8321C97.0131 25.3732 97.2749 26.1412 97.2749 27.1361C97.2749 28.4452 96.7076 29.4925 95.5731 30.278C94.4385 31.0634 92.8938 31.4561 90.9389 31.4561Z" fill="#BBC3CF"/>
<path d="M113.237 24.3609C113.237 24.5878 113.219 24.9107 113.184 25.3296H102.214C102.406 26.3594 102.903 27.1798 103.706 27.7907C104.527 28.3841 105.539 28.6809 106.743 28.6809C108.279 28.6809 109.545 28.1747 110.54 27.1623L112.294 29.1783C111.666 29.9289 110.871 30.4961 109.911 30.8801C108.951 31.2641 107.869 31.4561 106.665 31.4561C105.129 31.4561 103.776 31.1507 102.607 30.5398C101.437 29.9289 100.53 29.0823 99.8839 28.0001C99.2555 26.9005 98.9413 25.6612 98.9413 24.2823C98.9413 22.9209 99.2468 21.699 99.8577 20.6169C100.486 19.5172 101.35 18.6619 102.45 18.051C103.549 17.4401 104.789 17.1347 106.167 17.1347C107.529 17.1347 108.742 17.4401 109.807 18.051C110.889 18.6445 111.727 19.491 112.32 20.5907C112.931 21.6729 113.237 22.9296 113.237 24.3609ZM106.167 19.7529C105.12 19.7529 104.23 20.067 103.497 20.6954C102.781 21.3063 102.345 22.1267 102.188 23.1565H110.121C109.981 22.1441 109.554 21.3238 108.838 20.6954C108.122 20.067 107.232 19.7529 106.167 19.7529Z" fill="#BBC3CF"/>
<path d="M122.795 31.4561C121.346 31.4561 120.046 31.1507 118.894 30.5398C117.742 29.9289 116.843 29.0823 116.197 28.0001C115.551 26.9005 115.228 25.6612 115.228 24.2823C115.228 22.9034 115.551 21.6729 116.197 20.5907C116.843 19.5085 117.733 18.6619 118.868 18.051C120.02 17.4401 121.329 17.1347 122.795 17.1347C124.174 17.1347 125.378 17.4139 126.408 17.9725C127.455 18.531 128.241 19.3339 128.764 20.3812L126.251 21.8474C125.849 21.2016 125.343 20.7216 124.732 20.4074C124.139 20.0758 123.484 19.9099 122.769 19.9099C121.547 19.9099 120.534 20.3114 119.732 21.1143C118.929 21.8998 118.527 22.9558 118.527 24.2823C118.527 25.6089 118.92 26.6736 119.705 27.4765C120.508 28.2619 121.529 28.6547 122.769 28.6547C123.484 28.6547 124.139 28.4976 124.732 28.1834C125.343 27.8518 125.849 27.363 126.251 26.7172L128.764 28.1834C128.223 29.2307 127.429 30.0423 126.382 30.6183C125.352 31.1769 124.156 31.4561 122.795 31.4561Z" fill="#BBC3CF"/>
<path d="M145.129 17.2918V31.2729H142.014V29.4925C141.49 30.1209 140.835 30.6096 140.05 30.9587C139.265 31.2903 138.418 31.4561 137.51 31.4561C135.643 31.4561 134.168 30.9412 133.086 29.9114C132.021 28.8641 131.489 27.3194 131.489 25.2772V17.2918H134.761V24.8321C134.761 26.0889 135.041 27.0314 135.599 27.6598C136.175 28.2707 136.987 28.5761 138.034 28.5761C139.203 28.5761 140.129 28.2183 140.809 27.5027C141.507 26.7696 141.857 25.7223 141.857 24.3609V17.2918H145.129Z" fill="#BBC3CF"/>
<path d="M152.53 19.3339C153.473 17.8678 155.131 17.1347 157.505 17.1347V20.2503C157.225 20.1979 156.972 20.1718 156.745 20.1718C155.471 20.1718 154.476 20.547 153.761 21.2976C153.045 22.0307 152.687 23.0954 152.687 24.4918V31.2729H149.414V17.2918H152.53V19.3339Z" fill="#BBC3CF"/>
<path d="M168.031 17.1347C169.392 17.1347 170.605 17.4314 171.67 18.0249C172.752 18.6183 173.599 19.4561 174.21 20.5383C174.82 21.6205 175.126 22.8685 175.126 24.2823C175.126 25.6961 174.82 26.9529 174.21 28.0525C173.599 29.1347 172.752 29.9725 171.67 30.566C170.605 31.1594 169.392 31.4561 168.031 31.4561C167.071 31.4561 166.189 31.2903 165.386 30.9587C164.601 30.627 163.938 30.1296 163.396 29.4663V31.2729H160.281V11.8459H163.554V18.9936C164.112 18.3827 164.767 17.9201 165.517 17.6059C166.285 17.2918 167.123 17.1347 168.031 17.1347ZM167.664 28.6547C168.868 28.6547 169.855 28.2532 170.623 27.4503C171.408 26.6474 171.801 25.5914 171.801 24.2823C171.801 22.9732 171.408 21.9172 170.623 21.1143C169.855 20.3114 168.868 19.9099 167.664 19.9099C166.879 19.9099 166.172 20.0932 165.543 20.4598C164.915 20.8089 164.418 21.315 164.051 21.9783C163.684 22.6416 163.501 23.4096 163.501 24.2823C163.501 25.155 163.684 25.923 164.051 26.5863C164.418 27.2496 164.915 27.7645 165.543 28.131C166.172 28.4801 166.879 28.6547 167.664 28.6547Z" fill="#BBC3CF"/>
<defs>
<clipPath id="clip0_2_1600">
<rect width="48" height="43.6364" fill="white" transform="translate(0.719116 0.181885)"/>
</clipPath>
</defs>
</svg>
