<svg width="155" height="44" viewBox="0 0 155 44" fill="none" xmlns="http://www.w3.org/2000/svg">
<path d="M52.8369 14.7304C52.8369 22.5849 61.2806 23.6453 61.2806 29.3005C61.2806 31.2642 60.4166 31.9711 59.042 31.9711C57.6675 31.9711 56.8035 31.2642 56.8035 29.3005V27.3369H52.7191V29.0256C52.7191 33.4242 54.9184 35.9376 59.1598 35.9376C63.4013 35.9376 65.6006 33.4242 65.6006 29.0256C65.6006 21.1711 57.1569 20.1107 57.1569 14.4554C57.1569 12.4918 57.9424 11.7456 59.3169 11.7456C60.6915 11.7456 61.4769 12.4918 61.4769 14.4554V15.5944H65.5613V14.7304C65.5613 10.3318 63.4013 7.81836 59.1991 7.81836C54.9969 7.81836 52.8369 10.3318 52.8369 14.7304Z" fill="#BBC3CF"/>
<path d="M71.8523 35.6235H76.1723V26.5122L81.6312 8.13254H77.5076L74.2087 20.6605L70.9098 8.13254H66.3934L71.8523 26.5122V35.6235Z" fill="#BBC3CF"/>
<path d="M89.3477 8.13254H83.339V35.6235H87.1091V16.1834L90.3295 35.6235H94.4139L97.3986 15.9085V35.6235H101.483V8.13254H95.4742L92.5288 27.6511L89.3477 8.13254Z" fill="#BBC3CF"/>
<path d="M103.369 12.0598H107.885V35.6235H112.205V12.0598H116.721V8.13254H103.369V12.0598Z" fill="#BBC3CF"/>
<path d="M132.055 35.6235C131.623 34.6024 131.584 33.6205 131.584 32.2853V28.0438C131.584 25.1769 130.877 23.0955 128.717 22.1922C130.641 21.2889 131.545 19.4431 131.545 16.6154V14.4554C131.545 10.214 129.62 8.13254 125.143 8.13254H118.624V35.6235H122.944V24.4307H124.436C126.4 24.4307 127.264 25.3733 127.264 27.926V32.246C127.264 34.4845 127.421 34.9165 127.657 35.6235H132.055ZM125.025 12.0598C126.557 12.0598 127.225 12.9238 127.225 14.8875V17.5973C127.225 19.7965 126.243 20.5034 124.633 20.5034H122.944V12.0598H125.025Z" fill="#BBC3CF"/>
<path d="M134.425 35.6235H138.745V8.13254H134.425V35.6235Z" fill="#BBC3CF"/>
<path d="M150.347 25.3733V29.3005C150.347 31.2642 149.483 31.9711 148.109 31.9711C146.734 31.9711 145.87 31.2642 145.87 29.3005V14.4554C145.87 12.4918 146.734 11.7456 148.109 11.7456C149.483 11.7456 150.347 12.4918 150.347 14.4554V17.4009H154.432V14.7304C154.432 10.3318 152.233 7.81836 147.991 7.81836C143.75 7.81836 141.55 10.3318 141.55 14.7304V29.0256C141.55 33.4242 143.75 35.9376 147.991 35.9376C152.233 35.9376 154.432 33.4242 154.432 29.0256V25.3733H150.347Z" fill="#BBC3CF"/>
<g clip-path="url(#clip0_2_1598)">
<path fill-rule="evenodd" clip-rule="evenodd" d="M15.199 14.0168L12.8383 18.098L10.5922 14.2018L12.941 10.1206H29.348L32.8317 4.07813H9.45442L4.84769 12.0687C8.30348 18.0388 11.7539 24.0089 15.199 29.979H22.1663C20.4164 26.9499 18.6674 23.9213 16.9195 20.8932L16.435 20.0549H32.403L39.2706 31.9461L32.403 43.8183H7.20833L0.411279 31.8316L3.8245 25.9036L6.08528 29.7984L4.86239 31.9315L9.46911 39.9221H30.1437L34.7651 31.9315L30.1584 23.9409H23.191C24.6689 26.5149 26.1476 29.0883 27.6274 31.6613L27.7948 31.9271L26.6718 33.8752H12.9528C8.80017 26.6944 4.65292 19.5191 0.51106 12.3491L0.355438 12.0643L7.20833 0.173096H39.5965L31.6117 14.0168H15.199Z" fill="#BBC3CF"/>
</g>
<defs>
<clipPath id="clip0_2_1598">
<rect width="39.2425" height="43.6364" fill="white" transform="translate(0.355469 0.181885)"/>
</clipPath>
</defs>
</svg>
