<svg width="149" height="151" viewBox="0 0 149 151" fill="none" xmlns="http://www.w3.org/2000/svg">
<path d="M149 75.5L108.667 84.9355L128.939 121.188L91.4365 102.22L90.7893 144.219L64.0623 111.656L49 151L33.9377 111.656L7.21066 144.219L6.56351 102.22L-30.9385 121.188L-10.6667 84.9355L-51 75.5L-10.6667 66.0645L-30.9385 29.8116L6.56351 48.7796L7.21066 6.78125L33.9377 39.3442L49 0L64.0623 39.3442L90.7893 6.78125L91.4365 48.7796L128.939 29.8116L108.667 66.0645L149 75.5Z" fill="#FFDADE"/>
<path d="M149 75.5L108.667 84.9355L128.939 121.188L91.4365 102.22L90.7893 144.219L64.0623 111.656L49 151L33.9377 111.656L7.21066 144.219L6.56351 102.22L-30.9385 121.188L-10.6667 84.9355L-51 75.5L-10.6667 66.0645L-30.9385 29.8116L6.56351 48.7796L7.21066 6.78125L33.9377 39.3442L49 0L64.0623 39.3442L90.7893 6.78125L91.4365 48.7796L128.939 29.8116L108.667 66.0645L149 75.5Z" fill="url(#paint0_linear_1_1270)" fill-opacity="0.4"/>
<defs>
<linearGradient id="paint0_linear_1_1270" x1="-51.3361" y1="1.69988e-06" x2="146.777" y2="153.862" gradientUnits="userSpaceOnUse">
<stop stop-color="#FF909C"/>
<stop offset="1" stop-color="#FFDADE"/>
</linearGradient>
</defs>
</svg>
