<svg width="48" height="48" viewBox="0 0 48 48" fill="none" xmlns="http://www.w3.org/2000/svg">
<rect width="48" height="48" rx="24" fill="white"/>
<path d="M14.03 30.33C14.03 30.69 14.11 31.06 14.28 31.42C14.45 31.78 14.67 32.12 14.96 32.44C15.45 32.98 15.99 33.37 16.6 33.62C17.2 33.87 17.85 34 18.55 34C19.57 34 20.66 33.76 21.81 33.27C22.96 32.78 24.11 32.12 25.25 31.29C26.4 30.45 27.49 29.52 28.53 28.49C29.56 27.45 30.49 26.36 31.32 25.22C32.14 24.08 32.8 22.94 33.28 21.81C33.76 20.67 34 19.58 34 18.54C34 17.86 33.88 17.21 33.64 16.61C33.4 16 33.02 15.44 32.49 14.94C31.85 14.31 31.15 14 30.41 14C30.13 14 29.85 14.06 29.6 14.18C29.34 14.3 29.11 14.48 28.93 14.74L26.61 18.01C26.43 18.26 26.3 18.49 26.21 18.71C26.12 18.92 26.07 19.13 26.07 19.32C26.07 19.56 26.14 19.8 26.28 20.03C26.41 20.26 26.6 20.5 26.84 20.74L27.6 21.53C27.71 21.64 27.76 21.77 27.76 21.93C27.76 22.01 27.75 22.08 27.73 22.16C27.7 22.24 27.67 22.3 27.65 22.36C27.47 22.69 27.16 23.12 26.72 23.64C26.27 24.16 25.79 24.69 25.27 25.22C24.73 25.75 24.21 26.24 23.68 26.69C23.16 27.13 22.73 27.43 22.39 27.61C22.34 27.63 22.28 27.66 22.21 27.69C22.13 27.72 22.05 27.73 21.96 27.73C21.79 27.73 21.66 27.67 21.55 27.56L20.79 26.81C20.54 26.56 20.3 26.37 20.07 26.25C19.84 26.11 19.61 26.04 19.36 26.04C19.17 26.04 18.97 26.08 18.75 26.17C18.53 26.26 18.3 26.39 18.05 26.56L14.74 28.91C14.48 29.09 14.3 29.3 14.19 29.55C14.09 29.8 14.03 30.05 14.03 30.33Z" stroke="#012169" stroke-width="1.5" stroke-miterlimit="10"/>
</svg>
