<svg width="24" height="24" viewBox="0 0 24 24" fill="none" xmlns="http://www.w3.org/2000/svg">
<g clip-path="url(#clip0_1_1223)">
<path d="M12 24C18.6274 24 24 18.6274 24 12C24 5.37258 18.6274 0 12 0C5.37258 0 0 5.37258 0 12C0 18.6274 5.37258 24 12 24Z" fill="#3D9635"/>
<path d="M3.52877 6.98629C3.48902 7.60654 3.43802 8.70379 3.90377 8.81479C4.47002 8.87329 4.15802 7.73404 4.36202 7.52704C4.40102 7.42654 4.47302 7.42654 4.47827 7.55329V8.52379C4.47039 8.62685 4.49822 8.72947 4.55708 8.81443C4.61595 8.89938 4.70226 8.96148 4.80152 8.99029C4.95152 8.97904 5.04902 8.98429 5.10677 9.14929C5.13177 9.70579 5.15502 10.2623 5.17652 10.8188C5.17652 10.8188 5.52227 10.935 5.53877 9.88054C5.50423 9.46299 5.49346 9.04381 5.50652 8.62504C5.50652 8.50804 5.64152 8.49754 5.73752 8.56129C5.88752 8.67829 5.95202 8.82079 6.18152 8.76304C6.53252 8.65129 6.74102 8.46304 6.74702 8.15854C6.73839 7.86425 6.68529 7.57295 6.58952 7.29454C6.60452 7.24129 6.51977 7.10929 6.53777 7.05604C6.60002 7.16779 6.69452 7.15654 6.71552 7.05604C6.68145 6.85082 6.57503 6.66459 6.41552 6.53104C6.29102 6.40879 6.10727 6.43504 6.04052 6.69529C6.03352 7.02734 6.1346 7.35267 6.32852 7.62229C6.38833 7.77011 6.41273 7.92986 6.39977 8.08879C6.35315 8.11768 6.29708 8.12719 6.24354 8.11528C6.19 8.10336 6.14324 8.07098 6.11327 8.02504C6.11327 8.02504 5.83127 7.78654 5.83127 7.73929C5.89954 7.49269 5.89143 7.23119 5.80802 6.98929C5.77691 6.84406 5.71446 6.70737 5.62502 6.58879C5.55602 6.49879 5.46152 6.49879 5.41652 6.58879C5.31731 6.91134 5.3252 7.25735 5.43902 7.57504C5.50127 7.78654 5.60177 7.91929 5.55602 7.91929C5.51702 8.04154 5.43752 8.00929 5.38052 7.87129C5.312 7.57427 5.27951 7.27008 5.28377 6.96529C5.25752 6.72679 5.22902 6.21529 5.09027 6.08554C5.00552 5.95804 4.87802 6.02179 4.83302 6.14404C4.82222 6.3736 4.82698 6.60363 4.84727 6.83254C4.93028 7.19917 4.98817 7.57103 5.02052 7.94554C5.03252 8.47054 4.75202 8.17054 4.76402 7.90879C4.82393 7.57716 4.82062 7.23719 4.75427 6.90679C4.70852 6.76954 4.65452 6.73729 4.54127 6.76429C4.45127 6.75304 4.22402 7.03429 4.16027 7.50079C4.12691 7.6513 4.10188 7.80353 4.08527 7.95679C4.05227 8.19529 3.91202 8.36479 3.81377 7.91929C3.72677 7.59604 3.67577 6.80104 3.53327 6.98629" fill="white"/>
<path d="M5.07005 9.53025C4.5698 9.8115 4.0838 10.0658 3.5918 10.3305C3.67485 10.0652 3.82697 9.82671 4.03257 9.63956C4.23817 9.45241 4.48985 9.32331 4.7618 9.2655C5.0618 9.276 4.9868 9.39825 5.07005 9.53025Z" fill="white"/>
<path d="M6.9548 6.02174C6.92217 6.02847 6.89045 6.03904 6.8603 6.05324C6.78379 6.0798 6.72048 6.13488 6.68359 6.20698C6.6467 6.27909 6.63907 6.36265 6.6623 6.44024C6.8048 7.41524 6.89555 8.15774 7.0373 9.12749C7.06205 9.24449 6.97505 9.39299 6.8663 9.38249C6.67955 9.23924 6.63305 8.94749 6.31505 8.96324C6.18077 8.99039 6.0582 9.05848 5.96418 9.15813C5.87017 9.25778 5.80934 9.38411 5.79005 9.51974C5.74724 9.72958 5.74724 9.9459 5.79005 10.1557C5.84662 10.2377 5.92991 10.2975 6.02567 10.3248C6.12143 10.3522 6.22372 10.3454 6.31505 10.3057C6.45455 10.242 6.5708 10.0807 6.6203 10.1205C6.65105 10.1842 6.6158 10.6927 5.9618 11.0797C5.55755 11.2807 5.23805 11.334 5.0618 10.9627C4.9568 10.7302 5.07005 9.84974 4.8083 10.0515C4.0298 12.309 6.63005 12.627 6.9218 10.1467C6.94055 10.0777 6.9968 10.0087 7.03955 10.0252C7.05905 10.0357 7.07255 10.062 7.07705 10.1152C7.01705 12.357 5.0663 12.5055 4.73555 11.8057C4.65538 11.5611 4.61585 11.3049 4.61855 11.0475C4.61825 10.9583 4.59049 10.8714 4.53905 10.7985C4.45955 10.7355 4.3538 10.9102 4.3298 11.2125C4.30594 11.3914 4.29816 11.5722 4.30655 11.7525C4.41005 13.5337 6.92255 12.7702 7.3328 11.3025C7.41369 10.8396 7.43637 10.3685 7.4003 9.89999H7.40855L7.41455 9.89474C7.6688 10.1947 8.01455 9.93149 8.0933 9.83099C8.10157 9.816 8.11328 9.8032 8.12748 9.79362C8.14167 9.78405 8.15793 9.77799 8.17492 9.77594C8.19192 9.77389 8.20916 9.77591 8.22522 9.78183C8.24128 9.78775 8.2557 9.7974 8.2673 9.80999C8.3163 9.84923 8.37421 9.87581 8.43591 9.88737C8.49761 9.89894 8.56121 9.89514 8.62109 9.87632C8.68098 9.85749 8.73531 9.82422 8.7793 9.77943C8.82328 9.73464 8.85557 9.67971 8.8733 9.61949C8.91743 9.34032 8.94572 9.05887 8.95805 8.77649C8.85946 8.79797 8.76694 8.84129 8.6873 8.90324C8.67673 8.91535 8.66972 8.93015 8.66705 8.94599C8.6573 9.02099 8.6468 9.10499 8.6348 9.18449C8.63341 9.19158 8.63165 9.19859 8.62955 9.20549C8.62359 9.21499 8.61499 9.22255 8.6048 9.22724C8.59278 9.23538 8.57882 9.24017 8.56434 9.24113C8.54985 9.24208 8.53538 9.23917 8.5224 9.23268C8.50942 9.22619 8.4984 9.21636 8.49047 9.2042C8.48255 9.19204 8.478 9.17799 8.4773 9.16349C8.41805 8.86349 8.17055 8.81324 8.0198 9.29024C7.9163 9.38624 7.7348 9.40199 7.71455 9.26924C7.7408 8.94599 7.6238 8.90324 7.3943 9.05174C7.3193 8.41574 7.2443 7.81199 7.1693 7.17674C7.2668 7.17674 7.3523 7.25624 7.44155 7.13399C7.36094 6.75732 7.2239 6.39498 7.03505 6.05924C7.02946 6.05166 7.02345 6.0444 7.01705 6.03749C7.01545 6.03737 7.0139 6.03682 7.01258 6.03589C7.01126 6.03497 7.01022 6.03371 7.00955 6.03224H7.00055C6.99605 6.02699 6.98855 6.02699 6.9878 6.02174C6.9758 6.02174 6.9653 6.01649 6.9548 6.02174ZM6.2558 9.50399C6.28633 9.50113 6.31689 9.5091 6.34212 9.52652C6.36736 9.54394 6.38565 9.56968 6.3938 9.59924C6.40297 9.62771 6.40517 9.65797 6.40021 9.68747C6.39525 9.71696 6.38328 9.74484 6.3653 9.76874C6.34505 9.80624 6.27905 9.79049 6.22955 9.79049C6.20457 9.79283 6.17947 9.78748 6.15762 9.77514C6.13576 9.76281 6.11821 9.74409 6.1073 9.72149C6.0893 9.66299 6.1388 9.60449 6.1628 9.55724C6.1868 9.50999 6.1673 9.54674 6.17105 9.54149C6.19547 9.52169 6.22472 9.50874 6.2558 9.50399Z" fill="white"/>
<path d="M8.70603 5.96853C8.64459 5.97453 8.58494 5.99263 8.53053 6.02178C8.46746 6.08802 8.42788 6.17313 8.41785 6.26404C8.40783 6.35495 8.42791 6.44664 8.47503 6.52503C8.57403 6.57303 8.67303 6.69003 8.60553 6.75003C8.32803 7.08453 7.59978 7.65003 7.56303 7.75203V7.76253H7.56903C7.74859 7.79322 7.93191 7.79499 8.11203 7.76778V7.76253C8.44 7.44908 8.74106 7.10864 9.01203 6.74478C8.97528 6.70803 8.93703 6.68103 8.90028 6.64428C8.89152 6.63725 8.88445 6.62835 8.87959 6.61822C8.87473 6.6081 8.87221 6.59701 8.87221 6.58578C8.87221 6.57455 8.87473 6.56346 8.87959 6.55334C8.88445 6.54321 8.89152 6.53431 8.90028 6.52728C8.97096 6.46343 9.01378 6.3744 9.01953 6.27931C9.02528 6.18423 8.9935 6.09069 8.93103 6.01878C8.86225 5.98137 8.78409 5.96469 8.70603 5.97078M8.67153 6.26253C8.71728 6.25728 8.77053 6.31053 8.79753 6.37353C8.82453 6.43653 8.81178 6.51153 8.76678 6.52728C8.72178 6.54303 8.65953 6.49053 8.62953 6.42153C8.59953 6.35253 8.61603 6.27828 8.66328 6.26778C8.66328 6.26778 8.66328 6.26253 8.67153 6.26253ZM3.64353 11.1315C3.5186 11.3516 3.44075 11.5953 3.41493 11.847C3.38911 12.0988 3.41587 12.3532 3.49353 12.594C3.52754 12.6434 3.57599 12.6811 3.63224 12.7019C3.6885 12.7227 3.7498 12.7257 3.80778 12.7103C3.98103 12.6255 4.05903 12.228 4.01628 12.0855C3.95853 11.979 3.91278 11.9633 3.85353 12.0533C3.73278 12.3293 3.68103 12.138 3.66978 11.9783C3.65576 11.7163 3.66681 11.4536 3.70278 11.1938C3.73353 10.977 3.70278 11.04 3.64203 11.1308M15.5055 10.3365C15.2385 9.68403 14.8665 9.04278 14.7488 8.79903C14.631 8.55528 13.7378 7.09803 13.6058 6.92853C13.3148 6.54153 14.0768 7.09278 13.509 6.31878C13.2945 6.11178 13.284 6.10128 13.0988 5.93178C13.0118 5.85678 12.7875 5.73078 12.7515 5.94228C12.7311 6.09596 12.7374 6.25202 12.7703 6.40353C12.8268 6.54406 12.9025 6.67607 12.9953 6.79578C13.9504 8.21595 14.781 9.71603 15.4778 11.2793C15.6008 11.2163 15.5745 10.4475 15.5018 10.3365" fill="white"/>
<path d="M14.3295 12.5093C14.2748 12.573 14.4578 12.864 14.697 12.8588C15.0938 12.8115 15.447 12.5588 15.768 11.8943C15.9017 11.6674 15.9853 11.4144 16.0133 11.1525C16.0533 9.89666 15.9636 8.63999 15.7455 7.40254C15.7316 7.31624 15.7349 7.22805 15.7553 7.14304C15.7808 7.10629 15.8685 7.14304 15.9143 7.05829C15.984 6.97879 15.735 6.33229 15.5933 6.08329C15.543 5.97154 15.525 5.89804 15.4433 6.09379C15.3419 6.31637 15.2941 6.55964 15.3038 6.80404C15.4935 8.27779 15.5513 9.57904 15.6788 11.049C15.7 11.2005 15.6671 11.3545 15.5858 11.484C15.2487 11.9148 14.8208 12.2658 14.3325 12.5123M18.8865 14.6633C18.5993 14.8493 18.5993 15.066 18.8325 15.0713C19.0698 15.077 19.3045 15.0209 19.5136 14.9084C19.7227 14.796 19.8989 14.6312 20.025 14.43C20.1391 14.1691 20.2045 13.8895 20.2178 13.605C20.2716 12.2498 20.1993 10.8924 20.0018 9.55054C19.9764 9.42485 19.9631 9.29702 19.962 9.16879C19.989 9.09979 20.1173 9.17929 20.1608 9.09379C20.2313 9.01879 19.8285 8.43154 19.6845 8.18254C19.6365 8.07079 19.6185 7.99654 19.5345 8.19829C19.4398 8.42047 19.4112 8.66524 19.452 8.90329C19.6652 10.4217 19.7984 11.9503 19.851 13.4828C19.8409 13.6107 19.8142 13.7368 19.7715 13.8578C19.6624 14.044 19.5318 14.2167 19.3823 14.3723C19.2503 14.478 18.9743 14.5838 18.885 14.6633" fill="white"/>
<path d="M19.9147 11.0626C19.9102 10.6876 19.9245 10.3628 19.9102 10.0816C19.896 9.80033 19.7842 8.75108 19.749 8.52908C19.7137 8.30708 19.6695 7.96208 19.6155 7.69133C19.5841 7.53424 19.5675 7.37454 19.566 7.21433C19.587 7.13933 19.6792 7.21958 19.7205 7.12958C19.6733 6.71666 19.5459 6.31693 19.3455 5.95283C19.2938 5.84183 19.1955 5.87783 19.0762 6.05933C18.9622 6.17558 19.0012 6.44033 19.047 6.69533C19.3591 8.3534 19.5108 10.0377 19.5 11.7248C19.4835 11.8576 19.9192 11.3168 19.9147 11.0626ZM17.808 8.98433C17.6272 8.97908 17.2507 8.59208 17.1412 8.36483C17.1083 8.25438 17.1157 8.1358 17.1622 8.03033C17.229 7.98308 17.3317 7.92458 17.4075 7.98308C17.4075 7.98308 17.487 8.10458 17.472 8.12108C17.5695 8.17358 17.6122 8.14208 17.622 8.09408C17.628 8.01908 17.5912 7.97258 17.5912 7.88783C17.6325 7.64933 17.8717 7.61708 17.9662 7.76558C18.0308 7.89389 18.0651 8.03523 18.0668 8.17883C18.0668 8.24783 17.9685 8.16833 17.9167 8.18408C17.865 8.19983 17.8485 8.26958 17.8417 8.33408C17.8259 8.55103 17.8156 8.76835 17.811 8.98583M14.4915 11.4811C14.5425 10.9666 14.475 9.92783 14.4705 9.62633C14.454 8.91608 14.3483 7.54283 14.301 7.31483C14.244 6.88058 14.4577 7.36283 14.427 7.10858C14.3328 6.70173 14.1514 6.3202 13.8952 5.99033C13.8157 5.86283 13.8202 5.83658 13.6927 6.02183C13.6116 6.30677 13.6174 6.60943 13.7092 6.89108C13.8807 7.72304 13.9925 8.56619 14.0437 9.41408C14.0979 10.3071 14.1047 11.2024 14.064 12.0961C14.1998 12.0961 14.4165 11.8471 14.4915 11.4811Z" fill="white"/>
<path d="M20.5276 10.6598C20.2133 10.0598 19.7333 9.36075 19.6066 9.12225C19.4798 8.88375 18.3968 7.10325 18.2618 6.94725C17.8658 6.486 18.4433 6.87225 18.1868 6.507C18.0489 6.32174 17.892 6.15133 17.7188 5.9985C17.6266 5.93475 17.5688 5.802 17.5388 6.0195C17.5224 6.21329 17.5177 6.40789 17.5246 6.60225C17.5454 6.73398 17.5996 6.85818 17.6821 6.963C18.7514 8.43024 19.7012 9.98098 20.5223 11.6003C20.6423 11.5373 20.6011 10.7685 20.5268 10.6628M16.6928 16.3365C16.637 16.3533 16.5871 16.3854 16.5487 16.4292C16.5104 16.473 16.4851 16.5267 16.4758 16.5842C16.4664 16.6417 16.4735 16.7006 16.4961 16.7543C16.5187 16.808 16.5559 16.8542 16.6036 16.8878C13.6448 16.8878 9.10356 16.8345 8.13381 16.8345C7.58706 16.8345 5.86581 16.7595 5.83356 16.7595C6.00471 17.0206 6.24559 17.2284 6.52888 17.3595C6.81217 17.4906 7.12653 17.5397 7.43631 17.5013C8.75181 17.5013 14.8381 17.4855 16.5683 17.4855C16.5245 17.6034 16.5116 17.7305 16.5308 17.8549C16.5499 17.9792 16.6005 18.0965 16.6778 18.1958L16.6846 18.201C16.6855 18.2029 16.687 18.2044 16.6889 18.2054C16.6908 18.2063 16.693 18.2066 16.6951 18.2063H16.7003C16.8158 18.2385 16.8661 18.1425 16.9066 18.0795C17.3488 18.1042 17.7921 18.1025 18.2341 18.0743C18.2993 18.18 18.3653 18.2805 18.4876 18.2648C18.7036 18.2115 18.8731 18.1853 18.8806 17.6925C18.8806 17.6925 18.8581 16.8548 18.3676 16.908C18.2513 16.9238 17.9266 16.9613 17.9266 16.9613C17.5516 16.9133 17.2718 16.908 16.8488 16.8863C16.8886 16.833 16.9561 16.605 16.8721 16.5255C16.8581 16.5138 16.842 16.505 16.8246 16.4996C16.8072 16.4942 16.7889 16.4923 16.7708 16.494H16.7626C16.7626 16.494 16.7558 16.4888 16.7536 16.4835V16.4783C16.7342 16.4318 16.7184 16.3839 16.7063 16.335H16.6966M16.8976 17.535C17.3266 17.556 17.7316 17.5403 18.1651 17.5613C18.1915 17.597 18.2047 17.6407 18.2027 17.6851C18.2006 17.7295 18.1834 17.7718 18.1538 17.805C18.1538 17.8103 18.1478 17.8103 18.1478 17.8103H18.1358C17.9956 17.805 17.9153 17.805 17.7751 17.7998C17.7751 17.7893 17.7706 17.784 17.7706 17.7735C17.7361 17.6618 17.4976 17.673 17.4391 17.763V17.7893C17.4376 17.7944 17.4376 17.7999 17.4391 17.805C17.2551 17.8167 17.0704 17.8097 16.8878 17.784C16.8346 17.709 16.8406 17.5718 16.9058 17.535M9.20781 6.47775C8.92056 7.3995 9.37431 8.41725 9.68781 8.322C9.91281 8.4225 10.0576 7.935 10.1521 7.40475C10.2166 7.25475 10.2638 7.2405 10.2968 7.31475C10.2871 8.025 10.3411 8.184 10.5031 8.39625C10.5465 8.4429 10.5989 8.48029 10.6572 8.50617C10.7154 8.53205 10.7783 8.5459 10.8421 8.54688C10.9058 8.54786 10.9691 8.53596 11.0281 8.51188C11.0871 8.4878 11.1407 8.45204 11.1856 8.40675C11.2088 8.38575 11.4668 8.094 11.4668 8.094C11.4805 8.07627 11.4978 8.06174 11.5177 8.05142C11.5375 8.04109 11.5594 8.03523 11.5817 8.03423C11.6041 8.03323 11.6264 8.03712 11.6471 8.04563C11.6678 8.05414 11.6864 8.06706 11.7016 8.0835C11.7848 8.16825 11.7766 8.322 11.9581 8.4225C12.0539 8.45995 12.1589 8.46738 12.2591 8.44381C12.3593 8.42023 12.4499 8.36677 12.5191 8.2905C12.6226 8.094 12.6451 8.025 12.6923 7.95075C12.7673 7.83975 12.8918 7.88775 12.8918 7.9245C12.8806 7.98825 12.8101 8.04675 12.8558 8.15775C12.9458 8.23275 12.9661 8.184 13.0186 8.16825C13.2016 8.06775 13.3396 7.62225 13.3396 7.62225C13.3456 7.45275 13.2646 7.4685 13.2076 7.506C13.1393 7.55325 13.1326 7.56975 13.0636 7.617C12.9751 7.6275 12.8011 7.6965 12.7171 7.548C12.6278 7.368 12.6278 7.11375 12.5588 6.93375C12.5588 6.92325 12.4441 6.6525 12.5521 6.63375C12.6053 6.64425 12.7208 6.681 12.7403 6.57C12.7988 6.46425 12.6181 6.15675 12.4958 6.00825C12.474 5.97627 12.4449 5.94985 12.411 5.93109C12.3772 5.91234 12.3393 5.90177 12.3006 5.90024C12.2619 5.89871 12.2234 5.90626 12.1882 5.92228C12.1529 5.9383 12.1219 5.96235 12.0976 5.9925C12.0265 6.0871 11.989 6.2027 11.9911 6.321C11.9752 6.39781 11.9754 6.47707 11.9918 6.55377C12.0082 6.63046 12.0404 6.70291 12.0863 6.7665C12.2572 7.03627 12.3361 7.35413 12.3113 7.6725C12.2823 7.72445 12.2398 7.76761 12.1883 7.79745C12.1369 7.82728 12.0783 7.84267 12.0188 7.842C11.9438 7.821 11.8163 7.7835 11.7488 7.23225C11.7647 6.79815 11.7157 6.3641 11.6033 5.9445C11.5456 5.775 11.5051 5.61075 11.3648 5.9025C11.3037 5.99432 11.2645 6.09893 11.2502 6.20828C11.2359 6.31764 11.2469 6.42881 11.2823 6.53325C11.3901 6.84813 11.421 7.18425 11.3723 7.5135C11.3245 7.60837 11.2683 7.69873 11.2043 7.7835C11.1638 7.83661 11.1042 7.87186 11.0381 7.8818C10.972 7.89174 10.9047 7.87558 10.8503 7.83675C10.7896 7.80251 10.7383 7.7539 10.7007 7.69519C10.6632 7.63648 10.6407 7.56946 10.6351 7.5C10.66 7.13749 10.6482 6.77338 10.5998 6.41325C10.5143 6.2115 10.3696 6.28575 10.3096 6.34425C10.028 6.69884 9.84465 7.1212 9.77781 7.569C9.69531 7.86525 9.60756 7.7805 9.54681 7.659C9.39681 7.50525 9.38781 6.27525 9.20781 6.477" fill="white"/>
<path d="M10.1798 8.39106C10.1798 8.39631 10.176 8.39631 10.1715 8.39631V8.40156C10.1528 8.41206 10.128 8.44956 10.0785 8.49156C10.0365 8.54788 10.0066 8.61224 9.99063 8.68063C9.97463 8.74901 9.97289 8.81996 9.98551 8.88906C9.98926 8.91606 10.143 9.39831 10.2765 9.74256C10.3883 10.1151 10.4261 10.506 10.3875 10.8931C10.1731 11.3903 9.81367 11.8114 9.35626 12.1013C9.28953 12.1351 9.21579 12.1526 9.14101 12.1526C9.06623 12.1526 8.99249 12.1351 8.92576 12.1013V12.0961C8.88447 12.0638 8.85211 12.0215 8.83176 11.9732C8.81142 11.9249 8.80376 11.8722 8.80951 11.8201C9.27044 11.5362 9.63265 11.1172 9.84676 10.6201C9.94789 10.3403 9.95761 10.0357 9.87451 9.75006C9.84855 9.60532 9.7881 9.46897 9.69826 9.35256C9.69826 9.35256 9.69826 9.35256 9.69826 9.34731C9.75601 9.31581 9.90526 9.44256 9.93001 9.36306C9.88663 9.13498 9.78305 8.92264 9.63001 8.74806C9.61014 8.71889 9.58393 8.69459 9.55333 8.67698C9.52274 8.65938 9.48856 8.64892 9.45336 8.6464C9.41815 8.64387 9.38283 8.64935 9.35004 8.6624C9.31725 8.67546 9.28784 8.69577 9.26401 8.72181C9.14026 8.80131 9.11401 9.08256 9.17176 9.33156C9.23926 9.51156 9.42151 9.54381 9.55126 9.91431V9.91956C9.576 10.0484 9.56826 10.1814 9.52876 10.3066C9.30865 10.6129 9.04745 10.8874 8.75251 11.1226L8.74726 11.1278V11.1338H8.73901V11.1278C8.74189 11.0874 8.74189 11.0468 8.73901 11.0063C8.73901 10.9006 8.77726 10.6456 8.77426 10.5983V10.5931C8.55301 10.7573 8.47426 11.2553 8.43601 11.4038C7.87216 11.7552 7.34458 12.1617 6.86101 12.6173C6.66751 12.9518 8.18926 12.2251 8.36101 12.1403C8.36101 12.1403 8.36551 12.1403 8.36776 12.1456C8.39993 12.255 8.44553 12.3601 8.50351 12.4583C8.59233 12.5872 8.71899 12.6852 8.86598 12.739C9.01297 12.7927 9.17302 12.7995 9.32401 12.7583C9.82365 12.5166 10.2378 12.1283 10.5113 11.6453C10.5563 11.5703 10.629 11.5126 10.6943 11.5703C10.8515 11.878 11.093 12.1347 11.3906 12.3104C11.6882 12.4861 12.0296 12.5735 12.375 12.5626C12.5648 12.3023 12.4755 12.1703 12.3975 12.1223C12.3728 12.1013 11.9873 11.9318 11.9288 11.7623C11.892 11.6086 11.9813 11.4706 12.1665 11.3641C12.6943 11.3093 13.2146 11.1974 13.7183 11.0303C13.7364 10.8213 13.7941 10.6177 13.8885 10.4303C13.908 10.3878 13.9383 10.3511 13.9763 10.3238C13.9763 10.3238 13.9763 10.3238 13.9763 10.3186V10.3133C13.9769 10.3098 13.9769 10.3063 13.9763 10.3028L13.8885 10.2443L12.2025 10.2338C12.1857 10.2272 12.1698 10.2184 12.1553 10.2076V10.1761C12.1685 10.1581 12.1872 10.145 12.2085 10.1386C12.6135 10.0801 13.3275 9.94806 13.374 9.16881C13.3864 9.08103 13.3806 8.99165 13.357 8.9062C13.3334 8.82074 13.2926 8.74104 13.237 8.672C13.1814 8.60297 13.1122 8.54608 13.0337 8.50485C12.9553 8.46362 12.8692 8.43893 12.7808 8.43231C12.612 8.46851 12.4638 8.56878 12.3674 8.71202C12.271 8.85526 12.234 9.0303 12.264 9.20031C12.2498 9.30156 12.297 9.50781 12.2025 9.52881C11.5815 9.59781 10.905 10.0328 10.8803 10.3456H10.872L10.8675 10.3508H10.8593L10.8518 10.3456C10.82 10.326 10.7951 10.2972 10.7803 10.2629C10.7656 10.2287 10.7617 10.1908 10.7693 10.1543C10.7408 9.59008 10.5955 9.03792 10.3425 8.53281C10.257 8.43231 10.218 8.39481 10.1925 8.38956H10.182M12.6473 9.08406C12.6943 9.07922 12.7415 9.09234 12.7793 9.12081C12.809 9.13583 12.8342 9.15846 12.8524 9.18638C12.8706 9.2143 12.8811 9.24653 12.8828 9.27981V9.30006L12.8723 9.31056C12.8393 9.34731 12.7673 9.34206 12.6953 9.29406C12.6675 9.27883 12.6437 9.25735 12.6258 9.23131C12.6078 9.20527 12.5961 9.17539 12.5918 9.14406V9.13806C12.5918 9.12756 12.5963 9.12231 12.5993 9.12231L12.6038 9.11181C12.6038 9.10656 12.6038 9.10656 12.612 9.10131C12.6172 9.09608 12.6234 9.09198 12.6302 9.08927C12.6371 9.08656 12.6444 9.08529 12.6518 9.08556M11.0835 10.6861H11.1C11.3324 10.7353 11.5684 10.7654 11.8058 10.7761C12.0015 10.7918 12.0983 10.9613 11.9153 11.0356C11.7323 11.1098 11.5605 11.1578 11.5605 11.4548C11.5853 11.5377 11.5853 11.6261 11.5605 11.7091C11.5605 11.7143 11.556 11.7196 11.553 11.7196V11.7301H11.5478L11.5395 11.7353C11.5391 11.7368 11.5382 11.738 11.537 11.739C11.5357 11.7399 11.5343 11.7405 11.5328 11.7406C11.4878 11.7458 11.4255 11.6933 11.3775 11.6716C11.2484 11.5828 11.1398 11.4673 11.0591 11.333C10.9784 11.1988 10.9274 11.0487 10.9095 10.8931C10.9073 10.8679 10.91 10.8426 10.9176 10.8185C10.9253 10.7944 10.9376 10.7721 10.9539 10.7528C10.9703 10.7336 10.9903 10.7177 11.0128 10.7063C11.0353 10.6948 11.0598 10.6879 11.085 10.6861M5.65501 6.48831C5.85076 6.58881 6.21451 6.54681 6.19951 6.19656C6.19799 6.14175 6.19524 6.08699 6.19126 6.03231C6.15301 5.92656 6.04126 5.94756 6.01876 6.05931C6.01051 6.09081 6.03076 6.14931 6.00376 6.17031C5.97676 6.19131 5.92501 6.17556 5.92876 6.08031C5.92686 6.04957 5.9159 6.02008 5.89726 5.99556C5.89143 5.98905 5.88401 5.98418 5.87572 5.98142C5.86744 5.97865 5.85858 5.9781 5.85001 5.97981C5.82376 5.98506 5.82376 5.99031 5.81176 6.01656C5.80245 6.04206 5.79738 6.06891 5.79676 6.09606C5.79226 6.13281 5.77876 6.14406 5.75626 6.14931C5.73376 6.15456 5.73901 6.15456 5.71651 6.13881C5.70601 6.12231 5.68801 6.11706 5.68801 6.09081C5.68752 6.06235 5.68451 6.03398 5.67901 6.00606C5.66684 5.99029 5.64964 5.97917 5.63026 5.97456C5.52301 5.97456 5.51626 6.11181 5.52301 6.16506C5.51401 6.17556 5.51101 6.41931 5.65501 6.48831Z" fill="white"/>
<path d="M11.3528 9.20183C11.547 9.30308 12.009 9.24458 11.898 8.90183C11.8968 8.84691 11.8928 8.79209 11.886 8.73758C11.8478 8.63183 11.7405 8.65808 11.7143 8.76458C11.7083 8.80133 11.7293 8.85983 11.7015 8.88083C11.6738 8.90183 11.622 8.88083 11.6265 8.78558C11.6246 8.75644 11.6136 8.72865 11.595 8.70608C11.5894 8.7002 11.5824 8.69571 11.5748 8.69298C11.5671 8.69024 11.5589 8.68934 11.5508 8.69033C11.5253 8.69558 11.5253 8.70083 11.5103 8.72708C11.5021 8.75284 11.4973 8.77957 11.496 8.80658C11.496 8.84408 11.4803 8.85458 11.457 8.85983C11.4338 8.86508 11.4405 8.86508 11.418 8.84933C11.3955 8.83358 11.3895 8.82833 11.3895 8.80133C11.3905 8.77253 11.3862 8.74381 11.3768 8.71658C11.3658 8.70029 11.3488 8.68898 11.3295 8.68508C11.2245 8.68508 11.2185 8.82233 11.2223 8.87558C11.2163 8.88083 11.2118 9.12458 11.3558 9.19883M14.6753 8.07833C14.8688 8.17883 15.234 8.13158 15.219 7.77833C15.219 7.75208 15.213 7.64633 15.2108 7.61408C15.1695 7.51358 15.0608 7.53458 15.0383 7.64633C15.0293 7.67783 15.0495 7.73633 15.021 7.75208C15.0068 7.77308 14.946 7.76258 14.946 7.66208C14.9423 7.63176 14.9315 7.60275 14.9145 7.57733C14.9009 7.57202 14.8862 7.57022 14.8718 7.57208C14.8463 7.57208 14.8463 7.57733 14.8305 7.60358C14.8218 7.63105 14.8168 7.65954 14.8155 7.68833C14.8155 7.72058 14.8013 7.73108 14.7765 7.73633C14.7518 7.74158 14.7563 7.74158 14.739 7.72583C14.7307 7.72078 14.7237 7.71377 14.7188 7.70539C14.7138 7.69702 14.711 7.68755 14.7105 7.67783C14.7096 7.64745 14.7053 7.61727 14.6978 7.58783C14.6838 7.57746 14.6676 7.57029 14.6505 7.56683C14.5448 7.56683 14.5358 7.70408 14.5433 7.75208C14.5358 7.76258 14.5313 8.00633 14.676 8.07533M16.395 10.8931C16.2788 11.0857 16.2081 11.3023 16.1885 11.5264C16.1689 11.7506 16.2008 11.9762 16.2818 12.1861C16.3542 12.4081 16.5024 12.5976 16.7003 12.7216C16.7295 12.7533 16.7658 12.7777 16.8062 12.7926C16.8467 12.8075 16.8901 12.8126 16.933 12.8074C16.9758 12.8022 17.0167 12.7868 17.0524 12.7627C17.0881 12.7385 17.1176 12.7061 17.1383 12.6683C17.3363 12.4351 17.3415 11.8471 17.433 11.7301C17.5005 11.5126 17.6633 11.5501 17.7428 11.6453C17.8149 11.7581 17.9122 11.8525 18.027 11.9213C18.0647 11.966 18.1109 12.0027 18.1629 12.0292C18.2149 12.0558 18.2716 12.0718 18.3299 12.0762C18.3881 12.0806 18.4466 12.0733 18.502 12.0549C18.5574 12.0364 18.6086 12.0071 18.6525 11.9686C18.8173 11.8641 18.9365 11.7012 18.9863 11.5126C19.0589 10.6206 19.0671 9.72451 19.011 8.83133C19.0013 8.76758 18.819 7.72883 18.819 7.71758C18.819 7.70633 18.7928 7.18808 18.774 7.06583C18.7695 7.01333 18.759 6.99683 18.8063 7.00283C18.8558 7.05533 18.8603 7.06058 18.8918 7.07108C18.9413 7.08233 18.9863 6.98633 18.957 6.89633C18.807 6.57833 18.6473 6.25508 18.4928 5.94233C18.4575 5.89508 18.408 5.85233 18.3473 5.94758C18.3106 5.98555 18.2817 6.03042 18.2624 6.07959C18.2431 6.12876 18.2337 6.18126 18.2348 6.23408C18.249 6.45908 18.2843 6.69533 18.297 6.92333C18.3593 7.30958 18.4208 7.70183 18.483 8.09408C18.5408 8.92658 18.558 9.68933 18.615 10.5218C18.6284 10.8227 18.5591 11.1215 18.4148 11.3858C18.4148 11.3858 18.279 11.4811 18.1853 11.3806C18.0553 11.2224 17.9412 11.0519 17.8448 10.8713C17.7053 10.7288 17.6123 10.7656 17.5133 10.8713C17.2685 11.255 17.0737 11.6684 16.9335 12.1013C16.884 12.1861 16.7498 12.2603 16.6013 12.0961C16.4051 11.7287 16.3328 11.3079 16.395 10.8961M14.763 6.03233C14.858 6.11359 14.9311 6.21729 14.9757 6.33399C15.0204 6.45069 15.0352 6.5767 15.0188 6.70058C14.9835 6.93908 14.8928 7.20383 14.8253 7.16708C14.7578 7.13033 14.8733 6.92858 14.8065 6.71108C14.7653 6.56783 14.5298 6.31358 14.5545 6.23408C14.5444 6.20527 14.5428 6.17417 14.5499 6.14447C14.5569 6.11477 14.5723 6.08771 14.5942 6.06648C14.6162 6.04525 14.6437 6.03076 14.6736 6.02471C14.7035 6.01865 14.7346 6.0213 14.763 6.03233Z" fill="white"/>
<path d="M16.956 11.1315C16.972 10.7811 16.9597 10.43 16.9193 10.0815C16.9088 9.80628 16.6403 7.53153 16.5833 7.32003C16.5173 6.92328 16.8465 7.26753 16.8083 7.03428C16.6958 6.74253 16.413 6.31353 16.3253 6.05928C16.269 5.94753 16.2923 5.85228 16.1753 6.03228C16.0727 6.35389 16.0362 6.69295 16.068 7.02903C16.4043 8.60439 16.5832 10.2093 16.602 11.82C16.7363 11.82 16.8915 11.4758 16.959 11.1315M19.1115 8.75928C19.2743 8.85453 19.3658 9.34728 19.3485 9.49053C19.3178 9.75003 19.2338 10.0313 19.173 9.99378C19.1123 9.95628 19.1858 9.60753 19.1543 9.50103C19.116 9.34728 18.9023 9.06678 18.924 8.98203C18.8805 8.80653 19.0185 8.73303 19.1115 8.75703M8.13454 10.23C8.28454 10.2938 8.37454 10.6598 8.35954 10.7655C8.32879 10.956 8.24854 11.1578 8.19154 11.1405C8.13454 11.1233 8.20504 10.854 8.17279 10.7745C8.16154 10.5788 7.94779 10.4745 7.95529 10.3928C7.91479 10.239 8.04079 10.2128 8.13679 10.2338M4.07554 5.91078C4.30054 5.98578 4.31254 6.35553 4.30054 6.46728C4.26979 6.66303 4.18954 6.87528 4.13104 6.84903C4.07254 6.82278 4.13104 6.55728 4.09954 6.47403C4.06729 6.35178 3.87454 6.14553 3.90004 6.08178C3.85654 5.94903 3.98479 5.88528 4.07779 5.91228M8.49979 7.65978C8.41171 7.72904 8.35045 7.82677 8.32651 7.93623C8.30257 8.04569 8.31742 8.16007 8.36854 8.25978C8.39811 8.30392 8.44131 8.33719 8.49154 8.35452C8.54177 8.37185 8.59628 8.37229 8.64679 8.35578C8.81554 8.38203 8.91529 8.00028 8.91529 8.00028C8.91529 8.00028 8.92054 7.89453 8.72254 8.09553C8.63704 8.11728 8.62654 8.07978 8.60479 8.02653C8.58482 7.92737 8.59367 7.82457 8.63029 7.73028C8.66104 7.63428 8.59654 7.59228 8.49979 7.66128M9.78754 5.76753C9.71249 5.82851 9.65059 5.90409 9.6056 5.98969C9.56061 6.07529 9.53346 6.16913 9.52579 6.26553C9.51904 6.39303 9.49729 6.39303 9.57304 6.47778C9.62929 6.56778 9.68479 6.55728 9.79429 6.48828C9.82244 6.46855 9.84636 6.44339 9.86465 6.41428C9.88294 6.38517 9.89522 6.3527 9.90079 6.31878C9.92779 6.16878 9.76279 6.38778 9.74029 6.22353C9.70504 6.06978 9.81004 6.01128 9.91129 5.85753C9.91129 5.75703 9.91129 5.68803 9.78754 5.76753ZM10.8278 5.97453C10.7865 6.16457 10.7614 6.35776 10.7528 6.55203C10.722 6.69528 10.8885 6.75828 10.9613 6.57303C11.0362 6.37104 11.0761 6.15771 11.079 5.94228C11.046 5.72478 10.914 5.73603 10.8278 5.97453ZM17.3753 9.72153C17.3993 9.69978 18.2978 8.97903 18.2978 8.97903C18.39 8.94228 18.3728 9.35403 18.3285 9.34503C18.056 9.64774 17.7336 9.90142 17.3753 10.095C17.3318 10.1273 17.2868 9.81453 17.3753 9.72453M18.1965 9.71628C18.357 9.80628 18.4215 10.3253 18.402 10.4663C18.408 10.7423 18.252 10.9643 18.1875 10.9328C18.123 10.9013 18.1943 10.5885 18.1635 10.4768C18.094 10.308 18.0437 10.1318 18.0135 9.95178C17.9685 9.77628 18.099 9.68103 18.1958 9.71328M12.8423 11.9633C12.9162 11.8694 13.0022 11.7857 13.098 11.7143C13.1269 11.6998 13.1599 11.6955 13.1915 11.7022C13.2231 11.7089 13.2515 11.7261 13.272 11.751C13.2878 11.847 13.2165 11.9423 13.239 12.0743C13.257 12.1275 13.272 12.1913 13.359 12.165C13.4158 12.1149 13.4822 12.0768 13.5541 12.053C13.6261 12.0293 13.7021 12.0205 13.7775 12.027C13.89 12.027 13.8908 12.2385 13.824 12.2385C13.6261 12.293 13.4345 12.3684 13.2525 12.4635C13.227 12.4819 13.1953 12.4894 13.1643 12.4845C13.1332 12.4796 13.1054 12.4626 13.0868 12.4373C13.0694 12.41 13.0589 12.3789 13.0561 12.3466C13.0534 12.3143 13.0585 12.2819 13.071 12.252C13.0785 12.1455 13.0403 12.0878 12.96 12.093C12.9 12.135 12.8483 12.156 12.8183 12.0825C12.8078 12.024 12.8033 11.9925 12.8423 11.9603M19.1445 12.2445C19.1701 12.2707 19.1843 12.3058 19.1843 12.3424C19.1843 12.379 19.1701 12.4141 19.1445 12.4403C19.08 12.5093 19.0373 12.5408 18.9728 12.6098C18.9443 12.6683 18.9255 12.753 19.0155 12.7793C19.1828 12.8325 19.5728 12.5543 19.5728 12.5408C19.5937 12.5218 19.6083 12.497 19.6149 12.4696C19.6214 12.4421 19.6196 12.4134 19.6095 12.387C19.5728 12.3398 19.491 12.366 19.4363 12.366C19.4078 12.366 19.3215 12.345 19.3613 12.2655C19.3901 12.2182 19.4138 12.1679 19.4318 12.1155C19.4565 12.0465 19.437 12.0045 19.3388 11.9655C19.2593 11.9524 19.1782 11.9524 19.0988 11.9655C19.041 11.9813 19.0238 12.0135 19.0103 12.0878C19.014 12.204 19.0785 12.1988 19.146 12.2468" fill="white"/>
</g>
<defs>
<clipPath id="clip0_1_1223">
<rect width="24" height="24" fill="white"/>
</clipPath>
</defs>
</svg>
