<svg width="56" height="56" viewBox="0 0 56 56" fill="none" xmlns="http://www.w3.org/2000/svg">
<rect width="56" height="56" rx="28" fill="white"/>
<path d="M29.73 19.51L31.49 23.03C31.73 23.52 32.37 23.99 32.91 24.08L36.1 24.61C38.14 24.95 38.62 26.43 37.15 27.89L34.67 30.37C34.25 30.79 34.02 31.6 34.15 32.18L34.86 35.25C35.42 37.68 34.13 38.62 31.98 37.35L28.99 35.58C28.45 35.26 27.56 35.26 27.01 35.58L24.02 37.35C21.88 38.62 20.58 37.67 21.14 35.25L21.85 32.18C21.98 31.6 21.75 30.79 21.33 30.37L18.85 27.89C17.39 26.43 17.86 24.95 19.9 24.61L23.09 24.08C23.62 23.99 24.26 23.52 24.5 23.03L26.26 19.51C27.22 17.6 28.78 17.6 29.73 19.51Z" stroke="#21294B" stroke-width="1.5" stroke-linecap="round" stroke-linejoin="round"/>
</svg>
