<svg width="104" height="20" viewBox="0 0 104 20" fill="none" xmlns="http://www.w3.org/2000/svg">
<path d="M14.7191 18.8921C14.2774 18.8921 13.7107 18.7504 13.0024 18.3338L10.5107 16.8588C10.2524 16.7088 9.75235 16.7088 9.50234 16.8588L7.00232 18.3338C5.5273 19.2088 4.66063 18.8588 4.26896 18.5754C3.88562 18.2921 3.28561 17.5671 3.67728 15.9004L4.26896 13.3421C4.33562 13.0754 4.20229 12.6171 4.00229 12.417L1.9356 10.3504C0.902253 9.31702 0.985587 8.43368 1.12726 8.00034C1.26892 7.567 1.71893 6.80032 3.15228 6.55866L5.81064 6.11698C6.06064 6.07532 6.41898 5.80865 6.52731 5.58364L8.00233 2.64195C8.669 1.30027 9.54401 1.10027 10.0023 1.10027C10.4607 1.10027 11.3357 1.30027 12.0024 2.64195L13.4691 5.57531C13.5857 5.80031 13.9441 6.06698 14.1941 6.10865L16.8524 6.55032C18.2941 6.79199 18.7441 7.55867 18.8774 7.992C19.0108 8.42534 19.0941 9.30868 18.0691 10.342L16.0024 12.417C15.8024 12.6171 15.6774 13.0671 15.7357 13.3421L16.3274 15.9004C16.7108 17.5671 16.1191 18.2921 15.7357 18.5754C15.5274 18.7254 15.1941 18.8921 14.7191 18.8921Z" fill="#B4ADAD" fill-opacity="0.2"/>
<path d="M35.7191 18.8921C35.2774 18.8921 34.7107 18.7504 34.0024 18.3338L31.5107 16.8588C31.2524 16.7088 30.7523 16.7088 30.5023 16.8588L28.0023 18.3338C26.5273 19.2088 25.6606 18.8588 25.269 18.5754C24.8856 18.2921 24.2856 17.5671 24.6773 15.9004L25.269 13.3421C25.3356 13.0754 25.2023 12.6171 25.0023 12.417L22.9356 10.3504C21.9023 9.31702 21.9856 8.43368 22.1273 8.00034C22.2689 7.567 22.7189 6.80032 24.1523 6.55866L26.8106 6.11698C27.0606 6.07532 27.419 5.80865 27.5273 5.58364L29.0023 2.64195C29.669 1.30027 30.544 1.10027 31.0023 1.10027C31.4607 1.10027 32.3357 1.30027 33.0024 2.64195L34.4691 5.57531C34.5857 5.80031 34.9441 6.06698 35.1941 6.10865L37.8524 6.55032C39.2941 6.79199 39.7441 7.55867 39.8774 7.992C40.0108 8.42534 40.0941 9.30868 39.0691 10.342L37.0024 12.417C36.8024 12.6171 36.6774 13.0671 36.7357 13.3421L37.3274 15.9004C37.7108 17.5671 37.1191 18.2921 36.7357 18.5754C36.5274 18.7254 36.1941 18.8921 35.7191 18.8921Z" fill="#FFB127"/>
<path d="M56.7191 18.8921C56.2774 18.8921 55.7107 18.7504 55.0024 18.3338L52.5107 16.8588C52.2524 16.7088 51.7523 16.7088 51.5023 16.8588L49.0023 18.3338C47.5273 19.2088 46.6606 18.8588 46.269 18.5754C45.8856 18.2921 45.2856 17.5671 45.6773 15.9004L46.269 13.3421C46.3356 13.0754 46.2023 12.6171 46.0023 12.417L43.9356 10.3504C42.9023 9.31702 42.9856 8.43368 43.1273 8.00034C43.2689 7.567 43.7189 6.80032 45.1523 6.55866L47.8106 6.11698C48.0606 6.07532 48.419 5.80865 48.5273 5.58364L50.0023 2.64195C50.669 1.30027 51.544 1.10027 52.0023 1.10027C52.4607 1.10027 53.3357 1.30027 54.0024 2.64195L55.4691 5.57531C55.5857 5.80031 55.9441 6.06698 56.1941 6.10865L58.8524 6.55032C60.2941 6.79199 60.7441 7.55867 60.8774 7.992C61.0108 8.42534 61.0941 9.30868 60.0691 10.342L58.0024 12.417C57.8024 12.6171 57.6774 13.0671 57.7357 13.3421L58.3274 15.9004C58.7108 17.5671 58.1191 18.2921 57.7357 18.5754C57.5274 18.7254 57.1941 18.8921 56.7191 18.8921Z" fill="#FFB127"/>
<path d="M77.7191 18.8921C77.2774 18.8921 76.7107 18.7504 76.0024 18.3338L73.5107 16.8588C73.2524 16.7088 72.7523 16.7088 72.5023 16.8588L70.0023 18.3338C68.5273 19.2088 67.6606 18.8588 67.269 18.5754C66.8856 18.2921 66.2856 17.5671 66.6773 15.9004L67.269 13.3421C67.3356 13.0754 67.2023 12.6171 67.0023 12.417L64.9356 10.3504C63.9023 9.31702 63.9856 8.43368 64.1273 8.00034C64.2689 7.567 64.7189 6.80032 66.1523 6.55866L68.8106 6.11698C69.0606 6.07532 69.419 5.80865 69.5273 5.58364L71.0023 2.64195C71.669 1.30027 72.544 1.10027 73.0023 1.10027C73.4607 1.10027 74.3357 1.30027 75.0024 2.64195L76.4691 5.57531C76.5857 5.80031 76.9441 6.06698 77.1941 6.10865L79.8524 6.55032C81.2941 6.79199 81.7441 7.55867 81.8774 7.992C82.0108 8.42534 82.0941 9.30868 81.0691 10.342L79.0024 12.417C78.8024 12.6171 78.6774 13.0671 78.7357 13.3421L79.3274 15.9004C79.7108 17.5671 79.1191 18.2921 78.7357 18.5754C78.5274 18.7254 78.1941 18.8921 77.7191 18.8921Z" fill="#FFB127"/>
<path d="M98.7191 18.8921C98.2774 18.8921 97.7107 18.7504 97.0024 18.3338L94.5107 16.8588C94.2524 16.7088 93.7523 16.7088 93.5023 16.8588L91.0023 18.3338C89.5273 19.2088 88.6606 18.8588 88.269 18.5754C87.8856 18.2921 87.2856 17.5671 87.6773 15.9004L88.269 13.3421C88.3356 13.0754 88.2023 12.6171 88.0023 12.417L85.9356 10.3504C84.9023 9.31702 84.9856 8.43368 85.1273 8.00034C85.2689 7.567 85.7189 6.80032 87.1523 6.55866L89.8106 6.11698C90.0606 6.07532 90.419 5.80865 90.5273 5.58364L92.0023 2.64195C92.669 1.30027 93.544 1.10027 94.0023 1.10027C94.4607 1.10027 95.3357 1.30027 96.0024 2.64195L97.4691 5.57531C97.5857 5.80031 97.9441 6.06698 98.1941 6.10865L100.852 6.55032C102.294 6.79199 102.744 7.55867 102.877 7.992C103.011 8.42534 103.094 9.30868 102.069 10.342L100.002 12.417C99.8024 12.6171 99.6774 13.0671 99.7357 13.3421L100.327 15.9004C100.711 17.5671 100.119 18.2921 99.7357 18.5754C99.5274 18.7254 99.1941 18.8921 98.7191 18.8921Z" fill="#FFB127"/>
</svg>
