<svg width="57" height="56" viewBox="0 0 57 56" fill="none" xmlns="http://www.w3.org/2000/svg">
<path d="M0.5 28C0.5 12.536 13.036 0 28.5 0C43.964 0 56.5 12.536 56.5 28C56.5 43.464 43.964 56 28.5 56C13.036 56 0.5 43.464 0.5 28Z" fill="white"/>
<path d="M32.5 18H24.5C20.5 18 18.5 20 18.5 24V37C18.5 37.55 18.95 38 19.5 38H32.5C36.5 38 38.5 36 38.5 32V24C38.5 20 36.5 18 32.5 18Z" stroke="#21294B" stroke-width="1.5" stroke-linecap="round" stroke-linejoin="round"/>
<path d="M23.5 25.5H33.5" stroke="#21294B" stroke-width="1.5" stroke-miterlimit="10" stroke-linecap="round" stroke-linejoin="round"/>
<path d="M23.5 30.5H30.5" stroke="#292D32" stroke-width="1.5" stroke-miterlimit="10" stroke-linecap="round" stroke-linejoin="round"/>
</svg>
