<svg width="32" height="32" viewBox="0 0 32 32" fill="none" xmlns="http://www.w3.org/2000/svg">
<g clip-path="url(#clip0_1_1342)">
<path d="M32.0008 16C32.0008 24.8362 24.837 32 16 32H15.97C7.14721 31.9834 0 24.8244 0 16C0 7.17559 7.14721 0.0157705 15.97 0H16C24.837 0 32.0008 7.1614 32.0008 16Z" fill="black"/>
<path d="M15.97 0V32C7.14721 31.9834 0 24.8244 0 16C0 7.17559 7.14721 0.0157705 15.97 0Z" fill="#0C0C0C"/>
<path d="M24.7061 11.5708L24.6864 14.8487C24.0477 14.8409 23.4122 14.7556 22.794 14.5948C21.8402 14.3456 20.9406 13.9225 20.1406 13.3466C20.1406 13.6817 20.1453 14.1816 20.1453 14.7896C20.1453 15.5986 20.1453 16.0583 20.1406 16.5464C20.1264 19.5617 20.2013 20.1452 19.9363 21.3375C19.8812 21.625 19.8059 21.9083 19.7108 22.1852C19.2014 23.6045 18.0912 24.7416 16.9596 25.3464C16.6439 25.5142 16.3124 25.6508 15.97 25.754C13.8316 26.4022 11.2618 25.8329 9.93545 24.2558L9.92678 24.2464L9.91653 24.233C8.78972 22.8735 8.5437 20.754 8.52004 20.2115C8.52004 20.1421 8.51531 20.0743 8.51531 20.0743C8.49795 19.3332 8.60456 18.5944 8.83072 17.8885C9.0594 17.1583 9.81244 15.6341 11.5038 14.7083C12.5587 14.1401 13.7627 13.9097 14.9528 14.0484L14.9142 17.3657C14.8472 17.3483 13.2268 16.9643 12.163 18.0683C11.1995 19.0681 11.2618 20.6791 11.9454 21.5914C11.9817 21.6403 12.0203 21.6876 12.0605 21.7318C12.443 22.1583 12.9279 22.3184 13.2551 22.4304C13.6891 22.5734 14.1445 22.6401 14.6012 22.6275C15.0904 22.6199 15.5663 22.467 15.9685 22.1883C17.0803 21.4329 17.2301 20.0877 17.2356 20.0112C17.222 15.6806 17.2091 11.35 17.197 7.01942V7.01548L19.2811 6.97842H19.315L19.617 6.9729C19.8397 7.77432 20.2171 8.52439 20.728 9.18078C20.889 9.38608 21.0628 9.58097 21.2484 9.76429C21.9498 10.4469 22.7923 10.9675 23.7165 11.2893H23.7228C24.0435 11.4065 24.3721 11.5005 24.7061 11.5708Z" fill="#FD2854"/>
<path d="M23.7638 13.0541H23.7575C22.6352 13.2339 21.4863 13.1467 20.4039 12.7994C19.6482 12.5537 18.9387 12.1835 18.3049 11.7041C18.6849 14.0015 18.6849 16.3458 18.3049 18.6432C17.8546 21.3431 17.5723 23.0353 16.0655 24.1179C16.0339 24.1408 16.0016 24.1637 15.9693 24.1849C13.8883 25.594 10.981 24.8946 9.91573 24.2315L9.89996 24.222L9.87 24.2031C9.51886 23.9705 9.18949 23.7065 8.88592 23.4146C8.34174 22.8867 7.9075 22.2563 7.60827 21.5597C7.30903 20.8631 7.15073 20.1141 7.14249 19.356C7.12224 18.5708 7.25259 17.7889 7.5265 17.0527C7.70392 16.5796 8.36313 14.8969 10.1996 13.8726C11.3756 13.2278 12.7344 12.9978 14.0571 13.2197C14.0518 13.4825 14.0468 13.7454 14.0421 14.0082V14.0137L14.0113 15.6775C13.4358 15.5419 12.8408 15.5088 12.2537 15.5798C11.7806 15.6381 11.3169 15.6925 10.8241 16.0024C10.1929 16.4087 9.74621 17.0462 9.57982 17.7782C9.47452 18.1327 9.45293 18.5068 9.51674 18.8711C9.53566 18.9751 9.67445 19.6982 10.258 20.2171C10.4543 20.3913 10.5379 20.3984 10.8241 20.6657C11.0764 20.9023 11.1395 21.0159 11.3706 21.2122C11.3706 21.2122 11.4273 21.2603 11.5204 21.3281C11.5264 21.3333 11.5327 21.338 11.5393 21.3423C11.6665 21.4354 11.8001 21.5194 11.9391 21.5938C12.5171 21.8966 13.5516 21.929 14.3102 21.5607C15.3597 21.0506 15.9322 19.8772 15.9298 19.1802C15.9172 14.848 15.9043 10.5161 15.8912 6.18445H15.9637L19.1825 6.16553C19.1802 6.4166 19.215 6.66664 19.2858 6.90753C19.2937 6.93355 19.3016 6.958 19.3102 6.98638C19.3189 7.01477 19.3244 7.02818 19.3315 7.04789C19.3815 7.17893 19.4391 7.3069 19.5042 7.43111L19.5492 7.52179V7.52889C19.5484 7.53093 19.5484 7.53316 19.5492 7.5352L19.5563 7.55018L19.5634 7.56437C19.5676 7.57355 19.5724 7.58249 19.5776 7.59118C19.5823 7.60143 19.5878 7.61169 19.5933 7.62194C19.6233 7.6795 19.6643 7.7552 19.7108 7.84036C19.74 7.89319 19.7707 7.94602 19.8023 7.99806L19.8362 8.05405C19.8527 8.08244 19.8701 8.11082 19.8874 8.13842L19.9505 8.23856C20.1958 8.62573 20.6263 9.27784 21.2366 9.77067C22.0945 10.463 23.0802 10.6586 23.6984 10.7169C23.7023 10.9109 23.7071 11.1049 23.711 11.2988C23.7341 11.8844 23.7518 12.4695 23.7638 13.0541Z" fill="#24F6FA"/>
<path d="M23.7741 13.9805C22.1493 14.0402 20.554 13.535 19.2597 12.5509V19.49C19.244 19.7557 19.0114 22.6867 16.3635 24.3C16.2326 24.3788 16.1009 24.4522 15.9692 24.52C13.4783 25.7911 11.0441 24.7952 10.8036 24.6919C10.5645 24.6137 10.3353 24.5079 10.1207 24.3765C10.0537 24.3347 9.98825 24.2913 9.92595 24.2464L9.86997 24.2046C8.2456 22.9713 8.17858 20.4591 8.16833 20.0885C8.15097 19.3474 8.25758 18.6086 8.48374 17.9027C8.75184 17.0471 9.55219 15.6049 11.1568 14.7225C12.0423 14.2407 13.0373 13.9962 14.0452 14.0129V14.0184L14.0058 16.5188C13.8363 16.4731 12.797 16.2113 11.7814 16.8508C11.1502 17.2571 10.7035 17.8946 10.5371 18.6265C10.4375 18.9818 10.416 19.3543 10.474 19.7187C10.564 20.1685 10.7763 20.5848 11.0875 20.9219C11.2183 21.0726 11.3644 21.2092 11.5235 21.3296C11.5295 21.3348 11.5358 21.3395 11.5424 21.3438C11.6674 21.4402 11.8012 21.5244 11.9422 21.5953L11.9469 21.5993C12.2287 22.0248 12.6352 22.3527 13.1106 22.5382C13.5861 22.7237 14.1072 22.7577 14.6027 22.6354C14.8336 22.5872 15.0578 22.5115 15.2706 22.4099C15.5283 22.2873 15.7645 22.1238 15.97 21.9257C16.768 21.1585 16.8847 20.0971 16.8902 20.0333L16.8555 7.03125L17.2025 7.02416L19.2866 6.98315H19.3165C19.3776 7.13351 19.4437 7.28183 19.5144 7.42788L19.5594 7.51856V7.52566C19.5587 7.5277 19.5587 7.52993 19.5594 7.53197L19.5665 7.54695L19.5736 7.56114C19.5779 7.57032 19.5826 7.57926 19.5878 7.58795C19.5925 7.59821 19.598 7.60846 19.6035 7.61871C19.6398 7.68967 19.6824 7.76301 19.721 7.83713C19.7502 7.88996 19.781 7.94279 19.8125 7.99483L19.8464 8.05082L19.8977 8.13519L19.9607 8.23534C20.3214 8.79946 20.7537 9.31446 21.2468 9.76744C21.9664 10.4263 22.8037 10.9436 23.7149 11.2925H23.7212C23.7315 11.8768 23.7417 12.4626 23.7512 13.0469L23.7741 13.9805Z" fill="white"/>
<path d="M24.7061 11.5709L24.6864 14.8488C24.0476 14.841 23.4122 14.7557 22.7939 14.5949C21.8402 14.3457 20.9406 13.9225 20.1406 13.3466C20.1406 13.6818 20.1453 14.1817 20.1453 14.7896C20.1453 15.5987 20.1453 16.0584 20.1406 16.5465C20.1264 19.5618 20.2013 20.1453 19.9363 21.3376C19.8812 21.6251 19.8058 21.9083 19.7108 22.1852C19.2014 23.6046 18.0912 24.7416 16.9596 25.3464C16.6439 25.5143 16.3124 25.6509 15.97 25.7541V6.18445L19.1888 6.16553C19.1865 6.4166 19.2213 6.66664 19.2921 6.90753C19.3 6.93355 19.3079 6.958 19.3165 6.98638L19.6185 6.98086C19.8412 7.78228 20.2187 8.53235 20.7296 9.18874C20.8906 9.39404 21.0644 9.58894 21.25 9.77225C22.1079 10.4646 23.0936 10.6601 23.7118 10.7185C23.7157 10.9125 23.7205 11.1064 23.7244 11.3004C24.0448 11.4138 24.3729 11.5042 24.7061 11.5709Z" fill="black" fill-opacity="0.09"/>
</g>
<defs>
<clipPath id="clip0_1_1342">
<rect width="32" height="32" fill="white"/>
</clipPath>
</defs>
</svg>
