<svg width="100" height="168" viewBox="0 0 100 168" fill="none" xmlns="http://www.w3.org/2000/svg">
<path d="M172 84C172 89.8813 153.449 93.6201 152.189 99.1233C150.888 104.795 165.998 116.221 163.522 121.346C161.003 126.555 142.662 121.85 139.094 126.345C135.485 130.84 144.173 147.686 139.64 151.299C135.149 154.869 120.669 142.687 115.464 145.207C110.344 147.686 110.847 166.632 105.139 167.934C99.6408 169.194 91.876 151.929 86 151.929C80.124 151.929 72.3592 169.194 66.8609 167.934C61.1947 166.632 61.6984 147.686 56.5359 145.207C51.3314 142.687 36.8511 154.869 32.3602 151.299C27.8692 147.686 36.5154 130.84 32.9058 126.345C29.3382 121.85 10.9966 126.597 8.47828 121.346C6.00195 116.221 21.0698 104.795 19.8106 99.1233C18.5515 93.6201 0 89.8813 0 84C0 78.1187 18.5515 74.3799 19.8106 68.8767C21.1118 63.2055 6.00195 51.779 8.47828 46.6539C10.9966 41.4448 29.3382 46.1498 32.9058 41.6548C36.5154 37.1598 27.8272 20.3142 32.3602 16.7014C36.8511 13.1306 51.3314 25.3133 56.5359 22.7927C61.6564 20.3142 61.1528 1.36806 66.8609 0.0657825C72.3592 -1.19449 80.124 16.0713 86 16.0713C91.876 16.0713 99.6408 -1.19449 105.139 0.0657825C110.847 1.36806 110.344 20.3142 115.464 22.7927C120.669 25.3133 135.149 13.1306 139.64 16.7014C144.131 20.3142 135.485 37.1598 139.094 41.6548C142.662 46.1498 161.003 41.4028 163.522 46.6539C165.998 51.779 150.93 63.2055 152.189 68.8767C153.449 74.3799 172 78.1187 172 84Z" fill="#FFDADE"/>
<path d="M172 84C172 89.8813 153.449 93.6201 152.189 99.1233C150.888 104.795 165.998 116.221 163.522 121.346C161.003 126.555 142.662 121.85 139.094 126.345C135.485 130.84 144.173 147.686 139.64 151.299C135.149 154.869 120.669 142.687 115.464 145.207C110.344 147.686 110.847 166.632 105.139 167.934C99.6408 169.194 91.876 151.929 86 151.929C80.124 151.929 72.3592 169.194 66.8609 167.934C61.1947 166.632 61.6984 147.686 56.5359 145.207C51.3314 142.687 36.8511 154.869 32.3602 151.299C27.8692 147.686 36.5154 130.84 32.9058 126.345C29.3382 121.85 10.9966 126.597 8.47828 121.346C6.00195 116.221 21.0698 104.795 19.8106 99.1233C18.5515 93.6201 0 89.8813 0 84C0 78.1187 18.5515 74.3799 19.8106 68.8767C21.1118 63.2055 6.00195 51.779 8.47828 46.6539C10.9966 41.4448 29.3382 46.1498 32.9058 41.6548C36.5154 37.1598 27.8272 20.3142 32.3602 16.7014C36.8511 13.1306 51.3314 25.3133 56.5359 22.7927C61.6564 20.3142 61.1528 1.36806 66.8609 0.0657825C72.3592 -1.19449 80.124 16.0713 86 16.0713C91.876 16.0713 99.6408 -1.19449 105.139 0.0657825C110.847 1.36806 110.344 20.3142 115.464 22.7927C120.669 25.3133 135.149 13.1306 139.64 16.7014C144.131 20.3142 135.485 37.1598 139.094 41.6548C142.662 46.1498 161.003 41.4028 163.522 46.6539C165.998 51.779 150.93 63.2055 152.189 68.8767C153.449 74.3799 172 78.1187 172 84Z" fill="url(#paint0_linear_1_1211)" fill-opacity="0.4"/>
<defs>
<linearGradient id="paint0_linear_1_1211" x1="-0.289078" y1="1.89126e-06" x2="200.494" y2="120.535" gradientUnits="userSpaceOnUse">
<stop stop-color="#FF909C"/>
<stop offset="1" stop-color="#FFDADE"/>
</linearGradient>
</defs>
</svg>
