<svg width="32" height="32" viewBox="0 0 32 32" fill="none" xmlns="http://www.w3.org/2000/svg">
<g clip-path="url(#clip0_1_1360)">
<path d="M16 32C24.8366 32 32 24.8366 32 16C32 7.16344 24.8366 0 16 0C7.16344 0 0 7.16344 0 16C0 24.8366 7.16344 32 16 32Z" fill="#29A71A"/>
<path d="M23.0545 8.94536C21.3899 7.26408 19.1792 6.23301 16.8213 6.03813C14.4634 5.84324 12.1134 6.49737 10.1953 7.88252C8.27718 9.26768 6.91719 11.2927 6.36062 13.5922C5.80406 15.8918 6.08756 18.3146 7.16 20.4235L6.10727 25.5344C6.09635 25.5853 6.09604 25.6379 6.10636 25.6889C6.11669 25.7399 6.13742 25.7882 6.16727 25.8308C6.211 25.8955 6.27341 25.9453 6.34619 25.9735C6.41896 26.0018 6.49863 26.0072 6.57454 25.989L11.5836 24.8017C13.6867 25.847 16.0923 26.1123 18.3726 25.5503C20.6528 24.9884 22.6598 23.6357 24.0363 21.7329C25.4128 19.8302 26.0696 17.5007 25.8898 15.1592C25.7101 12.8176 24.7054 10.6157 23.0545 8.94536ZM21.4927 21.4108C20.3409 22.5594 18.8578 23.3175 17.2523 23.5785C15.6468 23.8394 13.9999 23.59 12.5436 22.8654L11.8455 22.5199L8.77454 23.2472L8.78363 23.209L9.42 20.1181L9.07818 19.4435C8.33411 17.9822 8.07162 16.3229 8.32834 14.7033C8.58505 13.0836 9.34778 11.5868 10.5073 10.4272C11.9642 8.97071 13.9399 8.15251 16 8.15251C18.0601 8.15251 20.0358 8.97071 21.4927 10.4272C21.5051 10.4414 21.5185 10.4548 21.5327 10.4672C22.9716 11.9274 23.7748 13.8972 23.7673 15.9472C23.7598 17.9972 22.9422 19.9611 21.4927 21.4108Z" fill="white"/>
<path d="M21.22 19.1435C20.8436 19.7362 20.2491 20.4617 19.5018 20.6417C18.1927 20.9581 16.1836 20.6526 13.6836 18.3217L13.6527 18.2944C11.4546 16.2563 10.8836 14.5599 11.0218 13.2144C11.0982 12.4508 11.7346 11.7599 12.2709 11.309C12.3557 11.2366 12.4563 11.1851 12.5645 11.1585C12.6728 11.132 12.7858 11.1311 12.8945 11.156C13.0031 11.1809 13.1045 11.2309 13.1903 11.302C13.2762 11.3731 13.3443 11.4633 13.3891 11.5653L14.1982 13.3835C14.2508 13.5014 14.2703 13.6314 14.2546 13.7595C14.2389 13.8876 14.1886 14.0091 14.1091 14.1108L13.7 14.6417C13.6122 14.7513 13.5593 14.8847 13.5479 15.0247C13.5366 15.1647 13.5674 15.3048 13.6364 15.4272C13.8655 15.829 14.4146 16.4199 15.0236 16.9672C15.7073 17.5853 16.4655 18.1508 16.9455 18.3435C17.0739 18.396 17.2151 18.4088 17.3509 18.3803C17.4867 18.3518 17.6108 18.2832 17.7073 18.1835L18.1818 17.7053C18.2734 17.6151 18.3873 17.5507 18.5118 17.5187C18.6364 17.4868 18.7672 17.4884 18.8909 17.5235L20.8127 18.069C20.9188 18.1015 21.0159 18.1578 21.0968 18.2337C21.1777 18.3095 21.2402 18.4028 21.2795 18.5065C21.3188 18.6102 21.3339 18.7215 21.3236 18.8319C21.3133 18.9423 21.2778 19.0489 21.22 19.1435Z" fill="white"/>
</g>
<defs>
<clipPath id="clip0_1_1360">
<rect width="32" height="32" fill="white"/>
</clipPath>
</defs>
</svg>
