<svg width="126" height="168" viewBox="0 0 126 168" fill="none" xmlns="http://www.w3.org/2000/svg">
<path d="M108.235 0C101.131 0 94.9975 11.4481 92.1559 27.9984C88.9518 19.4099 84.5718 14.1118 79.7412 14.1118C72.6372 14.1118 66.5034 25.5599 63.6618 42.1102C60.4577 33.5217 56.0777 28.2236 51.2471 28.2236C44.1431 28.2236 38.0093 39.6717 35.1677 56.222C31.9636 47.6335 27.5837 42.3354 22.753 42.3354C15.649 42.3354 9.51517 53.7835 6.6736 70.3338C3.46947 61.7453 -0.910484 56.4472 -5.74116 56.4472C-12.8451 56.4472 -18.979 67.8953 -21.8205 84.4456C-25.0247 75.8571 -29.4046 70.559 -34.2352 70.559C-44.0436 70.559 -52 92.3682 -52 119.28C-52 146.191 -44.0436 168 -34.2352 168C-27.1313 168 -20.9974 156.552 -18.1559 140.002C-14.9517 148.59 -10.5718 153.888 -5.74116 153.888C1.36277 153.888 7.49666 142.44 10.3382 125.89C13.5424 134.478 17.9223 139.776 22.753 139.776C29.8569 139.776 35.9908 128.328 38.8323 111.778C42.0364 120.367 46.4164 125.665 51.2471 125.665C58.351 125.665 64.4849 114.216 67.3265 97.6662C70.5306 106.255 74.9105 111.553 79.7412 111.553C86.8451 111.553 92.979 100.105 95.8206 83.5544C99.0247 92.1429 103.405 97.441 108.235 97.441C118.044 97.441 126 75.6318 126 48.7205C126 21.8092 118.053 0 108.235 0Z" fill="#CAE5FF"/>
<path d="M108.235 0C101.131 0 94.9975 11.4481 92.1559 27.9984C88.9518 19.4099 84.5718 14.1118 79.7412 14.1118C72.6372 14.1118 66.5034 25.5599 63.6618 42.1102C60.4577 33.5217 56.0777 28.2236 51.2471 28.2236C44.1431 28.2236 38.0093 39.6717 35.1677 56.222C31.9636 47.6335 27.5837 42.3354 22.753 42.3354C15.649 42.3354 9.51517 53.7835 6.6736 70.3338C3.46947 61.7453 -0.910484 56.4472 -5.74116 56.4472C-12.8451 56.4472 -18.979 67.8953 -21.8205 84.4456C-25.0247 75.8571 -29.4046 70.559 -34.2352 70.559C-44.0436 70.559 -52 92.3682 -52 119.28C-52 146.191 -44.0436 168 -34.2352 168C-27.1313 168 -20.9974 156.552 -18.1559 140.002C-14.9517 148.59 -10.5718 153.888 -5.74116 153.888C1.36277 153.888 7.49666 142.44 10.3382 125.89C13.5424 134.478 17.9223 139.776 22.753 139.776C29.8569 139.776 35.9908 128.328 38.8323 111.778C42.0364 120.367 46.4164 125.665 51.2471 125.665C58.351 125.665 64.4849 114.216 67.3265 97.6662C70.5306 106.255 74.9105 111.553 79.7412 111.553C86.8451 111.553 92.979 100.105 95.8206 83.5544C99.0247 92.1429 103.405 97.441 108.235 97.441C118.044 97.441 126 75.6318 126 48.7205C126 21.8092 118.053 0 108.235 0Z" fill="url(#paint0_linear_1_1210)" fill-opacity="0.4"/>
<defs>
<linearGradient id="paint0_linear_1_1210" x1="-52.2992" y1="1.89126e-06" x2="151.653" y2="126.708" gradientUnits="userSpaceOnUse">
<stop stop-color="#84C3FF"/>
<stop offset="1" stop-color="#CAE5FF"/>
</linearGradient>
</defs>
</svg>
