<svg width="32" height="32" viewBox="0 0 32 32" fill="none" xmlns="http://www.w3.org/2000/svg">
<g clip-path="url(#clip0_1_1354)">
<path d="M16 0.800049C7.60511 0.800049 0.799988 7.62341 0.799988 16.0404C1.60063 36.2564 30.4022 36.2506 31.2 16.04C31.2 7.62341 24.3945 0.800049 16 0.800049ZM16 24.7677C11.1885 24.7677 7.27359 20.8532 7.27359 16.0413C7.51039 10.0695 11.9629 7.35845 15.9997 7.35845H16.0003C20.0374 7.35877 24.4902 10.0698 24.7257 16.0218C24.7264 20.8535 20.8115 24.7677 16 24.7677Z" fill="#FF0000"/>
<path d="M16.0006 8.35303C10.8979 8.35271 8.41534 12.3485 8.26782 16.0612C8.26814 20.305 11.7366 23.7735 16 23.7735C20.2633 23.7735 23.7318 20.305 23.7318 16.0417C23.5856 12.3492 21.1033 8.35367 16.0006 8.35303Z" fill="#FF0000"/>
<path d="M13.1376 16.8089V20.1561L20.1142 15.8627L13.1376 11.927V16.8089Z" fill="#F1F1F1"/>
</g>
<defs>
<clipPath id="clip0_1_1354">
<rect width="32" height="32" fill="white"/>
</clipPath>
</defs>
</svg>
